<svg xmlns="http://www.w3.org/2000/svg" viewBox="0 0 209.38 192.97"><path d="M118.88 19.24c.51.36 2.66 2.16 2.88 2.81a12.38 12.38 0 0 0 1.13 2c1.11 2 2.16 4 3.27 6 .58 1.06 1.16 2.13 1.83 3.15s1.23 2.43 1.88 3.64a13.27 13.27 0 0 0 1.67 2.71.62.62 0 0 1 .14.19 25.62 25.62 0 0 0 2.87 5.27 9.63 9.63 0 0 1 .5 1.19 29 29 0 0 0 2.16 3.8 24.65 24.65 0 0 1 1.47 2.84 5 5 0 0 0 .37.73 10.76 10.76 0 0 1 1.37 2.46 12.88 12.88 0 0 0 1.09 1.8 23 23 0 0 0 1.06 2.1c.82 1.29 1.38 2.73 2.25 4a.78.78 0 0 1-.09 1.08 3.81 3.81 0 0 1-2.57 1.29c-.73 0-1.54.29-2.14-.42-.4.1-.76-.45-1.23-.07-.17.14-.54 0-.82 0a5.14 5.14 0 0 1-2-.2c-.62.47-1.22 0-1.82 0a2.19 2.19 0 0 0-.95.06 4.07 4.07 0 0 1-2.24.08 7.39 7.39 0 0 0-1.4-.14h-10.83a14.14 14.14 0 0 1-2.06 0 14.14 14.14 0 0 0-2.16 0h-12.85a9.34 9.34 0 0 0-1.59 0 6.78 6.78 0 0 1-1.56 0 2.41 2.41 0 0 1-1-.14 1.26 1.26 0 0 0-1 0 3.12 3.12 0 0 1-1.42.13 1.43 1.43 0 0 1-1.47-1.92 5 5 0 0 1 1.08-2.21c.5-.47.41-1.29 1-1.71a66.27 66.27 0 0 1 3.21-5.92 56.43 56.43 0 0 1 2.85-5.31 35.34 35.34 0 0 0 1.9-3.54 21.64 21.64 0 0 1 1.24-2.14 1.25 1.25 0 0 0 .15-.19c.66-1.84 1.89-3.36 2.76-5.08a38.49 38.49 0 0 1 2.79-5.07 13.38 13.38 0 0 0 .9-1.91c.39-.73.88-1.39 1.28-2.11a9.37 9.37 0 0 0 .83-1.68 9.29 9.29 0 0 1 .93-1.65c.86-1.5 1.63-3 2.58-4.5m5.62 17.13c0-.24 0-.53-.07-.7a1.55 1.55 0 0 1 .14-1.77 1.34 1.34 0 0 0 .14-.8c0-.51-.7-1.26-1.13-1.16s-.41.67-.52 1a1.37 1.37 0 0 0 .1.92 1.54 1.54 0 0 1-.12 1.57 2.56 2.56 0 0 0-.26 1.49.63.63 0 0 0 .38.68.88.88 0 0 0 .89-.11 1.19 1.19 0 0 0 .32-1.04zm-6.26 12.61c0-.36 0-.6-.23-.67a.5.5 0 0 0-.54.13 13.37 13.37 0 0 0-1.15 1.48c-.2.32.14.56.34.81s.5.05.58 0a3.69 3.69 0 0 0 .87-1.67zm21.62 10.96c-.23 0-.35.14-.5.27-.48.44-.3 1.1-.55 1.61a.24.24 0 0 0 .08.2.23.23 0 0 0 .32 0 5 5 0 0 1 1-.79c.38-.18.31-.62.2-.95a.51.51 0 0 0-.55-.34zM108 52.44c.38 0 .87-.45.89-.91a.64.64 0 0 0-.66-.78 1.06 1.06 0 0 0-1 .79 1 1 0 0 0 .77.9zm12.94 1.93c-.48 0-.7.19-.73.69a.78.78 0 0 0 .82.75 1.17 1.17 0 0 0 .85-.71c-.02-.28-.59-.72-.97-.73zm3.24-2.37a.89.89 0 0 0-.27.06c-.13.06-.18.84-.09 1a1.21 1.21 0 0 0 .91.27c.25-.14.66-.19.5-.65a1.15 1.15 0 0 0-1.05-.68zm5 1.21c-.2 0-.56-.15-.58.3s.24.64.75.66.44-.17.45-.5-.22-.54-.6-.5zm-13.6-12c.52 0 .76-.26.72-.7s-.32-.28-.53-.27c-.45 0-.66.24-.67.63s.26.26.5.26zm8.64 16.24c-.24-.13-.11-.56-.49-.59s-.73.26-.66.51a.59.59 0 0 0 .6.46c.33-.08.43-.26.57-.46zM121.13 32a.2.2 0 0 0-.21.21.19.19 0 0 0 .18.23c.19 0 .28-.07.26-.26a.19.19 0 0 0-.23-.18zM81.42 116.48a5.77 5.77 0 0 0 0-.72 4 4 0 0 1 1-2.85 1.94 1.94 0 0 1 .49-.5c1-.79 2.14-1.49 3.18-2.27a25.66 25.66 0 0 1 2.58-1.65c1.44-.84 2.74-1.87 4.14-2.75.67-.42 1.32-.87 2-1.26 1.52-.85 2.84-2 4.32-2.9 2-1.23 4-2.56 5.94-3.88 1.28-.85 2.52-1.76 3.8-2.61s2.57-1.54 3.79-2.41c1.48-1.05 3-1.94 4.56-2.94a3.77 3.77 0 0 1 4.32.06c2.38 1.47 4.72 3 7 4.64a15.73 15.73 0 0 0 2.13 1.49c1.2.6 2.11 1.62 3.38 2.1a8.12 8.12 0 0 1 2 1.47 31.48 31.48 0 0 0 3.2 2 26.89 26.89 0 0 1 2.35 1.59c1.35 1 2.83 1.86 4.25 2.78a5.71 5.71 0 0 1 1.15.85c.23.24.43.47.8.16.19-.15.42 0 .49.2.36.89 1.25 1.16 1.9 1.71a8.78 8.78 0 0 1 1.42 1.09c.07.09.17.22.27.23.9.13 1.44.89 2.19 1.29a5.33 5.33 0 0 1 2.42 2.7 1.41 1.41 0 0 1 .11.45 14 14 0 0 0 .21 3 1.59 1.59 0 0 1 0 .72c-.27 1.3-.89 1.53-2.13 1a23.1 23.1 0 0 1-2.14-1.47 4.81 4.81 0 0 0-1.14-.61.55.55 0 0 1-.32-.13c-.62-.89-1.71-1.08-2.5-1.71-.18-.15-.41-.25-.59-.4a17.75 17.75 0 0 0-3.7-2.33c-.19-.1-.38-.25-.6-.06a2 2 0 0 0-.38-.59 17.26 17.26 0 0 0-2.5-1.75c-.07 0-.18 0-.22-.07a14.75 14.75 0 0 0-2.68-1.73c-1.37-.94-2.81-1.76-4.12-2.78-1.82-1.41-3.89-2.41-5.76-3.73-1.61-1.13-3.26-2.21-4.89-3.32a22.81 22.81 0 0 0-2.21-1.34 3.58 3.58 0 0 0-3.58 0 12.27 12.27 0 0 0-2.09 1.36 13.89 13.89 0 0 1-1.69 1.08c-1.05.7-2.07 1.45-3.13 2.14-.76.49-1.61.83-2.33 1.39-2.06 1.61-4.42 2.77-6.43 4.45a9.69 9.69 0 0 1-1.53.89 18.76 18.76 0 0 0-1.79 1.15c-1.64 1.17-3.41 2.15-5 3.38-1.26 1-2.73 1.59-4 2.56-1.07.82-2.18 1.58-3.29 2.33-.74.5-1.54.93-2.29 1.42a2.63 2.63 0 0 1-1.51.22c-.17 0-.26-.1-.34-.26a2.55 2.55 0 0 1-.47-1.57 9.68 9.68 0 0 0 0-1.32zM199.43 160.58a3 3 0 0 0 .16 1.11 1.52 1.52 0 0 1-.69 1.64c-.13.08-.35.15-.45.09-.34-.2-.76-.16-1.09-.42a43.26 43.26 0 0 0-4.61-3.11c-1.57-1-3-2.21-4.58-3.12-2.24-1.26-4.26-2.86-6.49-4.13-.75-.43-1.39-1-2.14-1.49-2.39-1.46-4.63-3.15-7.06-4.56-1-.57-1.82-1.38-2.81-2-1.15-.68-2.27-1.41-3.42-2.11a13 13 0 0 1-1.45-1 16.82 16.82 0 0 0-2-1.41 48.44 48.44 0 0 1-4.51-3 1.15 1.15 0 0 1-.52-.64c-.2-.89-1-1.66-.55-2.68 0-.05 0-.13-.06-.2a5.91 5.91 0 0 1-.1-1.78 1.72 1.72 0 0 1 .65-1.46 1.63 1.63 0 0 1 1.81.18c1.32 1.14 3 1.78 4.28 3a10.52 10.52 0 0 0 1.27.87c1.05.7 2.07 1.45 3.16 2.09s2.21 1.78 3.58 2.26a.69.69 0 0 1 .29.2 11.36 11.36 0 0 0 2.43 1.63c.34.23.63.49.94.73 1.44 1.12 3 2 4.54 3 2 1.3 3.92 2.62 5.93 3.86 1.1.69 2.22 1.35 3.28 2.11.4.29.88.16 1.31.48s.89.84 1.36 1.23c1.33 1.14 2.87 2 4.28 3 .55.39 1.09.77 1.6 1.2a5.38 5.38 0 0 1 1.66 4.43zM81.17 133.16a8.61 8.61 0 0 1-.24 2.46 3.84 3.84 0 0 1-1.42 2.22c-.87.61-1.81 1.14-2.64 1.8s-2 1.18-3 1.84c-1.62 1.11-3.2 2.3-4.91 3.28-.81.47-1.61 1-2.44 1.43a9.76 9.76 0 0 0-1.15.85c-.68.51-1.44.91-2.15 1.39s-1.29.73-1.93 1.1a2 2 0 0 1-2.77-.91c-.45-.92-1-1.8-1.48-2.69-.27-.49-.26-.45.16-.81 1.26-1.09 2.68-2 4-2.93 1.11-.8 2.26-1.56 3.44-2.28a16.88 16.88 0 0 1 2.81-1.74c1.09-1.11 2.6-1.65 3.77-2.66a11.22 11.22 0 0 1 1.88-1.22 23.29 23.29 0 0 0 3.14-2.11c.82-.66 1.84-1.05 2.73-1.63a1.79 1.79 0 0 1 1.1-.34 1 1 0 0 1 1.07 1c.05.57.03 1.14.03 1.95z" fill="#d45245"/><path d="M176.71 20.66h-2.88c-.28 0-.6-.13-.85.14s-.3.36-.53.32c-.46-.07-1 .28-1.34-.41 0-.06-.2 0-.31 0-.69.49-.77.48-1.38.13a2.44 2.44 0 0 0-2.27-.06 2.79 2.79 0 0 1-1.21.31 6.47 6.47 0 0 0-1.08 0c-.39.08-.72.12-1-.26 0-.09-.23-.19-.27-.16-.76.54-1.61-.3-2.37.14a10.2 10.2 0 0 0-2.53 0 2.06 2.06 0 0 0-1.79.39c-.2.2-.59.12-.9-.05-.47-.27-1-.5-1.47-.73a1 1 0 0 1-.64-1.13c.13-.58.18-1.23.94-1.5a4.28 4.28 0 0 0 2.66-3.48 6.4 6.4 0 0 1 .38-1.22.73.73 0 0 0 .07-.57.71.71 0 0 1 .39-1c.69-.11.88-.67 1.16-1.06a10.94 10.94 0 0 1 5.59-4 4.33 4.33 0 0 1 3.23-.14 1.38 1.38 0 0 0 1-.09c.61-.26.77-.19 1.13.41a1.37 1.37 0 0 0 .73.56 11.07 11.07 0 0 1 3.52 2.78 8.69 8.69 0 0 1 1.05 2.22 5.13 5.13 0 0 0 2.94 2.87 4.72 4.72 0 0 1 2.88 2.61 1.94 1.94 0 0 1-1.78 2.89h-3.13zm-13.66-9.27c0-.05 0-.21-.07-.26s-.25.09-.34.18-.61.2-.74.53a.86.86 0 0 0 0 .45c0 .18.22.17.38.18.5.02.72-.25.77-1.08zm1.95 6.82c0 .28.19.26.34.28.34 0 .48-.25.67-.44s.31-.52 0-.71a.49.49 0 0 0-.71.2 5.29 5.29 0 0 0-.3.67zm5.2-4.13c0-.07 0-.16-.09-.15-.41 0-.88-.17-1.2.28-.11.16-.08.32.07.39a1.47 1.47 0 0 0 1.21-.52zm-4.25-4.22c0 .16-.07.41.23.42s.5-.33.48-.67-.22-.27-.41-.27c-.38.01-.25.28-.31.52zm3.62 7.14h.09l.32-.11a1.83 1.83 0 0 1-.28-.14 3.66 3.66 0 0 0-.55-.44c-.13-.07-.3 0-.32.23s.06.46.74.46zM165 12.71c.29 0 .71-.26.65-.39a.29.29 0 0 0-.21-.09c-.28 0-.7.25-.64.38s.12.07.2.1z" fill="#ceebec"/><path d="M130.62 193.78c-4.21.06-7.8.3-11.41.24-2.32-.05-4.64.19-7 .22-1.79 0-3.59-.1-5.38-.16a5.68 5.68 0 0 1-.72-.05c-.55-.08-1.18.32-1.63-.1s.15-1 0-1.49c-.25-1-.69-2-.33-3 .79-2.07.48-4.19.42-6.27-.19-6.4.06-12.8-.1-19.2-.09-3.88.15-7.78 0-11.65a38.3 38.3 0 0 1 0-4c.18-3.16-.13-6.33 0-9.49a4.25 4.25 0 0 0-.41-2.68 1.17 1.17 0 0 1 0-1.06c.65-1.33.4-2.73.41-4.11a19.6 19.6 0 0 1 1.92-8.24 11.29 11.29 0 0 1 4.77-4.88 25.23 25.23 0 0 1 4.54-2.17 9.68 9.68 0 0 1 7.88.51 25.25 25.25 0 0 1 5.71 3.72 21.4 21.4 0 0 1 2.39 3c.95 1.23 1.32 2.78 2.07 4.08s.55 2.46.56 3.71c0 1.8 0 3.61-.05 5.41a2.18 2.18 0 0 0 .35 1.7.51.51 0 0 1 .11.57c-.76 1.67-.41 3.45-.43 5.18v11.78c0 3.6.09 7.2.11 10.81 0 3.12-.09 6.24 0 9.35.1 2.9-.1 5.8.05 8.7s0 5.59.12 8.38c0 .67-.15 1-.93 1-1.16.05-2.39.25-3.02.19zM109.42 141c.87.31 1.26-.77 2.08-.7.39 0 .65-.27.73-.66a.67.67 0 0 0-.34-.82c-.36-.2-.84-.39-1.1 0-.57.78-1.47.73-2.22 1a4.63 4.63 0 0 0-1.09.48c-.41.3-.8.68-.45 1.19s.83.31 1.27 0 .57-.68 1.12-.49zm13.68-4.37c-.76-1-1.31-1.35-1.7-.89a8.47 8.47 0 0 0-1.61 3.43c-.12.44.24.75.67.85s.55-.17.68-.5a5.65 5.65 0 0 1 1.96-2.88zm-3.87-14.79c-.32.47-.19.94-.29 1.36s0 1.09-.29 1.62c-.55.91-.47 1 .81 1.69.11-.72.67-1.09 1.37-1.64-1.07-.45-1-1.21-.78-2 .13-.6-.18-.93-.82-1.02zm-4.92 28.51c-1.2.24-2.22 1-3.46.72-.42-.07-.68.22-.64.66a.48.48 0 0 0 .69.44 2.05 2.05 0 0 1 2.49.39.38.38 0 0 0 .62-.3c-.01-.65.33-1.26.3-1.9zm16.62-7.82c-.74 0-1.29.19-1.36.94 0 .57.31.87.87.91s1.61-.64 1.59-1c-.03-.74-.55-.87-1.1-.84zm-7.65 38v.45a.85.85 0 0 0 .58.93.45.45 0 0 0 .53-.16.87.87 0 0 0 0-1 1.4 1.4 0 0 1-.16-1.46.36.36 0 0 0-.18-.5.51.51 0 0 0-.63.22c-.28.42-.18.87-.14 1.57zM112.7 133.7c.23 0 .41-.08.42-.23a2.11 2.11 0 0 1 1.2-1.65.49.49 0 1 0-.55-.81 4.17 4.17 0 0 0-1.46 1.86.6.6 0 0 0 .39.83zm13.16 18.58c-.58-.1-1.17-.18-1.57.4-.25.38-.4.85.07 1.16a.75.75 0 0 0 1.13-.28 1.65 1.65 0 0 0 .37-1.28zm-1.44-29c.6 0 1.12-.09 1.15-.79a.54.54 0 0 0-.7-.6c-.57.11-1.33.17-1.41.87s.6.42.96.48zM126 140c.25.37 0 1.25.75 1.21s.62-.82.71-1.34-.15-.78-.66-.75-.87.2-.8.88zm-3.68 2.39c-.47-.07-.76-.09-.89.24s.08.53.34.68a3.14 3.14 0 0 0 1.1.46.62.62 0 0 0 .75-.45.57.57 0 0 0-.42-.75 5.69 5.69 0 0 0-.89-.2zm8.44-10.32a1.94 1.94 0 0 0-1.32.32.6.6 0 0 0-.28.71.75.75 0 0 0 .61.64.56.56 0 0 0 .69-.33c.15-.41.54-.8.29-1.36zM185.32 193.66c-1.91 0-3.83-.23-5.7.38a.6.6 0 0 1-.35 0c-2.81-.92-5.7-.25-8.55-.43a5.25 5.25 0 0 0-1.49.4c-.64.16-1.11.11-1.12-.74a33.24 33.24 0 0 1-.07-3.46 3.06 3.06 0 0 0-.34-2.2c-.35-.5-.1-1.08 0-1.62.19-.81.49-1.64-.14-2.4a.51.51 0 0 1-.08-.57c.67-1.05.37-2.22.32-3.29a29.24 29.24 0 0 1-.14-4.59c.27-2.66-.14-5.33-.09-8a6.46 6.46 0 0 1 1.23-3.18c1.69-2.86 3.95-5.05 7.31-5.66a11.39 11.39 0 0 1 8.75 2.14 10.46 10.46 0 0 1 3.06 4.38c1.12 2.35 1.25 5 1.48 7.47.14 1.53-.1 3.17-.06 4.77l.12 4.19a1 1 0 0 0 .25.78 1 1 0 0 1 .1 1.32 1.39 1.39 0 0 0 0 1.75 1 1 0 0 1 0 1.14 1.62 1.62 0 0 0 0 1.79 1.82 1.82 0 0 1 0 1.61c-.45.92-.09 2-.24 3-.11.72-.32.95-1.08 1a31.87 31.87 0 0 1-3.17.02zm-12.39-25.88a2.23 2.23 0 0 0 1.07 2.12 6.77 6.77 0 0 1 2.39 1.66 1.84 1.84 0 0 0 .29-.13c-.21-.54-.59-1-.43-1.71.08-.36-.41-.39-.73-.44a2.25 2.25 0 0 1-1.9-1.28c-.07-.18-.24-.31-.69-.22zm8.3 11.48h.77c.28 0 .64.07.66-.31s-.37-.49-.69-.41c-.53.14-1.1.26-1.48-.16s-1.14-.51-1.75-.65c-.32-.07-.67-.13-.83.24s.14.67.46.84a4.41 4.41 0 0 0 2.86.45zm-7.93 9.35a3.9 3.9 0 0 0-2.47-2.9.41.41 0 0 0-.43.14.37.37 0 0 0 .06.53c.18.15.43.21.61.36.65.51 1.33 1 1.36 1.94 0 .34 0 .71.45.64s.41-.43.42-.71zm3.14-1.72c.38 1.82 1.36 2.22 2.92 1.34-.69-.98-1.87-.8-2.92-1.34zm-1.91-1.13c0-.57-.77-1.38-1.2-1.32s-.73.25-.54.6c.28.5.14 1.38 1 1.43a.7.7 0 0 0 .74-.71zm8.82-10.29c-.15-.48.1-1.34-.75-1.35-.7 0-.53.79-.63 1.26a.79.79 0 0 0 .8 1c.58.03.58-.38.58-.91zm-10 3.66c-.55.36-.22 1.07-.59 1.48s-1 .68-1.32 1.2l-.06.11c-.12.22-.17.47.06.64s.47 0 .61-.18a16.48 16.48 0 0 0 1.55-2.41c.09-.3.15-.61-.29-.84zm4.48-4c0-.58-.76-1.34-1.23-1.28s-.46.27-.46.58c0 .52.68 1.42 1.1 1.41s.52-.34.55-.69zm1.73-3.87c-.78-.5-1.1-1.46-2-1.9-.18 1.58.51 2.28 1.96 1.92zM49.43 193.84c-.28-1.5 0-2.91-.23-4.3-.08-.58.06-1.2-.34-1.73-.09-.12-.17-.37-.11-.44.66-.85.36-1.83.46-2.75a1.54 1.54 0 0 1 .7-1.07c2-1 3.19-2.75 4.57-4.33a4.32 4.32 0 0 0 1-1.87 3.47 3.47 0 0 1 1.22-1.8 5.29 5.29 0 0 0 1.64-4.09 2 2 0 0 1 .27-1.24c1.21-1.45 1.18-3.27 1.53-4.95a35.73 35.73 0 0 0 .59-4.15 2.43 2.43 0 0 1 2.61-2 6.86 6.86 0 0 1 4.66 2.71 12.74 12.74 0 0 1 2.55 8 83.92 83.92 0 0 0 .18 8.4c.19 1.67 0 3.3.08 4.94a42.25 42.25 0 0 1 .07 5c-.1 1.16.14 2.31.06 3.48a2.36 2.36 0 0 1-2.63 2.42c-1.6 0-3.21-.1-4.8 0a6.92 6.92 0 0 1-2.81-.07.74.74 0 0 0-.36 0c-1.63.43-3.24-.06-4.87-.08H55c-1.22.92-2.49.43-3.73.09a13.12 13.12 0 0 0-1.84-.17zM66 179.3c.46-.91-.27-2.51 1.62-2.1.09-.45.17-.83-.2-1.06s-.72 0-1 .26a1.93 1.93 0 0 1-2.37.56c-.07 0-.21.08-.52.21A19.5 19.5 0 0 1 66 179.3zm-1.28 7c.5-.13 1-.3 1.18-.86s-.6-1.14-1.16-1.18a.78.78 0 0 0-1 .81 1.16 1.16 0 0 0 .98 1.24zm4-3.56c-.93.25-.95.27-1.64-.28-.33-.25-.63-.36-1-.12a.77.77 0 0 0-.27.86.68.68 0 0 0 .77.6c.48 0 1 0 1.43-.08s.87-.28.73-.97zm-14.06 2.52c-1.2 1.51-1.07 1.37.29 2.25a.64.64 0 0 0 1-.2.56.56 0 0 0-.37-.92c-.52-.12-.68-.54-.9-1.12zm8.19-13a2 2 0 0 0 1.09-.55c.26-.28.64-.59.36-1s-.76-.36-1.19-.3-.58.38-.52.78-.05.72.28 1.09zm-.85 2.17c-.06.58.1 1 .72 1 .37 0 .84-.09.72-.55s0-1.25-.67-1.39-.62.51-.77.94zm.33 11.81c-.74-.1-.74-.1-1.83 1.32 1.08.92 1.38.44 1.87-1.32zM125.26 77.75a6.13 6.13 0 0 1-4 6.09c-1.14.51-2.2 1.06-3.48.71-.41-.1-.9-.07-1-.69 0-.38-.46-.41-.72-.57-2.31-1.37-3.2-3.36-3.31-6.07-.07-1.63 1-2.3 1.62-3.35.44-.75 1.38-1.1 1.75-2a.45.45 0 0 1 .52-.22 6.2 6.2 0 0 0 3.13-.41c.66-.19 1.35-.33 1.72.55.08.2.34.33.54.46.42.29 1.14-.09 1.4.49.67 1.47 1.84 2.73 1.78 4.48z" fill="#96d7df"/><path d="M44.35 188c-.32-.14-.69 0-1.12.21a20.66 20.66 0 0 1-2.42.78c-.54.15-.22.16 0 .28s0 .16-.09.2c-.39.21-.79.41-1.21.12a.8.8 0 0 0-.8-.09c-.59.43-1.36 0-1.92.45-.84-.16-1.62.33-2.46.24a.9.9 0 0 0-.76.25 1 1 0 0 1-1.4 0c-.15-.12-.28-.29-.51-.25-1 .15-1.94-.38-2.94-.24a7.37 7.37 0 0 1-1.73-.29 13.37 13.37 0 0 1-2.46-.6c-.12 0-.23-.09-.34 0-1.08.53-1.9-.36-2.84-.56-.13 0-.2-.31-.31-.47s-.19-.2-.37-.07c-.47.3-.79 0-1-.36a2 2 0 0 0-1-.77c-.92-.43-1.68-1.13-2.6-1.58-.24-.12-.39-.36-.66-.1a3 3 0 0 1-1.68-1.36c.24-.48-.14-.5-.43-.51-.5 0-.95-.25-.95-.73s-.17-.48-.43-.5a.7.7 0 0 1-.67-.55c-.16-.47-.21-.43-1.1-1a6.48 6.48 0 0 1-1-1c.46-1.17-.88-1.57-1.08-2.46A15.21 15.21 0 0 1 6 173.52a25.17 25.17 0 0 1-2-5.43c-.25-1-.37-2.13-.68-3.17a4.37 4.37 0 0 1 0-1 7.26 7.26 0 0 0-.56-2.6 1.12 1.12 0 0 1 .13-1.41c.21-.2.14-.36.07-.62-.15-.63-.37-1.32.25-1.88.17-.15.12-.37.12-.56v-1.69a3.37 3.37 0 0 1 .83-2.42 4.83 4.83 0 0 0 .82-2c.11-.39-.18-.11-.33-.11s-.14-.19-.09-.28.25-.31.22-.54a.25.25 0 0 1 .13-.28c0 .11.08.22.11.32a1.57 1.57 0 0 0 0 .23c0 .12.14.12.15 0 0-.54.62-1 .48-1.4-.21-.66.21-1.09.32-1.61a4.73 4.73 0 0 1 1-1.58c.86.19.88-.66 1.24-1.05a1.34 1.34 0 0 0 .42-1.18c-.11-.45.34-.6.45-.92s.43-.41.78-.43a.77.77 0 0 0 .7-.78c.12-1.13 1-1.54 1.87-2a6.37 6.37 0 0 0 .92-.5A20.71 20.71 0 0 1 17 136a.83.83 0 0 0 .38-.44 1.45 1.45 0 0 1 .83-.78c1-.44 1.95-.95 2.91-1.45.21-.11.36-.26.62-.06.51.38 1-.18 1.46-.16a.21.21 0 0 0 .18-.13c.19-1 .95-.82 1.63-.73.13 0 .17.15.33 0a1.73 1.73 0 0 1 2.13-.37c.42.14.71.11.93-.22a1.15 1.15 0 0 1 1.3-.38c.4.06 1-.38 1.21.35a.14.14 0 0 0 .09.08c.22.07.35-.17.53-.19s.51-.12.7.05.33 0 .5-.05a1.73 1.73 0 0 0 .56-.15c.52-.33.8-.33 1.15.06.13.15.19.32.42.31a22.34 22.34 0 0 1 4.07.52 12.72 12.72 0 0 1 3 .82 31.88 31.88 0 0 1 4.55 2 19.14 19.14 0 0 1 2 1.17 1.56 1.56 0 0 0 .87.29 2 2 0 0 1 1.28.83 18.17 18.17 0 0 0 2.92 3.15 1.58 1.58 0 0 0 .73.33 2.73 2.73 0 0 1 1.49 1.42c.17.28-.27.46-.08.61.74.59.9 1.63 1.78 2.14a1.43 1.43 0 0 1 .85 1.57c-.1.54.41.91.53 1.4.5-.19.56.22.76.52s.09.78.14 1.16a2 2 0 0 0 .11.58 20.71 20.71 0 0 1 1.36 4.75 1.49 1.49 0 0 0 .52 1.07c.61.48.55 1.35 0 2.14a.94.94 0 0 0-.08.91 4.29 4.29 0 0 1 .2 1.87 33 33 0 0 1-.42 4.21c-.12 1.37-.58 2.65-.77 4-.08.63-.51 1.12-.63 1.74 0 .19-.18.43-.09.56.48.6.06 1-.23 1.47s-.84.93-.78 1.66c0 .16-.27.45-.46.51-.52.16-.69.61-1 1-.92 1.31-1.83 2.63-2.76 3.93a4.11 4.11 0 0 0-.41.81c-.29.67-.61 1.41-1.56 1.4-.26 0-.27.16-.35.37-.21.56-.53 1.07-1.24 1.06a1.28 1.28 0 0 0-.85.36 14.74 14.74 0 0 1-3.28 2.26c-.58.32-.73 1-1.31 1.33a2.14 2.14 0 0 1-1.37.34zm-18.71-38.79c-.34-.29-.35-.07-.35.22s.14.27.21.41a1.57 1.57 0 0 1 .05 1.76v.24a.4.4 0 0 0 .07.21h.17a.94.94 0 0 1 .94-.35c.24 0 .46.42.61.18s-.24-.4-.41-.57-.35-.17-.49-.29c-.7-.58-.6-1.51.25-1.68.48-.09.54-.37.72-.63.08-.11 0-.31.07-.45s.41-.42.11-.59-.49.14-.59.4c-.19.46-.63.7-.93 1.06a.33.33 0 0 1-.43.08zm14.18-4.05a.55.55 0 0 0 .63-.43 3.92 3.92 0 0 1 1.17-2.33.23.23 0 0 0 0-.22c0-.11-.16-.13-.28-.15a.51.51 0 0 0-.58.32 2.53 2.53 0 0 1-1.31 1.54c-.35.16-.24.58-.18.86a.53.53 0 0 0 .55.41zm-16.9 16.44a.55.55 0 0 0-.46-.52.75.75 0 0 0-.87.18.84.84 0 0 0 0 1 .81.81 0 0 0 .33.33c.29.13.15.73.58.61s.11-.56.35-.8.03-.4.07-.8zm17.77-7c0-.06-.06-.19-.1-.19a9.3 9.3 0 0 0-1.18 0c-.16 0-.21.3-.13.41.35.5.73 1 1.11 1.47h.22c.07 0 0-.06 0-.08a1.47 1.47 0 0 1 .08-1.66zm9.31-7.9c.15-.42-.11-.57-.18-.79 0-.07-.07-.2-.09-.2s-.16.12-.15.24c0 .87 0 1.67-1 2-.06 0-.1.12-.15.19s.11.1.17.11a3.77 3.77 0 0 1 .48 0c.73.14.73.15.75-.5.04-.38-.05-.82.17-1.05zm-6.29-4.43h-.48c-.15 0-.33 0-.36.18a.41.41 0 0 0 .11.31c.25.35.69.54.82 1 .07.21.22.25.36.17a.24.24 0 0 0 0-.4.35.35 0 0 1 0-.51c.09-.12.11-.3.2-.41.21-.26.08-.32-.17-.32zM41.43 163c0-.87 0-.87-.82-.54a.59.59 0 0 1-.22.05c-.3 0-.49 0-.18.36a1.69 1.69 0 0 1 .56.75.41.41 0 0 0 .44.32c.3 0 .2-.29.22-.46s0-.34 0-.48zm2.4 4.55c0-.38 0-.65-.25-.83l-1.27-.77a.22.22 0 0 0-.31 0c-.17.2-.09.45-.07.68s.19.21.36.2a1.14 1.14 0 0 1 1.18.7c0 .1.18.16.27.23zm9.17 3.82l-.19.35a.3.3 0 0 0 .06.42l.42.42c.18.17.44.49.51.46.29-.15.09-.49.14-.74l.09-.34c0-.09.21-.24 0-.25a5 5 0 0 1-1.03-.32zM39.25 138c0-.07 0-.16-.07-.21a1.59 1.59 0 0 0-1.11-.53c-.14 0-.21.09-.24.21a1.06 1.06 0 0 0 .37.93c.24.23 1.02-.1 1.05-.4zm-4.41 33.92s.17 0 .23-.06-.1-.24-.15-.38c-.13-.44-.63-.37-.91-.61s-.37-.23-.49 0a.44.44 0 0 0 .07.55 1.67 1.67 0 0 0 1.25.46zM46 159.18a1.46 1.46 0 0 0 0 .47.61.61 0 0 0 .62.44.57.57 0 0 0 .54-.39c.1-.27-.15-.46-.35-.54a1.44 1.44 0 0 1-.49-.3c-.07-.07-.16-.21-.26-.12s0 .21-.07.32a.48.48 0 0 0 .01.12zm-22.27 14a1.26 1.26 0 0 0-.13.17 8 8 0 0 1-.35.72.37.37 0 0 0 0 .52.62.62 0 0 0 .64.22.33.33 0 0 0 .2-.56c-.28-.26-.24-.56-.26-.87.01-.11-.05-.17-.09-.24zm-12.17-7.27a1.87 1.87 0 0 0-.34 0 .23.23 0 0 0-.12.18 8.2 8.2 0 0 1 .53 1.38c.39-.19 0-.62.28-.87a2.74 2.74 0 0 0 .27-.51c.13-.19 0-.19-.13-.2a2.36 2.36 0 0 0-.48-.02zm17.26-23.7c-.21-.5-.39-1-.61-1.42-.09-.2-.23-.09-.36 0a.5.5 0 0 0-.1.65 6.59 6.59 0 0 0 .85.82s.14 0 .21-.05.03-.06.02-.04zm25.72 22.72c.07-.07.18-.16.27-.26a.51.51 0 0 0 .06-.55.31.31 0 0 0-.41-.13 6.21 6.21 0 0 0-.81.42c-.06 0-.1.12-.15.18a.58.58 0 0 0 .18.11c.32 0 .56-.12.87.19zm3-1.06a.49.49 0 0 0-.15-.41c-.25-.3-.58-.18-.89-.18-.05 0-.13.11-.13.17 0 .33.22.47.51.55.11 0 .19.15.3.18s.38-.08.38-.35zM19.14 175c.05 0 .36.11.34-.17a4.43 4.43 0 0 0-.3-1 4.13 4.13 0 0 0-.8.82c-.06.13.32.43.76.35zm10.66-14.83a.86.86 0 0 1-.07-.1c-.21-.34-.69-.11-.92-.41a1.28 1.28 0 0 0-.32.29.45.45 0 0 0 0 .54 2.47 2.47 0 0 0 1.29-.23s.02-.06.02-.09zm11.85 17.51c-.14 0-.47-.1-.46.35a.57.57 0 0 0 .45.59c.24.06.52-.32.51-.65s-.15-.31-.5-.29zM46 169a7.38 7.38 0 0 0-.81.07c-.13 0-.14.23-.08.29a1.54 1.54 0 0 0 1.51-.08s.07-.07.06-.1 0-.15-.09-.15zm6.28-22.85c0-.07 0-.17-.06-.21a1.09 1.09 0 0 1-.41-1c0-.06 0-.29-.19-.14s-.21.15-.24.25a2.17 2.17 0 0 0 .55 1.3.31.31 0 0 0 .23 0s.05-.13.09-.19zm-35.47 4.27c.1-.18-.06-.18-.15-.21s-.33 0-.44-.1c-.26-.21-.34 0-.44.16a.44.44 0 0 0 0 .54.39.39 0 0 0 .53.08 3.31 3.31 0 0 0 .47-.46zm4.66 3.11l-.19-.26c-.13-.18-.24-.12-.36 0a.61.61 0 0 1-.59.3c-.11 0-.27 0-.23.14s.23.32.32.31a5 5 0 0 0 1-.29s-.02-.1.02-.19zm14.62-10.07a.62.62 0 0 0-.65.65c0 .16.06.35.25.29a1 1 0 0 0 .69-.69c.02-.2-.18-.22-.32-.24zm6.32-4.85a.56.56 0 0 0-.48-.43c-.22 0-.31.2-.44.35.3.18.09.59.35.78.04.06.54-.55.54-.69zm0 19c0-.38 0-.74-.37-.92a.58.58 0 0 0-.45 0c-.23.14.09.22.09.35 0 .32.29.45.46.65s.12.07.19.11zm1.13 2.9a.87.87 0 0 0-.31.07.67.67 0 0 0-.27.33c0 .05.14.18.23.24a.52.52 0 0 0 .64 0c.15-.12.33-.26.24-.48s-.27-.1-.55-.1zm-9.79-17.34c.14 0 .37.08.45-.18s-.27-.53-.61-.54-.33.13-.33.36.18.44.47.42zm-2.16 27.7c-.28 0-.5 0-.5.34s.07.38.32.38.68-.28.63-.53-.33-.06-.47-.13zm-.73-24.84c-.14-.23-.28-.5-.45-.76-.05-.08-.15-.19-.27-.06s-.38.29-.39.44c0 .32.29.09.42.18a5.19 5.19 0 0 1 .46.36c.08.08.14.09.18 0a1 1 0 0 0 .03-.1zm5.06 32.56c-.06-.1-.08-.19-.14-.22s-.19 0-.21 0c-.17.21-.3.45-.46.65s-.25.34 0 .49a.3.3 0 0 0 .4-.14c.11-.21.25-.48.39-.72zm-1.21 5.84c0 .64.58.62.93.87 0 0 .2-.05.2-.06-.08-.32-.38-.45-.57-.68s-.22-.22-.33-.33-.14-.09-.18 0a.5.5 0 0 0-.07.26zm13.25-30.55v.37a.23.23 0 0 0 .22.23c.15 0 .21-.08.24-.19a.69.69 0 0 0 0-.35c0-.23.19-.64-.28-.62s-.14.44-.2.62zm1.44 1.93v.34a.21.21 0 0 0 .19.24.22.22 0 0 0 .27-.14c.07-.13.13-.27.2-.4s.05-.33-.1-.37-.4-.09-.52.11a.44.44 0 0 0-.06.28zm-33.5 5.49l.21-.1-.06-.1a1.41 1.41 0 0 0-1.22-.5s-.09 0-.09.07c-.03.19.78.62 1.16.63zm5 3.38c-.11 0-.16.08-.18.19-.07.31.17.76.37.69a.59.59 0 0 0 .31-.33c.09-.23-.19-.53-.48-.55zm33.75-8.6c0-.29-.17-.34-.39-.32s-.36 0-.3.25.14.59.37.61.39-.27.34-.54zm-14 25.4v.12c0 .21 0 .4.3.4h.24c.3-.19-.08-.3-.06-.46a1.08 1.08 0 0 0 0-.36.26.26 0 0 0-.18-.11c-.14 0-.22.05-.26.17a1 1 0 0 0 .02.24zm16.7-21.39c-.21 0-.31.08-.33.33s0 .37.3.39.45-.06.43-.39-.06-.34-.34-.33zm-9.49-15.4c0-.23-.16-.24-.32-.25s-.38 0-.39.29 0 .43.26.4a.53.53 0 0 0 .51-.44zM7.49 156.55a2.55 2.55 0 0 0 0 .49.23.23 0 0 0 .28.14c.07 0 .17-.09.17-.14a4 4 0 0 0 0-.69s-.12-.09-.18-.09a.23.23 0 0 0-.19.09.43.43 0 0 0-.08.2zm27.91 6.94a.43.43 0 0 0-.06-.18h-.17c-.04 0-.22.21-.33.32s-.23.33 0 .47.27 0 .39-.12a.54.54 0 0 0 .17-.49zm-4.61-9.65h-.44a.21.21 0 0 0-.22.21c0 .21.13.26.29.25a.61.61 0 0 0 .33-.06 1.76 1.76 0 0 0 .27-.33zM13 156l-.09-.19a.55.55 0 0 0-.19.14 3.53 3.53 0 0 0-.28.5c0 .08-.21.19 0 .26a.43.43 0 0 0 .32-.08.58.58 0 0 0 .24-.63zm17.09-4.79L30 151c-.15.21-.54.11-.59.43s.11.24.27.26.47-.09.42-.5zm-13.72-4.82v-.12c0-.04-.09-.12-.18 0s-.34.33-.48.51a.21.21 0 0 0 .07.31c.11 0 .25.07.32-.06s.18-.46.28-.66zm36.13 14.87c0-.12-.1-.23-.24-.19a.56.56 0 0 0-.46.45.18.18 0 0 0 .18.23.5.5 0 0 0 .52-.49zm-8.21 3.41h.12c.15 0 .31 0 .37-.18a.27.27 0 0 0 0-.21c-.12-.15-.26-.1-.39 0l-.09.07-.38.2a.47.47 0 0 0 .37.12zm.21-16.76c0-.22-.56-.42-.77-.31s-.1.07 0 .16a.62.62 0 0 0 .69.28s.04-.04.08-.13zm-11.29 11.32c-.08 0-.23-.12-.29-.08s-.44.26-.38.54.18.08.25 0 .53-.04.42-.46zm-17.09-4c.22 0 .25-.14.26-.3s0-.33-.16-.38-.31 0-.31.23-.05.43.21.48zm18.33-9.61c0-.2-.19-.32-.35-.44a.29.29 0 0 0-.22 0c-.17.07-.08.18 0 .26l.44.41zm-1.35 15.72c-.13.12-.1.28-.09.43s.15.25.31.22a.21.21 0 0 0 .15-.26.6.6 0 0 0-.37-.39zm-5.61 13.45h-.12c-.1 0-.13.1-.06.17l.51.49s.11-.11.11-.17a.6.6 0 0 0-.44-.49zm-14.76-6.15c-.11-.15-.21-.32-.42-.35a.18.18 0 0 0-.23.18c0 .19.07.28.25.28s.3.04.4-.11zm13.22.92c-.12-.13-.21-.32-.44-.3a.18.18 0 0 0-.19.22c0 .3.24.22.41.24s.21 0 .27-.16zm7.43-18.33a1.29 1.29 0 0 0-.38.77c0 .12.08.11.17 0a.59.59 0 0 0 .28-.61 1 1 0 0 0-.07-.16zm-1.89 9.26c0-.16-.12-.17-.22-.16s-.41-.05-.42.25a.19.19 0 0 0 .2.21c.24.02.32-.17.44-.3zm-1.58 17.37c-.16-.09-.17-.35-.45-.35 0 0-.06.13-.05.19s.2.3.35.42zm6.23-40.68c0-.17 0-.38-.15-.37s-.2.19-.3.29l.32.31zm14 20.28c-.13 0-.25 0-.27.15s0 .31.23.29a.19.19 0 0 0 .21-.2.2.2 0 0 0-.16-.24zm-21.73 15.63l-.08-.2-.32.3s.07.12.11.13.3-.02.29-.23zm-10.31-28.5l.35.29a.46.46 0 0 0 .08-.19c0-.2-.11-.25-.28-.24s-.08.08-.15.14zM34.16 167s-.1-.12-.16-.12-.33-.09-.42.07.08.15.16.16.31-.01.42-.11zm-24.33-1.37c.12 0 .23 0 .21-.15s-.19-.09-.29-.09a1.21 1.21 0 0 0-.3.11c.09.16.24.12.38.13zM9.39 163c0-.07 0-.19-.06-.19s-.24.12-.33.22 0 .14.06.16.3.02.33-.19zm0-3c0-.08-.07-.18-.11-.18s-.31 0-.3.22a.6.6 0 0 0 .07.2zm.52-.44c.21 0 .25-.14.24-.3s-.12-.11-.12-.11l-.31.31zm39.2-1l.27-.35a.84.84 0 0 0-.2-.08c-.21 0-.23.14-.23.29s.05.13.12.19z" fill="#adce54"/><path d="M150.7 20.36c1.41 0 3.05.06 4.65.07h17.93a6.69 6.69 0 0 0 1.14-.17l.55-.1a3 3 0 0 0 1.28.26h.7a3.31 3.31 0 0 1 .53-.06 1 1 0 0 1 .32.05 2.29 2.29 0 0 0 .76.11h.75a5 5 0 0 1 .56-.06.8.8 0 0 0 .6-.2.84.84 0 0 0 .16-.64c0-.28-.07-.57-.11-.84a5 5 0 0 1-.11-.93 3.5 3.5 0 0 0-1.26-2.36 6.93 6.93 0 0 0-2.89-1.66 2.87 2.87 0 0 1-1.86-2.06c-.08-.25-.15-.51-.22-.76a10.62 10.62 0 0 0-.36-1.18 8.55 8.55 0 0 0-2.11-2.9 8.9 8.9 0 0 0-1.84-1.31l-.23-.14a2.33 2.33 0 0 0-.83-.23h-.56A1 1 0 0 1 168 5a13.1 13.1 0 0 0-2.69-.29 12.14 12.14 0 0 0-2.55.27 6.21 6.21 0 0 0-.61.2 4.26 4.26 0 0 1-.64.2 4.23 4.23 0 0 0-1.64.78 4.53 4.53 0 0 1-.46.3 7.74 7.74 0 0 0-1.2 1l-.39.38a1.19 1.19 0 0 0-.24.36v.07c-.18.35-.4.7-.61 1s-.38.59-.55.89l-.11.21a8.55 8.55 0 0 0-1.29 3.35 4.07 4.07 0 0 1-.58 1.68 1.28 1.28 0 0 1-.82.62c-.55.17-1.14.39-1.83.68a1.87 1.87 0 0 0-.48.37l-.1.09c-.06.07-.12.13-.17.2a1.66 1.66 0 0 1-.18.19 2.39 2.39 0 0 0-.9 1.95c-.08.66.1.84.74.86zm3.43-2.95a1.35 1.35 0 0 0 .9-.49 8.82 8.82 0 0 0 1-1.54.72.72 0 0 0 0-.5v-.13a1.28 1.28 0 0 0 .61-1.08 6.69 6.69 0 0 1 .64-1.94c.34-.68.76-1.35 1.16-2l.38-.61a.63.63 0 0 1 .28-.26 1.54 1.54 0 0 0 .73-.74 2.33 2.33 0 0 1 1-.8 15.76 15.76 0 0 1 2.59-1.08 2.81 2.81 0 0 1 .7-.08H165.48a1.08 1.08 0 0 0 .19 0h.07a3.31 3.31 0 0 1 .55 0 8.3 8.3 0 0 1 1.72.25c.28.07.57.13.86.18a1.51 1.51 0 0 1 .57.28l1.39 1 .53.38a2.17 2.17 0 0 0 .62 1.16 3.63 3.63 0 0 1 .85 2v.26a2.74 2.74 0 0 0 .39 1.37l.23.29a4.15 4.15 0 0 0 1.88 1.62 12.84 12.84 0 0 1 1.48.62l.31.15a3.46 3.46 0 0 1 2 2.88 1.77 1.77 0 0 0 .06.28h-27.44a3.09 3.09 0 0 1 2.39-1.47zM110.44 78.68a7.38 7.38 0 0 0 .86 2.23 6.06 6.06 0 0 0 .63.79l.13.14a6.78 6.78 0 0 0 3.62 2.1 7.06 7.06 0 0 0 4.67-.53 7.77 7.77 0 0 0 3.26-3.27 5 5 0 0 0 .57-1.82c0-.16 0-.31.08-.47a4.83 4.83 0 0 0-.44-3.06 7.37 7.37 0 0 0-1.06-1.69 7.14 7.14 0 0 0-1.84-1.68 6.6 6.6 0 0 0-3.07-.94h-.3a8.8 8.8 0 0 0-3.52.84 7 7 0 0 0-2.27 1.86 6.55 6.55 0 0 0-1.21 2.32 5.9 5.9 0 0 0-.09 3.16zm11 2a4.48 4.48 0 0 1-3 1.79 1.66 1.66 0 0 1-.32 0v-1.28l-.1-3a12.63 12.63 0 0 1 2.37-.19h2.37a4.24 4.24 0 0 1-1.29 2.69zM118 72.43v-.37a1.24 1.24 0 0 1 .33 0 4.74 4.74 0 0 1 3.24 1.94 4 4 0 0 1 1.12 2.65h-4.16c-.27 0-.42 0-.49-.1a1 1 0 0 1-.1-.57v-1.13-1.28a10 10 0 0 1 .06-1.14zm-5.25 1.81a5.68 5.68 0 0 1 3.84-2.24v4.45a13.43 13.43 0 0 1-2.52.19 9.55 9.55 0 0 1-2.12-.17 3.13 3.13 0 0 1 .81-2.23zM113 78l3.3.12c.22 0 .33.08.32.45v4.04h-.07a5.15 5.15 0 0 1-3.55-1.97 3.91 3.91 0 0 1-1.12-2.7z" fill="#575757"/><path d="M209.17 193.33l-.23-.09a2.25 2.25 0 0 0-.82-.23H208a4.17 4.17 0 0 1-.65 0 2.32 2.32 0 0 1-.46 0h-1.27a1.68 1.68 0 0 1-.62-.01.35.35 0 0 0-.12 0h-.45c-.45 0-.92.08-1.37.1a1.92 1.92 0 0 1-.41 0h-.31l-.38-.06a4.53 4.53 0 0 0-.62-.07 1.36 1.36 0 0 0-.36.05 3 3 0 0 1-.82.1 7 7 0 0 1-.91-.07l-.59-.05v-.71-1.79a13.46 13.46 0 0 1 0-1.42 9.33 9.33 0 0 0-.11-2.41 5.68 5.68 0 0 0 .11-2.13c0-.3-.05-.61-.05-.91v-3.23a70.17 70.17 0 0 0-.11-7.24v-.21l.07-1.56.07-1.56V169.26c0-.28 0-.55.05-.83v-.15-.49-1.32c0-.72-.05-1.47-.06-2.21 0-2.61-.05-5-.05-7.23a1.55 1.55 0 0 0-.85-1.46c-.58-.35-1.16-.74-1.71-1.12l-.69-.47-1-.67-1.75-1.17-1.64-1.14-2.18-1.44-.9-.62c-.35-.26-.72-.52-1.1-.76l-1.76-1.11c-.74-.47-1.52-1-2.27-1.45l-2.62-1.77c-.86-.59-1.76-1.21-2.65-1.79s-1.72-1.12-2.56-1.66c-1.54-1-3.13-2-4.65-3.09-.94-.67-1.93-1.29-2.88-1.89-.57-.36-1.16-.73-1.73-1.11l-2.86-1.9c-.72-.49-1.45-1-2.18-1.45-1.48-1-2.82-1.87-4.19-2.75a1 1 0 0 1-.52-1v-.07A8.47 8.47 0 0 0 156 126v-1.68-1.68-2.17-1.61-1.85-3.75a1.53 1.53 0 0 0-.7-1.36c-.76-.56-1.43-1-2.07-1.45l-2.74-1.78-1.41-.91c-1-.61-1.9-1.22-2.84-1.84l-.18-.11c-.24-.16-.49-.32-.73-.5a.55.55 0 0 1-.33-.31 7.1 7.1 0 0 1-.09-1.14c0-.49 0-1 .06-1.48s.05-1.19.05-1.79v-2.16-.92-1.06-2.44c0-.43 0-.87.09-1.29s.06-.59.08-.9a8.05 8.05 0 0 0 0-1.11 3.54 3.54 0 0 0-.07-.47 3.17 3.17 0 0 1-.06-.74 14.52 14.52 0 0 0-.23-4.64.5.5 0 0 1 0-.18 1.87 1.87 0 0 0 .34-1.39v-1.17c0-.8.07-1.62 0-2.42 0-.32 0-.63-.07-.94a12.47 12.47 0 0 1-.06-1.62v-3.11-1.73-1.24-.92-1.39-1.3-1.92a3.69 3.69 0 0 0-.41-1.47 15.37 15.37 0 0 0-.83-1.49l-.26-.43c-.11-.19-.23-.37-.35-.56a7.66 7.66 0 0 1-.6-1 8.73 8.73 0 0 0-.51-.9 5.7 5.7 0 0 1-.6-1.15 9.87 9.87 0 0 0-.9-1.74c-.15-.23-.29-.47-.42-.7l-1-1.74-1.61-2.85-1.55-2.61-.35-.64-.65-1.34-1.26-2.32-1.36-2.41-.46-.79-1.27-2.25c-.12-.19-.23-.38-.34-.58l-.64-1.11c-.21-.4-.42-.8-.62-1.2s-.47-.91-.72-1.37-.45-.78-.67-1.16-.37-.62-.54-.93c-.34-.6-.66-1.19-1-1.79l-.64-1.17-.5-.9q-.37-.64-.72-1.29c-.22-.4-.5-.92-.74-1.46a11.15 11.15 0 0 0-.82-1.38 7 7 0 0 1-1.07-2.09.38.38 0 0 0-.09-.18v-.06l-.37-.66c-.31-.55-.63-1.1-.93-1.66a2.48 2.48 0 0 0-1.36-1.41v-3.75-5.51h.56l1.41.1h.18a.9.9 0 0 0 .69-.24 1 1 0 0 0 .18-.75v-.24a1.55 1.55 0 0 1 0-.29c0-1 0-1.09-1.06-1.19h-1.88v-.25-.82-.75-1.57c0-.57 0-1-.19-1.25a1.07 1.07 0 0 0-.82-.23h-.49c-1.46.1-1.51.16-1.43 1.56a20.64 20.64 0 0 1 0 3.23h-2.06c-.47 0-.91.12-.9.8 0 1.08 0 1.57.74 1.76h2.27v.14a.77.77 0 0 1 0 .29 2.67 2.67 0 0 0 0 1.81 1 1 0 0 1 0 .17V17.51c0 .63 0 1.17-.56 1.55a1.43 1.43 0 0 0-.36.45c-.25.43-.49.86-.73 1.29l-.35.62c-.49.86-1 1.75-1.43 2.61-.61 1.15-1.26 2.34-1.93 3.49-1 1.73-2 3.51-2.93 5.23l-1.24 2.24-.68 1.21c-.54 1-1.1 2-1.64 3-.94 1.74-2.19 4-3.42 6.37a2.46 2.46 0 0 0-.2.71c0 .11 0 .23-.07.35a2.94 2.94 0 0 0-1.12 1.3c-.46.91-1 1.93-1.52 2.92s-1 1.83-1.57 2.71-.9 1.53-1.34 2.3c-.35.62-.67 1.27-1 1.89a22.63 22.63 0 0 1-2 3.44 4.1 4.1 0 0 1-.72 1.41 7.2 7.2 0 0 0-.48.74 5.62 5.62 0 0 0-.79 1.98 10 10 0 0 0 0 1.64v5.75c0 .9-.08 1.83 0 2.75v.42a24.2 24.2 0 0 1 0 3.71 2.07 2.07 0 0 0 0 .5v.23a2.11 2.11 0 0 0 0 .25v2.08c0 .67 0 1.37-.06 2v4.23a1.64 1.64 0 0 1 0 .23v.82a9.24 9.24 0 0 1 0 1.82 13.49 13.49 0 0 0 0 2.29c0 .51.05 1 0 1.57v3.43a2.78 2.78 0 0 0 .25 1.84.37.37 0 0 1 0 .2.77.77 0 0 0 0 .15c0 .19 0 .38-.07.58 0 .42-.11.86-.13 1.29a6.46 6.46 0 0 0 .06 1.08v.2a.86.86 0 0 1-.52.94 14.66 14.66 0 0 0-1.24.81l-.41.28-2.48 1.69-1.4 1a.11.11 0 0 0-.07 0l-.64.41-1.13.73a4 4 0 0 0-.34.23 6 6 0 0 1-.84.5 5.13 5.13 0 0 0-1.59 1.22 1.3 1.3 0 0 0-.37 1v3.65a39.43 39.43 0 0 0 .12 4.6 1.47 1.47 0 0 1 0 .21V123.06L79 126v.13c.16 1.47 0 1.76-1.23 2.55l-.55.35c-.88.56-1.8 1.15-2.69 1.74l-1.35.93c-.45.31-.91.63-1.37.93-.88.59-1.74 1.15-2.65 1.67a2.71 2.71 0 0 0-1.16 1.12h-.16a1.69 1.69 0 0 0-1.16.58 2 2 0 0 1-.42.32l-1 .65c-.86.57-1.75 1.15-2.64 1.69a15.94 15.94 0 0 0-1.34.93 10.69 10.69 0 0 1-2.06 1.3 1.23 1.23 0 0 0-.29.22l-.16.13-2.59 1.76-.71.46-.78-1c-.65-.85-1.27-1.66-1.95-2.44-.9-1-2-2-2.78-2.79-.49-.46-1-.87-1.56-1.28l-.34-.26c-.39-.3-.81-.59-1.23-.86l-.25-.17a2 2 0 0 0-1.06-.47 1.71 1.71 0 0 0-.93-.76l-.37-.19a15 15 0 0 0-2-1c-.4-.17-.82-.31-1.23-.44s-.82-.26-1.21-.42a19.73 19.73 0 0 0-4.12-1.1 32.63 32.63 0 0 0-5.41-.52h-.35c-.53 0-1.06 0-1.58.07h-.22c-.69.05-1.32.09-2 .18l-.68.1a25.79 25.79 0 0 0-2.74.49 26.34 26.34 0 0 0-3.58 1.24c-.3.13-.61.24-.91.36a8.58 8.58 0 0 0-2 1 15.18 15.18 0 0 1-2.13 1.26 12.67 12.67 0 0 0-2.57 1.54h-.05c-.86.68-1.66 1.44-2.43 2.18l-.78.73a8.81 8.81 0 0 0-.8.89l-.3.39c-.63.81-1.27 1.65-1.87 2.51l-.34.47a4.66 4.66 0 0 0-1.06 2l-.06.07-.1.1-.19.24a2.53 2.53 0 0 0-.4.62c-.19.47-.4.93-.61 1.37a11.79 11.79 0 0 0-1 2.5 10.09 10.09 0 0 1-.39 1.34 17 17 0 0 0-1 6.12v1.71a21 21 0 0 0 0 2.38 32.44 32.44 0 0 0 .55 3.74c.05.26.09.53.14.8a9.93 9.93 0 0 0 .66 2.57 14.68 14.68 0 0 1 .54 1.83 26.66 26.66 0 0 0 3.62 6.9 20.93 20.93 0 0 0 2.06 2.44l.61.66c.24.27.52.51.78.75a8.79 8.79 0 0 1 .7.66 14.73 14.73 0 0 0 3.09 2.44 1.81 1.81 0 0 0 1 .3 1.54 1.54 0 0 0 .43-.06 1.28 1.28 0 0 0 .86 1.2c.34.16.69.34 1 .51l.72.37.29.15a13.49 13.49 0 0 0 1.28.58c1.07.41 2.18.83 3.29 1.17a22.48 22.48 0 0 0 3.21.79 20.8 20.8 0 0 0 2.22.2c.4 0 .82 0 1.23.08a4.41 4.41 0 0 1 .59.12l.23.06v3.44h-1.17c-.48 0-1-.07-1.48-.07a7.83 7.83 0 0 0-1.44.12h-.11a1.63 1.63 0 0 1-.36 0h-.26l-.41-.07a3.72 3.72 0 0 0-.66-.08 1.29 1.29 0 0 0-.29 0 5.83 5.83 0 0 1-1.25.12H17.05c-.34 0-.68 0-1 .05s-.69.06-1 .06H13.02a3 3 0 0 1-.62-.05 4.92 4.92 0 0 0-.82-.07H5.52a.83.83 0 0 0-.58.26.68.68 0 0 0-.17.48.55.55 0 0 0 .59.52.91.91 0 0 0 .31 0 1.4 1.4 0 0 1 .33-.09.46.46 0 0 1 .38.15.71.71 0 0 0 .56.32.94.94 0 0 0 .48-.15.79.79 0 0 1 .32-.06c.34 0 .68 0 1-.09a11.89 11.89 0 0 1 1.2-.09 3.61 3.61 0 0 1 .84.09H11.12c.4 0 .79 0 1.17-.08s.85-.07 1.27-.07a4.59 4.59 0 0 1 1.34.17h.1a2.24 2.24 0 0 1 .8-.13 8.15 8.15 0 0 1 .84.07c.22 0 .45.06.68.07s.63 0 1.06 0h3.84c.8 0 1.59 0 2.36-.05h.22a1.28 1.28 0 0 0 .58-.11 1.31 1.31 0 0 1 .52-.11 1.91 1.91 0 0 1 .54.08h.12a3.88 3.88 0 0 0 1 .17h.13c.73-.06 1.48-.08 2.28-.08h.85a3.11 3.11 0 0 1 .43 0h.53a1.84 1.84 0 0 0 .56-.08 2.51 2.51 0 0 1 .81-.12c.24 0 .5 0 .74.05s.51 0 .77 0h.26a4.75 4.75 0 0 1 .51 0h.56a2.05 2.05 0 0 0 .37 0h.26a2.06 2.06 0 0 1 .47-.07h.16a6.9 6.9 0 0 0 1.31.16 3.52 3.52 0 0 0 1.1-.17l.12.06a1.36 1.36 0 0 0 .69.17 3.1 3.1 0 0 0 .69-.09 3.68 3.68 0 0 1 .63-.09H42.58a1.55 1.55 0 0 1 .29 0 2.58 2.58 0 0 0 .4 0h1.17a2.24 2.24 0 0 1 .55 0 2.38 2.38 0 0 0 .55.06 6 6 0 0 0 .61 0h.59a1.88 1.88 0 0 1 .55.07h.13a.81.81 0 0 0 .36-.1.86.86 0 0 1 .44-.15.7.7 0 0 1 .37.12.41.41 0 0 0 .23.05h1.29a5.41 5.41 0 0 0 1 .09H56.32c.26 0 .52 0 .77-.06a7 7 0 0 1 .79-.06 2.62 2.62 0 0 1 .64.07.9.9 0 0 0 .25 0h2.42a11.85 11.85 0 0 1 1.44.08 7.4 7.4 0 0 0 .83.05 14.42 14.42 0 0 0 2-.19h.15a1.48 1.48 0 0 1 .35-.05h.14a7 7 0 0 0 1.67.18c.46 0 .93 0 1.38-.06H69.56c.43 0 .87-.05 1.29-.05h.43a3.35 3.35 0 0 1 .54.08 3.1 3.1 0 0 0 .68.1 1.26 1.26 0 0 0 .73-.22H73.46c.24 0 .49.05.72.09a9.89 9.89 0 0 0 1.21.11 3 3 0 0 0 .53 0 5 5 0 0 1 .83-.06h1.66a11.67 11.67 0 0 0 1.18-.07h.29a1.51 1.51 0 0 1 .35-.06.58.58 0 0 1 .32.1.61.61 0 0 0 .36.13 1 1 0 0 0 .44-.14.84.84 0 0 1 .32-.1h.08a1.16 1.16 0 0 0 .68.18h1.21a2 2 0 0 1 .45 0 1.34 1.34 0 0 0 .35.05 2.25 2.25 0 0 0 .62-.11h.15a4.54 4.54 0 0 1 1.18-.22H88.11a3 3 0 0 1 1 .13h.15a1.36 1.36 0 0 0 .39-.08h.14a1.34 1.34 0 0 0 .24-.09.83.83 0 0 1 .26-.08 3.08 3.08 0 0 0 .64.05h1.88c.5 0 1 .07 1.53.07h.23a1.44 1.44 0 0 1 .59.18 2.87 2.87 0 0 1 .46.25l.18.11h.12l.23-.08.47-.19a3.33 3.33 0 0 1 1.27-.19h.78a3.59 3.59 0 0 0 1.45-.24h.06a8.92 8.92 0 0 0 2.18.24c.51 0 1 0 1.47-.06.67 0 1.38-.06 2.18-.06h2.38a4.66 4.66 0 0 0 .89-.07h.08a2.6 2.6 0 0 1 .39-.05.77.77 0 0 1 .36.09.78.78 0 0 0 .32.06H111.61a3.86 3.86 0 0 0 .84.08 10.16 10.16 0 0 0 1.67-.19h.17a1 1 0 0 1 .23 0 1.71 1.71 0 0 0 .77.16h16.82a4.46 4.46 0 0 0 .63-.05c.22 0 .44-.05.67-.05H135.25a4 4 0 0 1 1 .11h.13a1.28 1.28 0 0 0 .32-.06h.32a.85.85 0 0 1 .26-.05H141l.65.05a5.83 5.83 0 0 0 .72.06h1.1a5.63 5.63 0 0 0 .58 0 3.3 3.3 0 0 0 .58 0 1.69 1.69 0 0 1 .33 0 4.07 4.07 0 0 1 .5 0 4.55 4.55 0 0 0 .52 0 1.49 1.49 0 0 0 .8-.2 1.06 1.06 0 0 0 .77.3 3.27 3.27 0 0 0 .45 0 2.46 2.46 0 0 1 .37 0c.58 0 1.17-.06 1.74-.11l1-.07h.05a.61.61 0 0 0 .16.09 1.65 1.65 0 0 0 .5.1 5.26 5.26 0 0 0 .89-.08 2.77 2.77 0 0 1 .6-.06c.26 0 .53 0 .79.05h.93c.49 0 1 0 1.47-.07s1-.07 1.46-.07a7 7 0 0 1 1.45.14h.1a.85.85 0 0 0 .22 0h.12l.46-.06a6 6 0 0 1 1-.11 2.22 2.22 0 0 1 .43.06 2.73 2.73 0 0 0 .5.06 1 1 0 0 0 .59-.17 1.51 1.51 0 0 1 .26.12h.05a1.52 1.52 0 0 0 .68.17 1.66 1.66 0 0 0 .64-.13.92.92 0 0 1 .32-.09H170c.4 0 .81 0 1.2-.07s.87-.07 1.3-.07a5.7 5.7 0 0 1 .74 0 10.22 10.22 0 0 0 1.28.07h1.12a10.58 10.58 0 0 1 1.31.07 7.9 7.9 0 0 0 1.13.08c.59 0 1.2-.05 1.78-.1l1.26-.08h1.67a3.18 3.18 0 0 0 .57-.05h.22a1.15 1.15 0 0 1 .6.21 1.15 1.15 0 0 0 .54.21h.11a5.05 5.05 0 0 1 1.54-.24 4.2 4.2 0 0 1 .7.05h.09a.75.75 0 0 0 .45-.14.37.37 0 0 1 .21-.08.76.76 0 0 1 .25.06 1.62 1.62 0 0 0 .53.11l1.4-.11 1.4-.1h.2a1.49 1.49 0 0 1 .51.07 2 2 0 0 0 .61.11 1.56 1.56 0 0 0 .63-.14.77.77 0 0 1 .27-.07h.06a2.27 2.27 0 0 0 1 .22h7.27a3.51 3.51 0 0 0 1.41-.25H203.65a3 3 0 0 0 1.17.22 5 5 0 0 0 1.15-.15.44.44 0 0 1 .17 0H208.07a2.65 2.65 0 0 0 .73-.12.55.55 0 0 0 .34-.36c.26.06.19-.22.03-.27zm-10.69-23.56zM28.37 131.14a4.42 4.42 0 0 1 .78.06c.18 1.35.27 15.32.12 17.83a.56.56 0 0 1-.17-.11l-.32-.3c-.77-.73-1.57-1.49-2.34-2.25-.21-.21-.42-.43-.61-.65s-.47-.53-.73-.78a6.14 6.14 0 0 0-.74-.54l-.38-.25a1.76 1.76 0 0 1-.12-.2 3.69 3.69 0 0 0-.5-.68c-.86-.87-1.75-1.73-2.61-2.58L19.06 139c-.33-.32-.65-.65-1-1l-.91-.92a5 5 0 0 0-.7-.55 3.55 3.55 0 0 1-1.12-1.34c1.93-1.66 9.48-4.05 13.04-4.05zM7.59 142c.25-.32.48-.63.72-.92.4-.46.81-.9 1.23-1.31.56-.56 1.12-1.1 1.71-1.59.76-.64 1.57-1.25 2.34-1.84a.89.89 0 0 1 .37-.21c.08 0 .19.1.37.27.52.52 1.05 1 1.58 1.53s1.06 1 1.58 1.53c.26.25.51.52.76.78s.43.46.66.68C20 142 21 143 22.05 144a9.34 9.34 0 0 0 .78.63 4.08 4.08 0 0 1 .33.25l.12.06a6.64 6.64 0 0 0 1.73 2c.32.28.65.57 1 .88.94 1 1.95 2.06 3.09 3.23a.94.94 0 0 1 .2.74V157.64a11.88 11.88 0 0 0 .09 2.45 1.9 1.9 0 0 1 0 .62c0 .14 0 .29-.05.44V164.18l-.41-.41a7.93 7.93 0 0 0-1.16-1 4.15 4.15 0 0 1-1-1 5.94 5.94 0 0 0-.76-.83c-.57-.49-1.14-1-1.81-1.73-.34-.36-.68-.74-1-1.1a23 23 0 0 0-1.74-1.82c-.87-.79-1.75-1.65-2.7-2.61-.67-.68-1.37-1.37-2-2L15 150c-.45-.45-.89-.91-1.34-1.37s-1.14-1.19-1.73-1.77l-2.08-2-1.6-1.54c-.21-.2-.39-.42-.61-.67l-.26-.31zm21.74 45.5v.74a2.56 2.56 0 0 1-.69.1 6 6 0 0 1-.85-.09c-.16 0-.32-.05-.48-.06l-2.89-.31a3.29 3.29 0 0 1-.43-.09l-.94-.27c-.78-.22-1.59-.45-2.37-.72a18.2 18.2 0 0 1-5-2.43 1.14 1.14 0 0 0-.68-.26 1.17 1.17 0 0 0-.43.1 1.09 1.09 0 0 0-.46-.65l-.59-.42a20.9 20.9 0 0 1-2-1.52c-.88-.81-1.71-1.69-2.52-2.55l-.56-.58-.2-.22a8.86 8.86 0 0 1-1.14-1.37c-.23-.37-.49-.73-.74-1.07A9.32 9.32 0 0 1 5 173.4a4.06 4.06 0 0 0-.29-.59 21.8 21.8 0 0 1-2.07-4.95 16.09 16.09 0 0 1-1-5.18 13.46 13.46 0 0 0-.1-1.69c0-.37-.07-.76-.08-1.14v-2.27a3 3 0 0 1 0-.36v-.07l.52.48c.48.44.94.85 1.38 1.28.93.9 1.84 1.83 2.78 2.77l.63.68c.25.27.5.54.77.81s.76.74 1.15 1.1c.54.51 1.09 1 1.61 1.57.89.91 1.77 1.84 2.62 2.74.63.66 1.25 1.32 1.89 2a9.61 9.61 0 0 0 .73.7c.21.19.43.39.63.6s.67.68 1 1 .82.86 1.24 1.28.81.78 1.22 1.15l1.11 1.06c.53.52 1.06 1.06 1.57 1.59l.68.69.1.11a3.57 3.57 0 0 0 .56.48 2.39 2.39 0 0 1 .8.84 3.52 3.52 0 0 0 .91 1c.16.14.32.28.46.42l.59.61c.28.29.55.58.84.86s.43.42.66.63.66.62 1 1a1.27 1.27 0 0 1 .36.72c.07.68.07 1.46.06 2.18zm0-19.11V179.86c0 .57 0 1.14.06 1.7 0 .35 0 .7.05 1.05a1.85 1.85 0 0 1-.05.34l-.2-.22-.67-.72c-.26-.26-.51-.52-.76-.79a23.69 23.69 0 0 0-2.17-2.08 5.21 5.21 0 0 1-.69-.72 5.92 5.92 0 0 0-.69-.73.48.48 0 0 1-.13-.17 1.15 1.15 0 0 0-.14-.19c-.28-.29-.53-.54-.78-.76a3 3 0 0 0-.33-.28 3.11 3.11 0 0 1-.38-.33l-.65-.63c-1.4-1.38-2.84-2.81-4.25-4.24-.58-.59-1.17-1.2-1.73-1.8s-1.38-1.44-2.08-2.14c-.31-.3-.6-.61-.9-.92a20.45 20.45 0 0 0-2.63-2.45 4.47 4.47 0 0 1-.79-.83c-.11-.15-.23-.29-.34-.42l-.39-.45c-.26-.3-.53-.61-.81-.9s-.49-.47-.73-.7-.36-.31-.53-.48c-1.14-1.1-2.28-2.2-3.38-3.28l-.28-.27a5 5 0 0 1-.82-.9 1.49 1.49 0 0 1-.18-1L2 154a6.13 6.13 0 0 1 .57-2 2.64 2.64 0 0 0 .24-.83c0-.14 0-.28.09-.41a15.43 15.43 0 0 1 1.19-2.95c.18-.37.36-.75.53-1.13a15.73 15.73 0 0 1 1.06-1.87c.25-.39.5-.79.74-1.22l.16.11a3 3 0 0 1 .47.36c.42.41.84.85 1.25 1.27l.33.35.65.67c.34.36.69.72 1 1.07.79.81 1.74 1.77 2.72 2.73l1.62 1.59c.66.64 1.32 1.28 2 1.93 1.83 1.81 3.74 3.72 5.84 5.83l1.07 1.12c.66.7 1.35 1.43 2.08 2.07a13.7 13.7 0 0 1 1.06 1.1 10.49 10.49 0 0 0 1.6 1.52 2.35 2.35 0 0 1 1.06 2.71 1.32 1.32 0 0 0 0 .28zm30.39-26c.74-.47 1.5-.95 2.24-1.44l.49-.34c1.72-1.14 3.49-2.33 5.22-3.51.83-.57 1.7-1.12 2.54-1.65 1-.66 2.1-1.33 3.12-2.05a67.9 67.9 0 0 1 5.67-3.71v5.03a.76.76 0 0 1-.39.66c-.52.36-1 .73-1.54 1.1l-1.33 1a3.41 3.41 0 0 1-.5.28 3.47 3.47 0 0 0-.46.25L68 142.36l-.14.1c-1.42.92-2.88 1.87-4.32 2.83l-2.32 1.56-2.22 1.5a5.56 5.56 0 0 1-.64.35l-.19.1-1.3-2.72-.65-1.38c1.14-.82 2.32-1.57 3.47-2.29zm-14.76-5.54l.66-.66A.58.58 0 0 1 46 136a.55.55 0 0 1 .32.14c.21.17.43.33.65.49s.61.46.9.71.42.38.62.58a7.22 7.22 0 0 0 1 .9 9.86 9.86 0 0 1 1.92 1.84l.55.63a4.45 4.45 0 0 1 .46.63l.17.25c-.26.27-.52.52-.77.77a19 19 0 0 0-1.74 1.88A10.18 10.18 0 0 1 49 146c-.28.26-.57.52-.83.81-.49.54-1 1.05-1.56 1.53l-1 .92c-.41.4-.81.82-1.2 1.23s-.58.61-.88.91l-1.2 1.2-1.23 1.24-1.44 1.47c-.5.53-1 1.05-1.53 1.57s-1.2 1.21-1.8 1.81c-.33.32-.65.64-1 1l-1 1-1.88 1.87c-.42.42-.85.83-1.32 1.27l-.48.46a18.13 18.13 0 0 1 0-3.05.2.2 0 0 0 0-.09v-.13-4.09a.58.58 0 0 0 0-.19.5.5 0 0 1 0-.12v-1.37-2.94a2.54 2.54 0 0 1 .74-1.89l.55-.55.34-.33 1.18-1.19 2.36-2.38c.28-.27.58-.53.87-.79l.41-.35a.69.69 0 0 1 .13-.11 2.54 2.54 0 0 0 .29-.28 32.12 32.12 0 0 1 3.05-3.12c.55-.52 1.12-1.05 1.66-1.59s.85-.87 1.27-1.31l.85-.89zm-14.3.15v-.53l.09-3.7v-.69-.34-.57c0-.08.12-.06.27-.06h.22c.6.05 1.21.13 1.8.2l.83.1h.45a8.08 8.08 0 0 1 .86.11 30.36 30.36 0 0 1 7.82 2.66c.36.18.72.39 1.07.59l.39.21a43.47 43.47 0 0 1-4.46 4.74c-.9.83-1.76 1.72-2.59 2.59-.69.71-1.4 1.45-2.12 2.15a199 199 0 0 0-4.64 4.56v-.18-.78c0-.7 0-1.4.07-2.1s0-1.43.07-2.14v-3.14c0-.25 0-.51-.05-.76s0-.38 0-.57v-.08c0-.48-.06-1-.06-1.48-.04-.27-.03-.54-.02-.79zm0 39.93c.09-1.4.07-2.82.05-4.2v-3-1c0-.36 0-.5.05-.75v-.14a1.78 1.78 0 0 0-.05-.69.84.84 0 0 1 .28-1l4.1-4.15 1.19-1.22c.62-.65 1.27-1.33 1.92-2l1.59-1.55c.55-.53 1.11-1.08 1.66-1.63s1.09-1.13 1.62-1.68l1.26-1.31.67-.61.71-.68c.3-.31.59-.62.88-.94s.55-.59.83-.87.44-.43.66-.64.39-.37.58-.56l.18-.17c.34-.35.7-.71 1-1.1a12.64 12.64 0 0 1 1.91-1.81 9 9 0 0 0 1-1c.1-.11.2-.23.31-.34s.22-.26.36-.43l.13-.16.53.92c.43.72.84 1.4 1.18 2.09.45.88.85 1.8 1.25 2.69l.48 1.08a3.56 3.56 0 0 1 .19.49c.11.45.22.92.33 1.38.21.87.42 1.76.66 2.64a1 1 0 0 1-.32 1.06c-1.34 1.3-2.87 2.78-4.32 4.24-.47.47-.92 1-1.36 1.45s-.66.73-1 1.08-.83.83-1.24 1.23l-.43.42-1.11 1.08c-.75.72-1.52 1.47-2.27 2.22-.54.54-1.07 1.11-1.59 1.66-.86.91-1.75 1.85-2.68 2.72-.69.64-1.36 1.32-2 2l-1.06 1.06a4.21 4.21 0 0 0-.47.64l-.18.29-.23.13a3.4 3.4 0 0 0-.61.43l-.93.92c-.62.62-1.27 1.27-1.92 1.88a27.81 27.81 0 0 0-2.14 2.28 13.82 13.82 0 0 1-1.19 1.23l-.45.44v-.87-2.52a18.92 18.92 0 0 0-.06-2.59.29.29 0 0 1 .03-.16zm5.59 16.39h-.11a1.45 1.45 0 0 1-.33.06h-.43a1.74 1.74 0 0 0-.79.16.65.65 0 0 1-.2 0 .74.74 0 0 0-.56-.24 1.51 1.51 0 0 0-.47.09H33.12a1.14 1.14 0 0 1-.24.05 2.07 2.07 0 0 0-1-.26 3 3 0 0 0-1 .18 17.74 17.74 0 0 1-.07-2.63v-1h.79c.69 0 1.35 0 2-.13s1.28-.23 2-.38l.77-.17a23.45 23.45 0 0 1-.14 4.25zm10.52 0l-.69.07a8 8 0 0 1-1.06.09 3.1 3.1 0 0 1-.54 0 2.77 2.77 0 0 0-.42 0 6.32 6.32 0 0 0-.76.06 6 6 0 0 1-.71.06 1.78 1.78 0 0 1-.76-.15h-.05a2 2 0 0 1-.61.08 4.4 4.4 0 0 1-1-.14 3.62 3.62 0 0 0-.46-.06 2.14 2.14 0 0 1-.65-.13 1.62 1.62 0 0 0-.65-.18 1 1 0 0 0-.59.2v-4.33a9 9 0 0 0 3.29-1 12.74 12.74 0 0 1 1.47-.63 17.61 17.61 0 0 0 3.1-1.61l1.19-.7v2.75a55 55 0 0 1-.12 5.59zm10.44.19h-.47l-.73-.09-1.21-.15h-.06a1.28 1.28 0 0 0-.34.06.79.79 0 0 1-.25.05H53.08a3.92 3.92 0 0 0-1 .11 1.14 1.14 0 0 1-.28 0 5.24 5.24 0 0 1-.53 0 3 3 0 0 0-.52-.06h-.65a4.19 4.19 0 0 0-.65 0 3.43 3.43 0 0 1-.57.06 1.46 1.46 0 0 1-.67-.14v-3.73-.72-2.08-2a2 2 0 0 1 .79-1.65c.71-.6 1.38-1.25 2-1.88l1.07-1a20.3 20.3 0 0 0 2.69-3.34l.51-.74a18.26 18.26 0 0 0 1.18-2c.17-.32.33-.63.51-.94a2.11 2.11 0 0 1 .18-.27v4.42c.07 5.18.1 10.58.05 16.06zm.94-27.86l-.06.17c0 .09-.06.18-.1.28a3.57 3.57 0 0 0-.16.46l-.32 1.1c-.19.7-.39 1.42-.63 2.12a17.09 17.09 0 0 1-.88 2.07 37.52 37.52 0 0 1-1.87 3.43 27.39 27.39 0 0 1-6.39 7 34 34 0 0 1-3.92 2.59l-.33.19-1.29.75-.66.38a.22.22 0 0 0-.07.06h-.22a3.59 3.59 0 0 0-1.49.44 4.91 4.91 0 0 1-.91.36l-.89.22c-.78.2-1.58.4-2.38.55s-1.79.29-2.67.41l-1 .14h-.67c-.44 0-.44 0-.44-.69v-3.47a1 1 0 0 0 .4.09 1.23 1.23 0 0 0 .86-.48c.44-.46.87-.92 1.31-1.37.61-.65 1.22-1.29 1.84-1.92.14-.15.31-.29.46-.43l.4-.37.16-.15c.64-.64 1.31-1.3 1.94-2a4 4 0 0 0 .39-.53 3.45 3.45 0 0 1 .2-.32c.05-.06.15-.2.19-.2a1.34 1.34 0 0 0 .87-.56l.14-.16c.54-.56 1.09-1.12 1.63-1.66l.73-.74.9-.92L44.6 171l.83-.83.34-.33c.57-.58 1.15-1.15 1.73-1.72 1.39-1.37 2.84-2.79 4.24-4.21.45-.45.89-.93 1.31-1.4s.72-.8 1.1-1.18c.52-.54 1.06-1.07 1.58-1.58l1-1 .88-.9.6-.62.26-.24a1.73 1.73 0 0 1 .12.78v1.43a2.11 2.11 0 0 0 0 .26 5 5 0 0 1 0 .66c0 .6-.07 1.21-.14 1.87-.11 1.06-.23 2.13-.35 3.19a1.69 1.69 0 0 1 .03.44zm.48 27.75V192v-.85-1.57c0-.91 0-1.88.07-3.06v-.41a2.46 2.46 0 0 0-.17-1.43.26.26 0 0 1 0-.15c0-.21 0-.41.05-.62s0-.67.06-1v-.26c0-1.26.09-2.56.1-3.83v-1.38-1.14-2.14V172v-.6a2.66 2.66 0 0 0-.07-1.31.56.56 0 0 1 0-.26v-.12a.59.59 0 0 1 .17 0h5.26a9.46 9.46 0 0 0 1.28-.07 1.45 1.45 0 0 0 .45-.18l.37.09c.28.07.55.14.82.18s.58.06.88.08h.29c.15 4.17.12 8.41.09 12.5v11.17zm.47-25.21c.09-.52.17-1 .25-1.54.2-1.23.38-2.4.59-3.56a19.18 19.18 0 0 0 .19-3.29v-1.66a7.48 7.48 0 0 1 3.78 1.6 1 1 0 0 0 .23.18 6.23 6.23 0 0 1 2.34 2.29 17.63 17.63 0 0 1 .87 1.67c.13.27.26.55.4.82a5.88 5.88 0 0 1 .49 2.2c0 .3 0 .6.09.89a.34.34 0 0 1 0 .26.38.38 0 0 1-.27.1h-.67a5.06 5.06 0 0 0-1.38.14.77.77 0 0 1-.27 0 3.42 3.42 0 0 1-.66-.1l-.54-.09h-.44c-.33 0-.67 0-1 .06H61.74c-.58 0-1.17 0-1.74-.06zM79 153.33v24.95c0 .62 0 1.4-.06 2.11v12.84h-.15a7.61 7.61 0 0 1-1.26.15 2.77 2.77 0 0 1-.78-.11h-6.1a8.56 8.56 0 0 0-.93 0 2.46 2.46 0 0 0 0-.28v-.78-11-2.19-3-.74-.44-.68-.35V171.94v-3.89a11.41 11.41 0 0 0-2.64-7.49 13.9 13.9 0 0 0-4.59-3.45 5.24 5.24 0 0 0-1.24-.38l-.59-.15c-.77-.21-.77-.21-.89-1-.15-1-.33-2.25-.55-3.43a5.8 5.8 0 0 0-.46-1.37.53.53 0 0 1 .15-.74l.15-.13a3.32 3.32 0 0 1 .38-.3l2.65-1.61 1.56-1 .77-.5c1.28-.82 2.56-1.64 3.83-2.48l1-.71c.32-.22.64-.45 1-.66l.11-.08c1.4-.92 2.85-1.88 4.29-2.8l.46-.29a26.63 26.63 0 0 0 2.78-1.93 3.63 3.63 0 0 1 .76-.45l.27-.14v.5c0 .48.07.93.07 1.37v3.45l-.06 3.7v1.75a.42.42 0 0 0 0 .29 1.66 1.66 0 0 1 .12 1.2 4 4 0 0 0 0 .6zm13.19-89.44c.44-.73.85-1.41 1.25-2.1.1-.18.19-.36.28-.54a3.68 3.68 0 0 1 .23-.44l1.35-2.42c.81-1.45 1.66-3 2.47-4.44.33-.58.64-1.19.94-1.78s.58-1.14.88-1.69.54-.93.8-1.38.51-.84.75-1.27a2.13 2.13 0 0 0 .17-.59c0-.09 0-.19.06-.29a3 3 0 0 0 1-1.28c.33-.65.7-1.3 1.06-1.92.22-.39.44-.77.65-1.16.31-.56.61-1.13.91-1.69.41-.76.83-1.54 1.25-2.3.52-.94 1-1.86 1.58-2.79s1.1-1.92 1.64-2.89c.4-.71.79-1.45 1.17-2.16s.65-1.23 1-1.85l1.37-2.54c.41-.72.82-1.45 1.22-2.18.57-1 1.16-2.12 1.76-3.25a1.27 1.27 0 0 1 1.19-.76h.22a1.52 1.52 0 0 1 1.57 1c.22.42.46.84.69 1.25a20.19 20.19 0 0 1 .94 1.79 7 7 0 0 0 .56.95c.12.19.26.4.37.6.75 1.34 1.54 2.75 2.33 4.19.43.81.87 1.61 1.31 2.42q.81 1.51 1.65 3l1 1.77c.29.5.58 1 .86 1.52s.49.89.73 1.35c.46.87.94 1.78 1.49 2.63.28.44.52.92.75 1.37a15.53 15.53 0 0 0 .8 1.44c.55.84 1 1.74 1.49 2.61.33.62.68 1.27 1 1.89s.88 1.57 1.28 2.35l.83 1.57c.31.56.64 1.11.95 1.65s.53.89.78 1.34c.37.66.74 1.33 1.1 2l.86 1.56c.2.36.41.72.62 1.08l.63 1.1c.25.45.48.9.75 1.4l.29.54h-.85l-2.28.05h-1.65c-.56 0-1.14.07-1.71.07s-1.13 0-1.7-.07h-.36c-.32 0-.64 0-.95.06h-9.68c-.56 0-1.12 0-1.67.06-.82 0-1.66.06-2.48.06-.49 0-1 0-1.41-.08s-.76-.06-1.13-.07h-9.2a7.18 7.18 0 0 0-.82.06h-6.89l-3.4-.06H91.78zm-.9 28.19v-1.07-.78-.78-1-1.08-.95-1-1.74-2.11c0-.7 0-1.21.06-1.8 0-.88.07-1.79 0-2.68V73v-3-3.88h.2a3 3 0 0 1 .57-.07h7.87v-.07.02H104c1.15 0 2.32 0 3.44-.08L109 66h.6a13.62 13.62 0 0 0 1.81.11H117.9a1.31 1.31 0 0 0 .37 0 5 5 0 0 1 1.2-.13 13.29 13.29 0 0 1 1.36.09h8.16l2.54.08h.59a1 1 0 0 0 .24 0h.09a14.06 14.06 0 0 1 2.32-.16h8.69v.17a5.44 5.44 0 0 1 0 .57v1.12c0 1 .06 2.08.07 3.12v1.12a13 13 0 0 0 0 1.53 7.37 7.37 0 0 1 0 1 5.11 5.11 0 0 0 .09 1.78 1.21 1.21 0 0 1 0 .53 2.3 2.3 0 0 0-.05.45c0 .5 0 1 .05 1.52s0 .81 0 1.21v.37a2.25 2.25 0 0 0 0 .58 5.63 5.63 0 0 1 0 1.36 4.32 4.32 0 0 0 .15 2 .55.55 0 0 1 0 .23c0 .13 0 .27-.05.4s-.06.46-.07.69c0 1.63-.07 3.06-.08 4.39a5.48 5.48 0 0 0 0 .7v1.95a.91.91 0 0 1 0 .17 2.62 2.62 0 0 0 0 .56 20.14 20.14 0 0 1 .1 3.38V100.63c0 .82 0 1.64-.08 2.48v.81l-1.31-.81-3.73-2.34c-.31-.2-.61-.42-.91-.64s-.5-.36-.76-.53q-3.47-2.31-6.95-4.59l-1.21-.79-1.73-1.13c-.58-.39-1.16-.8-1.72-1.19l-1.32-.91c-.23-.16-.47-.31-.7-.45l-.5-.31c-1-.67-2.21-1.43-3.34-2.18a4.21 4.21 0 0 1-.48-.38l-.18-.15a1.84 1.84 0 0 0-1.2-.47 1.75 1.75 0 0 0-1 .32 218.2 218.2 0 0 1-3.75 2.57c-1.16.79-2.33 1.57-3.5 2.34l-1.46 1-.13.08a21.37 21.37 0 0 0-3.13 2c-.4.29-.8.58-1.21.86-.71.49-1.45 1-2.17 1.42l-1.56 1-5.19 3.46-2.71 1.81-.15.09a1 1 0 0 1 0-.21c0-.33 0-.66-.05-1 0-.85-.08-1.72-.08-2.59 0-1.28 0-2.59.05-3.86v-3.13c-.17-.27-.2-.71-.22-1.13zM80.4 114c-.07-.8.29-1.07.89-1.44 1-.63 2-1.3 3-1.94l.64-.44 2.88-1.92c1.56-1 3.11-2.09 4.68-3.13.6-.4 1.23-.79 1.84-1.18l1.26-.8c1.11-.71 2.24-1.45 3.35-2.18.3-.19.58-.4.87-.6l.68-.47 1.51-1.05c1.57-1.06 3.19-2.17 4.8-3.23.79-.53 1.61-1 2.4-1.55s1.62-1 2.42-1.55 1.65-1.13 2.45-1.69c.58-.4 1.16-.81 1.75-1.2.35-.24.71-.46 1.09-.68l.47-.29.62.34c.46.29.91.57 1.36.87l.37.24c1.65 1.07 3.35 2.18 5 3.29l2.79 1.88a277.71 277.71 0 0 0 5.43 3.63l1.67 1.07 1.76 1.13.95.64c.48.33 1 .67 1.47 1a11.55 11.55 0 0 1 1.13.81 6.93 6.93 0 0 0 2.2 1.3.46.46 0 0 1 .19.14 10.51 10.51 0 0 0 2 1.39c.28.16.57.34.85.52.62.4 1.25.83 1.86 1.25s1 .69 1.52 1l1.77 1.15c.55.36 1.11.71 1.65 1.08.38.24.75.5 1.12.76l1.16.78a.72.72 0 0 1 .3.69v4.93a2.55 2.55 0 0 1 0 .34v.11l-.1-.06a2.27 2.27 0 0 1-.35-.26 10.57 10.57 0 0 0-2.1-1.58c-.31-.2-.64-.4-1-.61s-.67-.44-1-.66-.61-.38-.9-.58l-1.39-1-1.71-1.13a4.1 4.1 0 0 0-.54-.3 4.82 4.82 0 0 1-.5-.27c-.67-.45-1.36-.91-2-1.37l-.83-.57c-.41-.28-.82-.56-1.22-.85a30.39 30.39 0 0 0-2.91-1.91c-.42-.24-.83-.52-1.22-.79a10.58 10.58 0 0 0-2-1.16 3.27 3.27 0 0 1-.89-.64 4.57 4.57 0 0 0-.79-.6 17.91 17.91 0 0 1-1.6-1.08 12.13 12.13 0 0 0-2.14-1.36 7.19 7.19 0 0 1-1.28-.83c-.21-.16-.43-.33-.65-.48l-2.6-1.74L123 98l-3-2a7.26 7.26 0 0 1-.63-.46l-.57-.42a2.2 2.2 0 0 0-1.25-.49 2.22 2.22 0 0 0-1.27.5c-.71.49-1.45 1-2.16 1.43l-1.36.9-2.1 1.41-2.72 1.82-1.44.94c-.78.5-1.59 1-2.37 1.56l-.12.08a5 5 0 0 0-1.61 1.53h-.15a2.19 2.19 0 0 0-1.27.52l-.24.16c-2 1.3-4.25 2.72-6.73 4.35-.73.48-1.46 1-2.17 1.47l-1.47 1-.91.58-.8.52q-.6.39-1.2.81l-.94.64-5.52 3.6-.41.24-.13.07v-.08a1.66 1.66 0 0 1-.08-.4v-1.39a22.9 22.9 0 0 0 .02-2.89zm36.22 65.58v6.45c0 .71 0 1.42.05 2.11s.06 1.61.06 2.42c0 .54 0 1.09-.1 1.66l-.06.72a3.7 3.7 0 0 1-1.18.16h-4.09l-1-.07c-.57-.05-1.16-.09-1.74-.1-.25 0-.5 0-.74.05a5.83 5.83 0 0 1-.72.06 2.22 2.22 0 0 1-.65-.09h-.06a.77.77 0 0 1-.48.16 2 2 0 0 1-.57-.11H105a1 1 0 0 0-.28 0 1 1 0 0 0-.26 0 1.31 1.31 0 0 1-.44.07 2.48 2.48 0 0 1-.8-.16v-.58c0-.48-.08-1-.08-1.48v-5.77-28.5-2.11-2.27c0-.76 0-1.46-.05-2.19v-.59-.34c.1-1.37.07-2.77 0-4.12v-2.39-1.32-5.38-1.52-1.61c0-.25 0-.42.07-.49s.18-.08.44-.08h9.99c.62 0 1.37 0 2.11-.07a1.72 1.72 0 0 0 .6-.21l.15-.07a.65.65 0 0 1 .09.28v13.92c0 .56 0 1 .05 1.57v.61a4.48 4.48 0 0 0 0 .64V177.58a2.5 2.5 0 0 0 .13.65l.06.22a1.22 1.22 0 0 0-.24.94zm0-57.74V123.41a5.9 5.9 0 0 0 0 .94 8.34 8.34 0 0 1 0 1.73 10.59 10.59 0 0 0 0 1.13v3.22a1.09 1.09 0 0 1-.07.3h-5.67l-2.38.05-4.3.09a4.22 4.22 0 0 1-.59-.06h-.26a4.86 4.86 0 0 1 .09-2.08 23 23 0 0 1 .7-2.46l.08-.22a9.2 9.2 0 0 1 1.69-3 23 23 0 0 1 3.16-3.24 2.93 2.93 0 0 1 .43-.29l.9-.49c.74-.41 1.51-.83 2.29-1.17a10.29 10.29 0 0 1 3.5-.9h.06c.21 0 .32.06.38.36a4.89 4.89 0 0 1 0 1.43v.4c-.04.85-.03 1.79-.01 2.71zm15.09 25.78V150.84c0 .87-.06 1.78-.06 2.68 0 .75 0 1.51.08 2.25v1.06a.19.19 0 0 1 0 .1 11.92 11.92 0 0 0 0 2.53 15.85 15.85 0 0 1 0 1.95c-.09 1.26-.1 2.5-.11 3.68v16.48a5.27 5.27 0 0 1 0 .56v10.76a2.38 2.38 0 0 0-.38.11 1.85 1.85 0 0 1-.54.11.69.69 0 0 1-.41-.13.43.43 0 0 0-.24-.06h-.24c-.56.05-1.14.08-1.85.08H124.96a4.09 4.09 0 0 0-1.53.25h-.07a1.2 1.2 0 0 1-.24 0 1 1 0 0 0-.23 0l-.6-.07A11.33 11.33 0 0 0 121 193c-.65 0-1.31 0-2 .07h-.83v-.35-8-4.83a4.92 4.92 0 0 0-.09-.86c0-.15 0-.31-.06-.47a.52.52 0 0 1 0-.25 2.12 2.12 0 0 0 .19-1.35v.04c-.08-.92-.07-1.87-.07-2.79v-.34-5.89-1.13-1.3-1.29-1.15-1.54-1.21-3.2V147.71v-1.5-1.39-1.22-1.13-.85-1a7 7 0 0 0 0-.8 7.75 7.75 0 0 1 0-.84v-2-2.16c0-.48 0-1-.06-1.44v-.76-.39h.59c.54 0 1-.06 1.57-.07h11.35a8.43 8.43 0 0 1 .07 2.38 7.94 7.94 0 0 0 0 1.38c0 .19 0 .38.05.57a2.11 2.11 0 0 0 0 .25 1.11 1.11 0 0 1 0 .36 14.72 14.72 0 0 0 0 2.89c0 .55.05 1.11.05 1.67s0 1.35-.07 2-.06 1.43-.07 2.15.06 1.26.09 1.83zm-1.5-22.46a11 11 0 0 1 1.14 3.54c.08.4.16.81.26 1.21v.21a.85.85 0 0 1-.09.58.75.75 0 0 1-.54.13h-12.23a2.36 2.36 0 0 1-.44-.07h-.13v-2.05c0-1.59-.08-3.23-.09-4.85s0-3.22 0-4.8v-2h.87a2.68 2.68 0 0 1 .54 0 21.72 21.72 0 0 1 3.06.91 12.32 12.32 0 0 1 5.07 3.47c.5.6.94 1.14 1.36 1.7a.91.91 0 0 0 .75.41.68.68 0 0 0 .2 0 2.09 2.09 0 0 0 .27 1.63zm5.27 29.06a5.1 5.1 0 0 0 0 .57V176.98c0 .78 0 1.57-.06 2.33s-.06 1.33-.07 2c0 .33 0 .66.07 1a8.67 8.67 0 0 1 .06.89v9.48a.42.42 0 0 1-.07.29.33.33 0 0 1-.24.07h-.07l-1.39-.07h-.54v-.62-1.6-.79-.93-.7-1.78-5.61-1.07a7.35 7.35 0 0 0-.13-2.33 1.17 1.17 0 0 1 0-.48 1.84 1.84 0 0 0 .06-.41v-2.74-1.82-1.55-3.77-2.6a10.79 10.79 0 0 0 0-1.14 7.63 7.63 0 0 1 .11-2.18 3.53 3.53 0 0 0 0-.92v-.35-.29a2.11 2.11 0 0 1 0-.26V150.4v-1.76-.65a5.67 5.67 0 0 0 0-1.09 10.47 10.47 0 0 1 0-1.94v-.45-1.81-1.5-2.59-3c0-1 0-2.09-.07-3.11 0-.86-.08-1.75-.07-2.62a11.73 11.73 0 0 0-.87-4 13.29 13.29 0 0 0-.67-1.49c-.11-.22-.22-.44-.32-.66a1.13 1.13 0 0 0-.77-.61 1 1 0 0 0-.3-1.12c-.65-.75-1.33-1.47-2.08-2.27a5.89 5.89 0 0 0-.45-.42c-.14-.12-.29-.25-.42-.38a8.74 8.74 0 0 0-2.57-1.67c-.24-.11-.48-.23-.71-.36a17.68 17.68 0 0 0-5-1.47 5.9 5.9 0 0 0-1.14-.1 14.08 14.08 0 0 0-1.8.15 15.09 15.09 0 0 0-4.72 1.33 19.84 19.84 0 0 0-4.22 2.76 14 14 0 0 0-1.9 2.12c-.26.35-.54.7-.83 1a8.87 8.87 0 0 0-1.48 3.06l-.15.45-.12.41c0 .14-.08.28-.13.41a11.37 11.37 0 0 0-.55 3.75c0 .43 0 .86-.07 1.28s-.05.82-.06 1.23 0 .73 0 1.08 0 .59.05.88v8.72c0 .44 0 .89-.05 1.33s0 1 0 1.55v19.64c0 .33 0 .59.05.88v4.25c0 .5 0 1-.05 1.5s0 1.24 0 1.86v2c0 .65 0 1.12.05 1.68v4.79a28.81 28.81 0 0 0 0 2.94c0 .94.07 1.91 0 2.86s-.09 1.68-.1 2.44a8.28 8.28 0 0 0 .06.86v.28a5.14 5.14 0 0 1-.78.07 3.44 3.44 0 0 0-1.25.22h-.14c-.13 0-.17-.2-.17-.38v-2.18-3.54-1.62-2.76c0-.65 0-1.3-.06-1.94v-1.26-3.29c0-.93 0-1.88.06-2.82a8.32 8.32 0 0 0-.1-1.12l-.06-.45a.7.7 0 0 0 0-.14v-.1a18.72 18.72 0 0 0 .12-4.61.41.41 0 0 1 0-.11v-1.72-3.93-2.91-3.36-1.67-1.21-1.34-1.4a3.31 3.31 0 0 0-.1-.59l-.06-.27a1.69 1.69 0 0 0 .2-1.08v-.27-2-2.7-1.1V140v-2.91a29.38 29.38 0 0 1 0-3.75 11.21 11.21 0 0 0 0-1.29v-.64a.74.74 0 0 0 0-.21 4.09 4.09 0 0 1 0-1.81 7.23 7.23 0 0 0 .13-1.23c0-.24 0-.49.06-.73a1.6 1.6 0 0 1 .11-.4 2.5 2.5 0 0 0 .09-.25l.12-.43c0-.21.11-.42.17-.62l.08-.25a7.43 7.43 0 0 1 .39-1.06c.13-.28.25-.56.38-.83a24.22 24.22 0 0 1 1.38-2.74 13.9 13.9 0 0 1 1.65-2l.37-.42a17.25 17.25 0 0 1 4.33-3.41 16.23 16.23 0 0 1 1.8-.85 24.65 24.65 0 0 1 3.55-1.16h.18a6.42 6.42 0 0 1 1.51-.23 3 3 0 0 1 .43 0h.5a11.46 11.46 0 0 1 1.17-.06 13.92 13.92 0 0 1 4.92 1l.67.25c.7.25 1.41.51 2.1.82a6.73 6.73 0 0 1 1.06.63l.38.26a16.8 16.8 0 0 1 4.86 4.55 19 19 0 0 1 1.89 3.4c.06.15.12.29.19.44a13.56 13.56 0 0 1 .73 2 21.5 21.5 0 0 1 .54 3.14 21.23 21.23 0 0 1 .14 3.41c-.05.93 0 1.88 0 2.8v9.16c0 2 0 4 .05 5.88v3.22c.18.15.16.32.14.56zm19-11.55a8.82 8.82 0 0 1 0 .89V166.69c0 .98 0 1.81.06 2.7V193h-1.24c-.37 0-.76 0-1.26.07h-.44l-.64.06h-2.31l-1.37-.06a1.84 1.84 0 0 0-.36.05h-.5a2.53 2.53 0 0 1-.46.06h-.18a4.45 4.45 0 0 0-1.14-.14 11.11 11.11 0 0 0-1.16.08h-.09a1.43 1.43 0 0 1-.34-.06h-.17l-.22-.05a2.26 2.26 0 0 0-.53-.08 1.14 1.14 0 0 0-.61.18.55.55 0 0 1-.28.06 3.44 3.44 0 0 1-.43 0l-.43-.05H140a.73.73 0 0 0-.27 0 1.51 1.51 0 0 1-.55.16.56.56 0 0 1-.39-.16.32.32 0 0 0-.23-.07.76.76 0 0 0-.37.1.81.81 0 0 1-.42.12 1.81 1.81 0 0 1-.61-.15l-.25-.08v-1.62-4.21-1.2c0-.4.05-.8.05-1.2a8.83 8.83 0 0 0-.07-.91 7.89 7.89 0 0 1-.07-1c0-.62.05-1.24.09-1.84s.07-1.28.08-1.93c0-.44 0-.89-.06-1.32s-.06-.74-.06-1.11v-5.74-1.81c0-.6.05-1.25.05-1.87v-1.13c0-.37-.05-.67-.05-1V157v-1.4-2.34-7a.29.29 0 0 1 0-.09v-2.15-4.24c0-.54 0-1.1.05-1.63s0-.89 0-1.33a6.17 6.17 0 0 0 0-.75v-.66-5a4.58 4.58 0 0 0 0-.64 23.85 23.85 0 0 0-1-4.94 10.87 10.87 0 0 0-.75-2.08 27.55 27.55 0 0 0-2.33-3.83 7.5 7.5 0 0 0-1.1-1.28c-.33-.29-.65-.62-1-.94a7.59 7.59 0 0 0-2.15-1.73 2.14 2.14 0 0 1-.41-.3 2.52 2.52 0 0 0-.25-.21l-.28-.21a3.45 3.45 0 0 0-.79-.51c-1.24-.55-2.56-1.07-3.63-1.49a15 15 0 0 0-5.28-.88h-.34a23.35 23.35 0 0 0-4.89.57 12 12 0 0 0-2.14.74l-.6.25a16.85 16.85 0 0 0-4 2.32 14.59 14.59 0 0 0-3.93 4c-.21.33-.44.66-.66 1s-.5.72-.72 1.11a15.41 15.41 0 0 0-1.73 4.23l-.21.87c-.12.46-.25.93-.34 1.41s-.15.92-.21 1.37c0 .19 0 .38-.07.58a.33.33 0 0 0 0 .22 2.48 2.48 0 0 1 .06 1.27 4 4 0 0 0 0 .78V146.9a4 4 0 0 0 .3 1.68 1.53 1.53 0 0 0-.3 1.17v16.27c0 .55.05 1.22.05 1.83v2.67a3.58 3.58 0 0 0 .11.73c0 .12.06.23.08.35a.88.88 0 0 1 0 .23c0 .12-.05.24-.08.36a3.59 3.59 0 0 0-.11.72v6.55a3.57 3.57 0 0 0 0 .46V182.06a3.13 3.13 0 0 0 0 .44v10.05a1.18 1.18 0 0 1 0 .28 1 1 0 0 1-.77.29H93.42a4.07 4.07 0 0 0-.9.08 1 1 0 0 1-.25 0H91.59a1.34 1.34 0 0 0-.69.17l-.17-.06a2.86 2.86 0 0 0-1.12-.19h-4.52a2.84 2.84 0 0 0-.91.11 6.49 6.49 0 0 1-2.06.27H80.46v-1.2-2.67-1.85-1.85-3.6-1.24-1.33a5.78 5.78 0 0 0 0-.72 6 6 0 0 1 0-.61v-5.15-.1a1.1 1.1 0 0 1 0-.26 9.3 9.3 0 0 0 .09-3v-.53-1.69-.59-1.56-2.76-1.61-1.75c0-.32 0-.65.07-1s.07-.66.07-1v-1.67-1.62-1.63V151a8.07 8.07 0 0 0-.11-1.77 2.6 2.6 0 0 1 0-.88v-.46-4.09-1.7-2.13-.93-.95c0-.47 0-1 .06-1.42s0-.78.06-1.16 0-.86 0-1.27v-.31c0-.29 0-.58-.06-.86a8.63 8.63 0 0 1 0-1.76 6.25 6.25 0 0 0 0-1.56 4.4 4.4 0 0 1 .09-2 .81.81 0 0 0 0-.41 1.13 1.13 0 0 1 0-.18c0-.53 0-1.09-.05-1.65v-1.07V123v-1.93a1 1 0 0 1 .53-.92c1.28-.77 2.58-1.58 3.87-2.42.64-.42 1.28-.86 1.9-1.29l1.34-.92 1.7-1.12 1.71-1.13 1.54-1.27 1.31-.9.64-.42c.23-.14.45-.29.67-.44l.83-.59.32-.23.08-.06.08-.07a12.43 12.43 0 0 0 2.32-1.37c.38-.26.76-.52 1.16-.76a10.16 10.16 0 0 0 .91-.67 6.36 6.36 0 0 1 1.18-.81 12.73 12.73 0 0 0 1.84-1.16l1-.68c1-.62 2-1.27 2.89-1.9l2.1-1.39c.43-.28.87-.55 1.31-.82s1-.63 1.55-1c1.32-.88 2.47-1.7 3.53-2.5a.64.64 0 0 1 .4-.16 1 1 0 0 1 .51.2l1.8 1.18c.4.27.81.55 1.22.81l1.87 1.21 1.36.88a1.56 1.56 0 0 1 .2.16l.16.12.19.14 1.14.83a1.91 1.91 0 0 0 .27.16 2.25 2.25 0 0 1 .21.12l.16.1 4.87 3.24 1.43 1 .64.45a.19.19 0 0 0 .14.07 1.4 1.4 0 0 1 1 .53 2.44 2.44 0 0 0 .69.5c.24.11.49.2.73.3l.19.08H136.4a19.32 19.32 0 0 0 4.1 3l.75.46a9.64 9.64 0 0 1 .84.58c.22.17.46.34.7.5l2 1.29 1.64 1 1.81 1.21.67.45 2.48 1.67.88.59c.66.45 1.32.9 2 1.33a.75.75 0 0 1 .31.71v18.16a4.43 4.43 0 0 0 .11.73c0 .1 0 .19.05.28a.58.58 0 0 0 0 .14 4.74 4.74 0 0 0-.29 2.44zm21.8 46.33v4c-.94.05-1.94.08-3.13.08H166.6v-.49c0-.48-.05-1-.07-1.48s0-1.24 0-1.87v-.75-.85V173.52v-1.8a5.68 5.68 0 0 0 0-.59v-.44-1.12h.7l2.11.08h1.1a12.4 12.4 0 0 0 1.69.11c.68 0 1.37 0 2-.08s1.25-.08 1.87-.08a.56.56 0 0 1 .15 0h.06V171.17a4 4 0 0 0 0 .49v17.09c.08.1.07.19.07.25zm0-21.23v.27a1 1 0 0 1-.29.08h-3.68l-5.09.08h-.06c-.47 0-.56-.09-.56-.57a9 9 0 0 1 1.18-4.42c.22-.4.47-.78.72-1.15l.33-.49v-.06a.59.59 0 0 1 .13-.17l.21-.2a10.45 10.45 0 0 1 3.13-2.28 10.22 10.22 0 0 1 3.33-.94h.6v6.07a.78.78 0 0 1 0 .32 2.55 2.55 0 0 0-.07 1.62c0 .07 0 .15.05.22a1.27 1.27 0 0 1 0 .84 1.38 1.38 0 0 0 .08.81zm1.35-1.4c0-1.54 0-3.15.08-4.72a16.81 16.81 0 0 0-.05-2v-1a2.11 2.11 0 0 1 0-.49.59.59 0 0 1 0-.14 10 10 0 0 1 6.73 3.72 9.07 9.07 0 0 1 2.19 6.46h-.49c-.45 0-.92.06-1.37.06H178.25c-.57 0-.59 0-.59-.62-.01-.43-.01-.83-.02-1.24zm9.16 15.86a2.26 2.26 0 0 0-.17.81 11.92 11.92 0 0 0 .05 1.35 23.11 23.11 0 0 1 0 3.53c0 .84-.08 1.72-.06 2.57V193a2.3 2.3 0 0 1-1 .18h-2.6a.46.46 0 0 1-.23 0 1.27 1.27 0 0 0-.58-.13 2.35 2.35 0 0 0-.6.09l-.28.05h-.16a1.87 1.87 0 0 1-.32 0 .2.2 0 0 1-.11 0 1.62 1.62 0 0 0-.69-.15 3.53 3.53 0 0 0-.56.05h-.19a2.22 2.22 0 0 1-.37 0 6.35 6.35 0 0 1-.85-.07h-.45v-2.3-5.4-3.16-4.71c0-1.79 0-3.61.06-5.37v-2.25a42 42 0 0 1 5.39-.23 26.23 26.23 0 0 1 3.49.14v5.62c0 .44 0 .89.07 1.32s.06.79.07 1.19a7.69 7.69 0 0 1 0 .83v1.07a5 5 0 0 0 .15 1.49 1.28 1.28 0 0 1-.05 1zm10.34-7.33v8.44a2.81 2.81 0 0 0 0 .41 4.83 4.83 0 0 1 0 2 1.51 1.51 0 0 0 0 .56 1.1 1.1 0 0 1 0 .18v.36a3.52 3.52 0 0 1 0 .56v5.49a1 1 0 0 1-.55.14 3 3 0 0 1-.42 0 3.42 3.42 0 0 0-.44 0h-.13c-.48 0-1 .06-1.46.07h-2.09a3.26 3.26 0 0 0-.81.1 1.36 1.36 0 0 1-.36.05 5.26 5.26 0 0 1-.67-.07 4.22 4.22 0 0 0-.61-.07h-1.16a1.7 1.7 0 0 1-.28 0h-.07v-.1a1.25 1.25 0 0 1 0-.33 14.23 14.23 0 0 0 0-2.69c0-.53-.07-1.09-.06-1.63a6.54 6.54 0 0 1 .07-.89c0-.33.07-.66.07-1 0-.59 0-1.18-.05-1.76s0-1.17 0-1.76v-1.82-1.69-1.6-1.13-.93V174a.57.57 0 0 0 0-.18.53.53 0 0 1 0-.13v-1.36-3.41a16.88 16.88 0 0 0-.13-2.84 7.38 7.38 0 0 0-.84-2.72c-.16-.28-.29-.57-.42-.85a8 8 0 0 0-.75-1.37 10.12 10.12 0 0 0-3-2.77 11.32 11.32 0 0 0-4.65-1.77l-.68-.08a12.35 12.35 0 0 0-1.61-.15 4.31 4.31 0 0 0-.64 0 11.33 11.33 0 0 0-3.24 1 18.38 18.38 0 0 0-3 1.88 7.94 7.94 0 0 0-2.2 2.61 11.74 11.74 0 0 0-1.24 2.83 9.79 9.79 0 0 0-.29 1.64c-.08.8-.14 1.61-.2 2.4v.79a2.81 2.81 0 0 0 0 .58 22 22 0 0 1 0 3.89 13.75 13.75 0 0 0 0 1.7v10.48a10.16 10.16 0 0 0 .15 2.34 3.06 3.06 0 0 1 0 1.13 5.34 5.34 0 0 0-.05.81V193H161.22l-3.9.1a2.2 2.2 0 0 0-.36 0 1.26 1.26 0 0 1-.27 0H156v-1-2.18-1.64c0-.73-.05-1.48-.05-2.21v-1.55-1.51c0-.51 0-.89-.07-1.32l-.06-1a4.72 4.72 0 0 1 .05-.64v-.28a1.11 1.11 0 0 1 0-.19 1.54 1.54 0 0 0 0-.37v-2.29c0-1.33 0-2.71-.06-4.06v-1.15-1.21c0-.4 0-1.11-.06-1.65s-.06-1.2-.06-1.8 0-.94.06-1.4.06-.89.06-1.34v-1.52c0-.52-.05-1-.05-1.46v-2.93-2.48-1.51-1.48-.94-1-1.06a12.47 12.47 0 0 1 0-1.37c.05-1.24 0-2.49 0-3.71 0-.87-.05-1.77-.05-2.65a10.87 10.87 0 0 0-.1-1.25c0-.17-.05-.34-.07-.52.37-.24.33-.69.3-1.09V137a2.57 2.57 0 0 1 .33.18l2.08 1.41 2.4 1.62.51.31c.15.08.3.16.44.25.35.22.69.46 1 .69l.46.31.17.12L165 143l.52.35c.47.32.95.65 1.45 1a2.28 2.28 0 0 0 .61.24l.31.09a3 3 0 0 0 1.13 1l.32.21 3.59 2.36 2.46 1.6c.67.44 1.33.88 2 1.33l2.06 1.38 2.23 1.44 2.26 1.46c1.09.72 2.13 1.43 3.38 2.29.35.24.7.5 1 .75l.47.36a.3.3 0 0 0 .15.06h.05a1.34 1.34 0 0 1 .87.46 3.47 3.47 0 0 0 .43.35l.51.28a3.2 3.2 0 0 1 .87.57 9.44 9.44 0 0 0 1.91 1.32 9.79 9.79 0 0 1 1.72 1.16 5.45 5.45 0 0 0 1.23.78l.13.07a.85.85 0 0 1 .47.84v5.15c0 .78 0 1.58-.07 2.35 0 .62 0 1.26-.07 1.89a7.55 7.55 0 0 0 .15.79zm.09-13.06a2.08 2.08 0 0 1 0 .4v.1a.6.6 0 0 1-.24-.09c-.41-.27-.81-.55-1.21-.83l-1.57-1.08-.77-.53a24.23 24.23 0 0 0-2.61-1.63 4.71 4.71 0 0 1-.85-.58c-.17-.14-.36-.28-.55-.41-1.19-.77-2.4-1.58-3.56-2.35l-1.16-.77-1.44-1-3-2c-.5-.33-1-.65-1.51-1s-1.11-.7-1.66-1.06c-.94-.61-1.86-1.24-2.79-1.86l-2-1.37-.86-.54c-.46-.28-.93-.57-1.37-.9-1.2-.92-2.5-1.73-3.75-2.53-.95-.6-1.94-1.23-2.88-1.89s-2-1.33-2.92-2l-1.26-.83-.69-.45c-.65-.44-1.32-.89-2-1.31a1.14 1.14 0 0 1-.58-1.13v-1.91-1.4c0-.31 0-.62.08-.95v-.31l.27.11.91.58c1.14.71 2.32 1.44 3.47 2.19.53.35 1.07.73 1.58 1.09s.87.62 1.32.92l4.5 3 2.95 2 1.9 1.27c1 .71 2.13 1.43 3.2 2.13.84.55 1.7 1.1 2.53 1.62s1.85 1.17 2.76 1.77 2 1.32 2.91 2l1.83 1.25c1.48 1 3.24 2.18 5 3.36.34.22.69.44 1 .64s.74.44 1.09.68c1.38.91 2.5 1.69 3.54 2.45a1 1 0 0 1 .31.64 15.07 15.07 0 0 1 .06 1.65v.3c.04.84.04 1.66.03 2.59z" fill="#575757"/></svg>
