<svg xmlns="http://www.w3.org/2000/svg" viewBox="0 0 209.52 173.38"><path d="M99.07 127.63a7.6 7.6 0 0 1-1.5.09 15.53 15.53 0 0 0-1.67 0 9.14 9.14 0 0 0-1.57 0c-.55.07-.06.13 0 .23s-.34.32-.54.26a2.83 2.83 0 0 1-.69-.45.47.47 0 0 0-.4 0c-.23.08 0 .21 0 .29a.26.26 0 0 1-.25.09 3 3 0 0 0-1.73-.17c-.37 0-.66-.25-1.07-.06s-.63.25-.94.37A1.93 1.93 0 0 1 87 128a.64.64 0 0 0-.86 0 .74.74 0 0 1-.85.23.58.58 0 0 0-.53 0 2.2 2.2 0 0 0-.76.77c0 .06.29.46 0 .47-.64 0-.67.56-.81.91-.59 1.44-1.16 2.9-1.65 4.37-.28.85-.8 1.57-1 2.44a6.17 6.17 0 0 0-.38 1.9c0 .34-.12.32-.34.17a1.41 1.41 0 0 0-.18.37 10.64 10.64 0 0 1-.77 2c-.1.31-.29.54 0 .85s-.06.38-.21.51a.78.78 0 0 0-.16 1.19 1.39 1.39 0 0 0 1 .54 2 2 0 0 1 1.34.7c.27.25.46.63.93.6.13 0 .17.18.1.33-.2.39-.34.77.21 1 0 .34.27.74-.22 1-.15.07-.16.21-.15.35a10.45 10.45 0 0 0 .1 1.76c.08.26-.09.58-.09.87v2.53c0 .26-.08.55.32.65.15 0 .11.26 0 .34a.92.92 0 0 0-.31 1 4.67 4.67 0 0 0 .13 1.74c0 .06 0 .25.08.4.33.56.3.77-.13 1.41-.05.08 0 .2-.08.29-.13.3.49.33.28.44s-.27.36-.28.58 0 .49 0 .74v2.84c0 .44-.12.9.18 1.33.08.11 0 .34 0 .51.09.46-.42.88-.16 1.3a2.19 2.19 0 0 1 .14 1.33c0 .56.39 1 .24 1.62a12.64 12.64 0 0 0-.4 1.46 3.46 3.46 0 0 0 .33 1.47c.09.3.17.56-.29.58s-.53.44-.65.73c-.25.59-.41.76-.93.6a.9.9 0 0 0-.7 0 .61.61 0 0 1-.65 0c-.3-.12-.69-.16-.81.34 0 .06-.12.29-.31.15s-.61-.06-.91-.13c-.1 0-.17-.11 0-.19s.5-.12.06-.18a2.11 2.11 0 0 0-1.15.35c-.19.09-.29 0-.17-.26s-.21-.15-.29-.11a2.46 2.46 0 0 1-1.79 0 3.1 3.1 0 0 0-2 .29 7.76 7.76 0 0 1-1.38.3c-.15 0-.39.09-.49-.07-.34-.53-.69-.45-1.08-.08s-.73.27-.83 0c-.19-.45-.51-.24-.78-.3a.51.51 0 0 0-.64.35c-.06.13-.31.11-.47 0a1.29 1.29 0 0 0-1.79 0c-.16.12-.16.12-.44-.2 0 0-.07-.12-.11-.12-.44 0-.91-.12-1.33.12a.78.78 0 0 1-.61.06c-1.16-.41-2.36-.08-3.53-.18-.44 0 0 .32-.16.37a1.73 1.73 0 0 1-.51 0c-.06 0-.24 0-.13-.15s.13 0 .19-.06.11-.11.05-.13a.43.43 0 0 0-.29 0c-.24 0-.5-.15-.71.23s-.11-.36-.44-.25-.56 0-.83 0c-.53.1-1.19-.35-1.57.38 0 .06-.27 0-.41 0a9.51 9.51 0 0 0-2.26.2.48.48 0 0 1-.64-.34c-.09-.22-.36-.5-.57 0a.31.31 0 0 1-.44.14c-.42-.29-.88-.16-1.32-.19s-.3.12-.18.34c0 0-.25.08-.26 0-.05-.45-.48-.3-.7-.46s-.58 0-.87.05a11.75 11.75 0 0 1-1.68 0 5.53 5.53 0 0 0-1.62.19c-.56.14-1.15-.09-1.74.2a1.35 1.35 0 0 1-1.2-.12c-.25-.15-.7-.7-1 .05 0 .08-.1.08-.15 0-.33-.46-.82-.27-1.26-.31s.1.55-.36.42a2.47 2.47 0 0 0-.61 0c-.19 0 0-.32-.29-.31-.81 0-1.56-.38-2.39-.3-.31 0-.79 0-.81-.58 0-.31-.34-.42-.51-.64s-.33-.34-.3-.4c.47-.85 0-.31-.37-1.77a8.66 8.66 0 0 0-.66-1.38c-.2-.28-.32-.66-.16-.87s-.17-.64.31-.66l-.37-.45c-.21-.58 0-.6-.15-1.17 0-.14.29-.45.3-.59s.21-.22 0-.27-.23-.33 0-.37c.37-.09.28-.35.28-.57 0-.63.61-1.09.59-1.72s.39-.93.74-1.41c.16-.23.08-.43 0-.68s-.11-.35.43-.62a1.1 1.1 0 0 0 .38-.33 9.51 9.51 0 0 0 1.42-2.34c.08-.28.32-.28.47-.35.76-.31.95-.51 1-1.26a1.18 1.18 0 0 1 1-.86c.05 0 .15.09.17.08a7.52 7.52 0 0 0 1.52-1.71c.13-.24-.22-.34-.07-.54a2.07 2.07 0 0 0 .31-.42c.31-.73.32-.72 1.14-1.52a.65.65 0 0 0 0-.86c-.18-.26 0-.37.23-.38s.41-.15.28-.29c-.28-.3-.1-.51 0-.74a1.38 1.38 0 0 0 .21-.88.58.58 0 0 1 .34-.6c.12-.06.23-.06.29-.23s-.39-.55-.13-.73.35 0 .34-.31v-3.47a.83.83 0 0 0-.3-.74c-.24-.19-.42-.38 0-.63a.3.3 0 0 0 .09-.37c-.07-.17-.43-.21-.25-.45s.33-.05.15-.32a1 1 0 0 1-.06-.61c.07-.54-.27-1-.26-1.52 0-.14-.46.21-.39-.25v-.73c0-.23.15-.15.21 0s0 .28.15.08a.65.65 0 0 0 0-.51c-.21-.35-.07-.79-.23-1.09s.22-.73-.16-1c-.06-.05 0-.27.06-.39a.88.88 0 0 0 .14-.38c.1-.31-.49-.35-.29-.44s.28-.35.28-.58v-.74a5.79 5.79 0 0 1 .52-2.06 6.22 6.22 0 0 1 1.22-2.13c.28-.27-.18-.24-.16-.28.09-.22 0-.59.37-.59s.53-.31.76-.51.34-.34.1-.61.16-.3.19-.29c.37.18.52-.13.71-.31a11.68 11.68 0 0 1 1.46-1.44c.26-.18.06-.63.57-.69.31 0 .56-.5.86-.73s.61-.32.87-.53a4.77 4.77 0 0 1 1-.59 1.71 1.71 0 0 0 .77-.62 1.11 1.11 0 0 1 1.21-.65.43.43 0 0 0 .29-.07 23.26 23.26 0 0 0 4-2.62c.22-.22 0-.62.45-.69.29 0 .57-.18.88-.22s.53-.39.52-.82.28-.65.39-1c0 0 .11.06.13.1s0 .21.14.19.06-.11.07-.18a.47.47 0 0 0-.1-.39c-.21-.27-.12-.51.12-.73a2.18 2.18 0 0 0 .62-1.68 2.75 2.75 0 0 1 .05-1c.15-.34-.12-.56-.07-.86a1.64 1.64 0 0 0-.33-1.16 5.74 5.74 0 0 1-.71-2.41c-.1-.6-.36-1.16-.47-1.77a7.93 7.93 0 0 1-.15-1.74 5.72 5.72 0 0 1 .19-2.47.22.22 0 0 0 0-.21c-.61-.86.57-1.3.48-2 0 0 .1-.09.16-.1.74-.11 1-.82 1.51-1.21.14-.1.13-.19 0-.34a.48.48 0 0 1 .3-.75 3.13 3.13 0 0 0 1.24-.91 1.43 1.43 0 0 1 1.16-.68 1.1 1.1 0 0 0 .81-.39 8.23 8.23 0 0 1 1.43-1c.49-.33.7-.93 1.22-1.23a.32.32 0 0 0 .12-.52c-.15-.2.08-.37.16-.52s.1.06.15.11 0 .29.16.09a.42.42 0 0 0 0-.39c-.21-.23-.1-.42.1-.48A.69.69 0 0 0 67 90c-.13-.65.49-1.25.06-1.9-.09-.13 0-.33.11-.49a.41.41 0 0 0 0-.49 1.33 1.33 0 0 1-.15-1 10.39 10.39 0 0 1 0-1.58 7.57 7.57 0 0 0 0-1.58c0-.31.16-.7-.34-.85-.13 0-.12-.29-.06-.38.23-.34.15-.83.56-1.07a.49.49 0 0 0 .21-.24c.11-.36 0-.82.17-1.09s.62-.38.74-.78c.06-.18.3-.31.12-.55-.3-.42 0-.56.33-.65.62-.2.64-.18.87-.91.09-.28.32-.54.52-.54.37 0 .42-.27.6-.46.34-.36.63-.79 1.3-.46.37.17.85-.15 1.25-.37.11-.06.29 0 .39-.08s-.17-.19 0-.32.1-.14.15-.14c.64 0 1.31-.36 1.92.06a1.06 1.06 0 0 0 .65.26c.29 0 .36 0 .21-.34 0-.07.26-.1.43.19 0 0 0 .12.07.14.46.12.92.22 1.38.35.17 0 .13-.1.18-.15.23-.22.53-.15.56.14s-.1.41.11.27c.48-.32.72 0 1.1.17a4.83 4.83 0 0 1 .93.81c-.24.53.37.7.45 1.1s.43.54.65.8.23-.12.33 0 .09.27.07.4a2 2 0 0 0 .32 1.17c.57 1.13.79 2.38 1.32 3.52a.88.88 0 0 1 0 .9c-.61.76-.31 1.58-.23 2.38 0 .1.11.22.08.28-.38.7-.11 1.44-.18 2.16a1.88 1.88 0 0 0 0 .53c0 .32.25-.06.34.06s0 .12.06.19c.12.33-.27.6-.15.87s.51.2.57.53c0 .16.37.42-.11.49-.12 0-.11.19 0 .27.16.25.24.57.6.64a1.4 1.4 0 0 1 1.28 1c0 .09.22.13.32.21a9.24 9.24 0 0 1 1.51 1.27.8.8 0 0 0 .71.37.73.73 0 0 1 .78.58c.14.79.87 1 1.27 1.59a.18.18 0 0 0 .08.07c.4.08 1 0 1.11.39a3.19 3.19 0 0 0 .67 1 1.41 1.41 0 0 1 .47 1.22 3.4 3.4 0 0 0 .56 2.16 2.33 2.33 0 0 1 .31.85c.06.42-.53.3-.46.72s.56.22.44.61c0 .13 0 .33-.07.4-.78.66-.56 1.77-1.15 2.51-.24.31.3.59.1.85s-.55.21-.55.54a5.2 5.2 0 0 1-.22 1.42 6 6 0 0 0-.07 2.42 7.21 7.21 0 0 0 .57 2.68 6.08 6.08 0 0 0 1.87 2.21c.34.28.69.57 1 .87s.36.38.7.14.5.12.53.43c0 .55.09.66.45.54s.5-.11.6.21c.17.53.6.77 1 1.09.94.76 2.18 1 3 2 .17.19.49.54.89.22.11-.09.27.1.29.21a1.38 1.38 0 0 0 1.11 1.19c.18 0 .16.2.24.28s.28.67.76.42c0 0 .3.19.27.4a.76.76 0 0 0 .44.87c.43.18-.35.33-.36.68s0 .4.32.2c0 0 .11.18.06.26a2.44 2.44 0 0 1-1.23.74c-.32.09.43.19.12-.06s-.87-.18-1.31-.19a.77.77 0 0 0-.29.07c.06.17.21.1.33.13s.17 0 .17.07-.11.13-.2.13a4.3 4.3 0 0 1-1 0c-.43-.11-.77.33-1.27.06s-.9 0-1.35 0c-.12 0-.29 0-.31-.14 0 0 .2-.06.25-.13s-.07-.14-.12-.14h-1.05zm-53.94 34.58c0-.05 0-.14-.09-.16s-.27-.05-.3.13 0 .12 0 .18l.25-.13h.11c0 .16.12.22.21.31s.13 0 .15 0a.17.17 0 0 0 0-.25 1.34 1.34 0 0 0-.33-.08zm23.19-40.88c-.16 0-.23.12-.32.21s0 .13 0 .15.21.08.25 0a1.05 1.05 0 0 0 .08-.36c.39-.1.14-.42.21-.63.43-.18.16-.5.15-.76h-.06c-.16.17-.06.38-.08.58a1.33 1.33 0 0 0 0 .2c-.41.08-.16.4-.23.61zm-26.13 45.73h-.71a.13.13 0 0 0-.08.06s.07.12.09.12c.24-.06.56.19.69-.2a2.44 2.44 0 0 0 .31-.22.13.13 0 0 0 0-.14.18.18 0 0 0-.26 0 1.05 1.05 0 0 0-.04.38zm1.68-11.17h-.31a.51.51 0 0 0-.49.32s0 .05.06.06c.2.09.3-.11.45-.17s.28 0 .29-.22c.17 0 .32.33.5 0l.08-.16c-.23-.06-.45-.16-.58.17zm31.19-17.49c0-.23-.21-.22-.38-.21s-.19 0-.19.13.11.07.17.07a2.67 2.67 0 0 0 .4 0c0 .13 0 .28.08.37s.31 0 .42-.14.07-.22-.11-.22zm-7.17 20a1.34 1.34 0 0 0-.07-.18c-.19-.35-.4-.05-.59 0s-.09.07-.14.11c.15.14.33.07.49.09s.21 0 .31 0c.08.29.35.42.54.61h.2c.07 0 .1-.08 0-.16s-.35-.52-.74-.45zm-19.38-22.53h-.31a.42.42 0 0 0-.2 0c-.19.09 0 .16 0 .22a1.15 1.15 0 0 0 .22.22c.06 0 .13.21.23 0a.6.6 0 0 0 0-.2v-.31a2.64 2.64 0 0 0 .4 0c.06 0 .17 0 .17-.07s-.1-.13-.19-.13-.29.04-.32.27zM68.1 94.36c-.07-.15.32-.23.07-.4A.19.19 0 0 0 68 94c-.15.17-.11.3.13.36a.47.47 0 0 0 .13.45c.07 0 .12.18.23.11s.29-.2.25-.4a.21.21 0 0 0-.22-.16c-.15.01-.28 0-.42 0zm5.06-6.53v-.71a.19.19 0 0 0-.07-.08s-.13.08-.12.1c.06.23-.19.55.2.68 0 .35 0 .7-.39.84-.08 0-.23 0-.15.15a.35.35 0 0 0 .28.06c.52-.14.59-.44.25-1.04zM62.41 139a1.06 1.06 0 0 0-.09-.37.17.17 0 0 0-.25 0 .17.17 0 0 0 0 .15c.09.1.16.21.32.21 0 .63.11.7.61.63a.21.21 0 0 0 .2-.18c0-.13-.06-.24-.15-.22-.24.09-.41-.13-.64-.22zm16.86-10.3c.2 0 .41 0 .6.08s.36-.19.54-.27a.21.21 0 0 0 .06-.15.41.41 0 0 0-.48 0 .52.52 0 0 1-.55 0c-.28-.11-.11.21-.16.32-.21 0-.3.18-.39.31a.2.2 0 0 0 0 .2c.1.17.17 0 .23 0a.49.49 0 0 0 .15-.49zm-13.49-24c.31.08.5-.19.76-.26.1 0 .17-.19.26-.29-.13 0-.26-.07-.4-.08-.43 0-.63.21-.61.64-.18.07-.41.12-.33.39a.52.52 0 0 0 .23.19c.14-.13.08-.31.09-.48a.41.41 0 0 0 0-.13zm17.5-1.05c-.57-.18-.81.4-1.23.55v.19a.18.18 0 0 0 .26.08 1.48 1.48 0 0 1 .87-.46c.14 0 .08-.23.09-.36.4-.21.25-.55.1-.78s-.29.06-.44.14a.33.33 0 0 1-.2 0 .25.25 0 0 0-.25.12.79.79 0 0 0 .29.08c.3-.01.58-.01.51.42zm-14.54-7c0 .2.16.28.29.38a.18.18 0 0 0 .26 0c.07-.1-.05-.16-.1-.23a.49.49 0 0 0-.46-.13c0-.12-.16-.23-.15-.35 0-.61-.07-.81-.55-.9a.33.33 0 0 0-.28.07.18.18 0 0 0 .08.31c.3 0 .24.26.29.46a.52.52 0 0 0 .62.41zm10.11 0a1.38 1.38 0 0 0 .53 1 .25.25 0 0 0 .19 0c.1 0 .12-.09 0-.14-.35-.22-.3-.77-.76-.88a.54.54 0 0 0-.51-.64c-.51-.07 0 .4-.29.51s-.38.23 0 .37.21.47.12.65-.19.41.2.37c.16 0 .37.07.43-.17s-.11-.19-.23-.27c-.29-.18-.19-.48-.12-.72s.31-.04.44-.06zM77 84.24c-.16 0-.38.06-.42-.19s-.06-.29.08-.39.2-.07.28-.12.32-.27.06-.46-.27-.38-.52-.27-.12.31-.11.47-.17.37-.3.52-.13.19 0 .21.26.14.1.32-.3.13-.14.29a.18.18 0 0 0 .27 0c.15-.29.6.06.67-.35h.4c.13 0 .17 0 .17-.08s-.09-.13-.19-.13-.35-.06-.35.18zm-26.38 70.81c-.1.09-.54-.19-.29.25a.83.83 0 0 1 .07.51c0 .28-.14.37-.39.21s-.67-.27-.78 0 .4.3.63.43a1.31 1.31 0 0 0 .6.06c.47 0 .58-.19.29-.58s-.08-.6-.14-.89a3.62 3.62 0 0 0 .32-.22v-.14a.18.18 0 0 0-.26 0 1.17 1.17 0 0 0-.05.37zm20.13-.6c.15.17.27.12.41 0a2.27 2.27 0 0 1 .47-.41c.13-.07.27-.09.24-.27s-.2-.13-.32-.18a5.18 5.18 0 0 1-1-.45.5.5 0 0 0-.64 0c-.25.14-.4.11 0 .29s.34.31 0 .59a.78.78 0 0 1-1 .12c-.09-.05-.18-.1-.21 0a.21.21 0 0 0 .13.25 1.36 1.36 0 0 0 1.28.14.73.73 0 0 1 .64-.08zm-17.4-18.83a.84.84 0 0 0-.37-.86c-.25-.23-.47-.18-.74 0s-.68 0-1 .26c-.11.09-.32 0-.47-.12s-.35-.48-.56-.15.32.24.34.39c.06.55.61.19.83.49.1.14.42.09.5-.28a.43.43 0 0 1 .8-.11 3.71 3.71 0 0 0 .39.48 1 1 0 0 0 .16.13zm19.16-21.19a.36.36 0 0 0-.26-.4 2.38 2.38 0 0 0-.71-.07c-.53 0-.6.14-.38.63s1 .55 1.29 1c0-.06.08-.14.06-.18a1.5 1.5 0 0 0-.23-.33c-.19-.22-.31-.4.1-.51.05-.02.09-.09.13-.14zm-22.16 58.11a2.38 2.38 0 0 0 1.09-.19c.26-.15.3-.4.21-.49a1.39 1.39 0 0 1-.41-1.23s-.07-.11-.1-.17-.11.13-.1.18c.17.81-.45 1.18-.91 1.63-.05 0-.14 0-.19.07s-.07.08-.11.12a.45.45 0 0 0 .18.07 1.87 1.87 0 0 0 .34.01zm9.56-49.74c.14-.07.55.13.56-.13 0-.54.34-.51.69-.52a.16.16 0 0 0 .18-.19.18.18 0 0 0-.19-.19c-.49 0-1 .36-1.48-.21-.07-.08-.25.1-.32.21s.1.18.2.19.28 0 .31.18-.09.22-.24.26a.36.36 0 0 0-.17.11 1.71 1.71 0 0 0-.13.23l.19.06c.1.01.21 0 .4 0zm-18.84 38.45c0-.11-.47-.49-.52-.44-.49.6-1.58.4-1.82 1.34 0 .11-.28 0-.26.2 0 0 .18.05.28.07a.81.81 0 0 0 .88-.59.69.69 0 0 1 .81-.47 3 3 0 0 0 .52 0s.04-.08.11-.11zm31.86-3.44a.6.6 0 0 0-.06-.19c-.18-.24-.44-.38-.7-.17s-.43.38-.72 0-.45.17-.71.14c0 .34.28.1.41.19s.37.18.53.29c.43.31.78 0 1.15-.13.05.06.07-.08.1-.13zm4.95-.85h-.57a.37.37 0 0 0-.07.13h.08a2.24 2.24 0 0 1 .39.08v.31c.49 0 .57.27.59.71s.4.17.6.16a.43.43 0 0 0 .4-.41.17.17 0 0 0-.18-.19.78.78 0 0 1-.8-.54c-.17-.28-.32-.21-.44-.21zM52.62 134.3c.32.13.47.07.58-.08s.2-.21 0-.2c-.48 0-.49-.33-.59-.63a.33.33 0 0 0-.23-.19c-.1 0-.12.12-.11.22a.31.31 0 0 1-.26.36 2.69 2.69 0 0 0-.62.34c-.05 0-.12.1-.12.15s.12.12.22.12a2.5 2.5 0 0 0 1.13-.09zm25.18-15.36c0-.2-.12-.31-.19-.46a.49.49 0 0 1 .06-.49c.2-.28-.1-.41-.23-.42-.31 0-.28.14-.18.39s-.3.21-.41.4-.1.45.09.51.44.51.8.26c.04-.03.04-.13.06-.19zM66.34 103.8a.47.47 0 0 0 .06-.09c.17-.5.67-.37 1-.48s.22-.41.42-.52c0 0-.07-.12-.11-.12a.55.55 0 0 0-.49.11 2.55 2.55 0 0 1-.41.3c-.3.19-.6.36-.93 0a.43.43 0 0 0-.3 0 .45.45 0 0 0-.18.07s.06.11.1.12c.32 0 .43.34.65.5.07.05.13.07.19.11zm9.47 13.51H76c.11-.42.23-.83.31-1.25 0-.17-.18-.23-.29-.16a1.14 1.14 0 0 1-.56.19c-.17 0-.15.17-.2.3-.19.49.78.33.47.86 0 0 .05.04.08.06zm6.9-3.63c.19-.08.42-.1.56-.32s.09-.46.14-.68.15-.35-.11-.38-.46.14-.35.34c.23.41.06.49-.3.47a.56.56 0 0 0-.54.23.42.42 0 0 0-.08.27c0 .16.16 0 .22 0s.32-.05.46.07zM50.78 148.6c-.06 0-.14 0-.18-.09-.28-.3-.55.05-.82 0s-.3-.05-.38.09a.41.41 0 0 0 0 .48c.07.08.12.28.29.18s.77-.12 1-.52c.02-.04.06-.09.09-.14zm13.85 11.49c.1-.08.09-.16 0-.16a5.46 5.46 0 0 0-.9.07s-.07.23 0 .26c.41.11.48.47.54.79a.72.72 0 0 0 .33.49h.19c.06 0 .08-.07 0-.16-.13-.38-.49-.8-.16-1.29zm7.05-56.46v-.11c0-.4-.77-.87-1.12-.72-.08 0-.13.09-.08.13.31.24.34.69.69.89a.37.37 0 0 0 .51-.19zm-10.55 38.5c-.07-.21-.28-.33-.45-.49s-.14 0-.15.05c0 .39-.76.63-.23 1.14.07.07 0 .34.1.35s.12-.21.11-.33c0-.38.14-.48.48-.46.09 0 .17-.1.14-.26zm8.25 20a.85.85 0 0 0 0 .21c0 .09.07.11.14.06a1.77 1.77 0 0 0 .66-1c0-.08-.14-.23-.24-.31s-.2 0-.23.11c-.1.22-.37.44-.33.88zm6.67-54c.42 0 .53 0 .45-.22s0-.69-.25-1a.22.22 0 0 0-.18-.05c-.06 0-.15.07-.15.11a2.66 2.66 0 0 1-.07.81c-.17.27-.07.29.2.27zM57.6 152.34c-.76-.16-.72.45-1 .77-.06.08-.14.22 0 .23.33 0 .44-.3.66-.46a.84.84 0 0 1 .26-.15c.19 0 .22-.16.18-.3s-.11-.09-.1-.09zm6.74-36.49c.17-.19.52-.4.5-.57a2.13 2.13 0 0 0-.47-.87c0-.06-.28 0-.38 0s0 .16.08.21a.75.75 0 0 1 .12 1c-.11.23.05.19.15.23zm21.52 2a1.25 1.25 0 0 0-.13.59c.22.2.4.38.15.69-.07.08.08.13.18.13s.29 0 .36-.14a1.77 1.77 0 0 0-.48-1.27zm-13.64 7.94c-.18.11-.54-.18-.65.13 0 .11.44 0 .65.11a5.72 5.72 0 0 0 .49.37.29.29 0 0 0 .38-.07.56.56 0 0 0 .06-.29.21.21 0 0 0-.24-.25zm8-34.77c-.38 0-.69.13-.93.11s-.3 0-.24.18c.13.46.35.53.73.29a4.13 4.13 0 0 0 .39-.34c.08-.07.3 0 .24-.18.03-.08-.13-.08-.15-.08zm-19.37 78.9c-.57-.16-.29-.66-.41-1 0-.17-.15 0-.16 0 0 .27-.27.38-.43.55s-.27.35.11.32.38.29.66.22c.13-.01.22-.01.27-.12zm15.42-78.4c0-.09-.12-.2-.09-.26s.18-.23-.06-.27a.49.49 0 0 0-.3 0c-.17.11-.23.75-.13 1 0 .08 0 .2.14.18-.09-.38.59-.25.44-.65zM43 167.85c0-.37.38-.4.53-.65s-.2-.56-.05-.84a.79.79 0 0 0-.13-.08s-.06.05-.06.07c.09.38-.24.54-.37.8a1.48 1.48 0 0 0-.06.6s.05.06.14.1zm31.65-56.11l-.08-.06a3.33 3.33 0 0 0-1.3 0 .2.2 0 0 0 0 .18c.08.26.47.5.64.35s.34-.46.7-.46c.01.04.02.13 0-.01zm6.65-24.12c-.18 0-.32 0-.33.2a4.34 4.34 0 0 0 0 .51c0 .14 0 .28.17.32s.25-.09.34-.18.12-.45.1-.68-.18-.18-.28-.17zm1 26.63c-.17 0-.3.38-.17.5a1.33 1.33 0 0 0 1 .45.16.16 0 0 0 .17-.2c0-.06 0-.16-.09-.16-.35 0-.69-.1-.75-.55-.06-.1-.13-.11-.2-.04zm-9.11 49.24c-.18.17-.58.1-.58.43s.32.12.47.22a2.66 2.66 0 0 1 .31.26c.05 0 .13.08.16.07a.19.19 0 0 0 0-.27.3.3 0 0 1-.05-.34c.08-.24-.16-.31-.35-.37zm7.87-79c-.29 0-.67.27-.61.48s.34.3.51.32c.35 0 .34-.35.43-.56s-.2-.27-.39-.28zm-10.45 47.4c-.17.05-.22.18-.17.25a3.57 3.57 0 0 0 .49.54c.08.07.13.3.31.15a2.16 2.16 0 0 0 .36-.38c.11-.16-.07-.16-.14-.15-.29 0-.44-.16-.62-.32a.68.68 0 0 0-.23-.09zm-24.24 28.64h-.22c-.23 0-.49.07-.5.26s.3.09.45.15.15 0 .19.05.29.16.41 0 .12-.2.09-.27c-.06-.26-.27-.16-.42-.19zM70 124.62c0-.11-.5-.53-.53-.47s-.49 0-.38.3 0 .49.41.47a.65.65 0 0 0 .5-.3zm19.32-1.35s-.09.15-.08.16a2.92 2.92 0 0 1 .57.83s.26 0 .39-.05a.21.21 0 0 0 0-.18c-.2-.42-.57-.55-.92-.76zm-14.85 22.47l.52-.65a.2.2 0 0 0-.06-.33c-.14-.06-.41-.11-.44.08s-.19.49-.25.74.06.18.23.16zm0-17.91c0 .16-.1.4.24.45s.43-.19.67-.24 0-.13 0-.17a2.73 2.73 0 0 1-.55-.25c-.38-.21-.43-.1-.39.21zm5.45-1.47c0-.09-.07-.16-.16-.17a.82.82 0 0 1-.56-.18.16.16 0 0 0-.26 0 .86.86 0 0 0 0 .39c0 .09.18.19.22.13.23-.4.55.22.78-.08a1.13 1.13 0 0 0-.05-.09zM66 97.68c0 .18-.1.48.24.44a1.2 1.2 0 0 0 .53-.26c.07 0-.37-.52-.54-.53s-.23.19-.23.35zm-7 60.74h-.2c-.13 0-.34 0-.33.11s.22.09.35.1.31.31.49.33a.6.6 0 0 0 .5-.2c.07-.13-.14-.29-.29-.33a2.17 2.17 0 0 0-.52-.01zm17.27-21.8v-.07c-.41-.1-.65-.64-1.17-.46l-.18.08c0 .05.07.13.12.16a2.87 2.87 0 0 0 1.11.38s.07-.06.13-.09zM47 166.64c-.34 0-.6.25-.53.49s.23.3.27.29a.84.84 0 0 0 .53-.57c-.02-.19-.19-.2-.27-.21zm12.9-45.94h-.42c-.14 0-.16 0-.16.08s.1.11.18.14.17.12.26.15a.69.69 0 0 0 .73-.09v-.1c-.11-.33-.4-.12-.59-.18zm9 39.83a.52.52 0 0 0-.4.1c-.06.07-.11.16-.17.24l.19.07a1.52 1.52 0 0 1 .38.11c.17.13.24 0 .31-.09a.37.37 0 0 0 .1-.27c.01-.17-.15-.16-.38-.16zm-6.09-47.08a1.55 1.55 0 0 0 .06.43c0 .11.14.26.28.22s.09-.19 0-.27c-.18-.24-.31-.48 0-.7.07 0 .25-.08.19-.14a1 1 0 0 0-.44-.23c-.11 0-.12.1-.12.2zm15.58 16.33c0-.15-.09-.24-.22-.21a.9.9 0 0 0-.53.46c0 .09.08.3.14.44s.13.11.14.05c.08-.33.42-.47.5-.74zm-4.11 32.64h-.52c-.11 0-.2.06-.18.18a.43.43 0 0 0 .13.26c.05.06.11.2.23.09s.38-.41.7-.35c0 0 .08-.07.12-.11a.65.65 0 0 0-.17-.08 1.61 1.61 0 0 0-.28.01zm-13.61-42.84v-.07c-.21-.22-.42-.44-.65-.66 0 0-.11.05-.15.09s-.14.11-.13.15a.89.89 0 0 0 .85.55zm10.79-9a.45.45 0 0 0 .41-.39c0-.19-.12-.21-.26-.23a.45.45 0 0 0-.49.31c-.04.12.16.26.34.3zM83 125.76c-.42 0-.43 0-.63.15s-.22.21-.15.34.27.14.41 0 .22-.28.41-.31a.56.56 0 0 0 .17-.09zm4.67-19.33v-.17c0-.05-.19.08-.29.14a.7.7 0 0 0-.21.21.39.39 0 0 0-.05.27c0 .07.17.09.26.11a.26.26 0 0 0 .33-.14 1.72 1.72 0 0 0-.01-.42zm-42 58.73a3.6 3.6 0 0 0 .49 0 .48.48 0 0 0 .18-.08 2 2 0 0 0-.18-.23c-.21-.16-.46-.08-.69-.08a.17.17 0 0 0-.12.23c0 .06.06.13.11.14a.79.79 0 0 0 .23.02zm27.55-17a.69.69 0 0 0-.2 0l-.27.09c.06.07.12.16.19.23s.46.07.69.07c0 0 .1-.08.12-.14a.19.19 0 0 0-.12-.24 2.8 2.8 0 0 0-.39-.06zm-18.31-10.24a1.89 1.89 0 0 0 .89-.63.17.17 0 0 0 0-.08c-.06 0-.14-.07-.18-.05-.27.15-.6.2-.77.49a.4.4 0 0 0 0 .19s.03.06.06.08zm13.28 14.83c.13-.16 0-.2-.06-.23-.25-.06-.52-.38-.73-.15s.33.24.36.51c0 .09.14.27.27.19s.12-.23.16-.32zm5.23-28.67c-.39 0-.67 0-.83.27v.07a.8.8 0 0 0 .78 0c.09 0 .19-.08.28-.12s.11-.09.06-.14 0 0-.08 0a1.25 1.25 0 0 0-.21-.08zm6.94 1.26h-.1c-.19 0-.35 0-.35.26a2.47 2.47 0 0 0 .06.29l.34-.13a.61.61 0 0 0 .18-.09c.08-.06.21-.16.2-.22s-.21-.09-.33-.11zm-12.76 47c.14 0 .38.08.43-.1s-.2-.26-.32-.39-.21-.15-.21 0-.31.24-.42.4a.71.71 0 0 0 .18.08 1.87 1.87 0 0 0 .34-.01zm-15.51-1l.18-.09c-.2-.18-.16-.44-.23-.66s-.07-.06-.15 0a.52.52 0 0 0-.21.54c.05.19.25.14.41.15zM74 151.69h-.11c-.1 0-.1.08 0 .15s.33.35.5.51.13.22.22 0a.41.41 0 0 0 0-.29c-.08-.25-.41-.21-.61-.37zm-16.53-9.29a.63.63 0 0 0 .65-.24c.05-.08.07-.12 0-.14a.89.89 0 0 0-.68 0c-.08 0-.19.14-.19.22s.15.13.22.16zm16.32-8.4v-.1a1.81 1.81 0 0 0-.77.29.22.22 0 0 0 0 .18.38.38 0 0 0 .47 0 .47.47 0 0 0 .3-.37zm12.13-12.62c-.15 0-.31 0-.31.19s.17.36.36.42.24 0 .25-.22-.02-.46-.3-.44zm-42.64 37.3h.41c.13 0 .27 0 .35-.12a1.72 1.72 0 0 0-.28-.08 1.48 1.48 0 0 0-.42 0c-.22 0-.56-.39-.63.08-.03.16.37.03.57.07zm34 11.38c.24.12.35-.23.6-.24s.06-.17 0-.17-.27-.25-.43-.14a1.9 1.9 0 0 0-.41.44c-.04.05.1.05.24.05zm1.54-15.92c0-.15 0 0-.09-.07a.22.22 0 0 0-.18 0 4.64 4.64 0 0 0-.32.72c0 .07 0 .18.08.27a1.06 1.06 0 0 0 .23-.19c.17-.26.02-.6.28-.78zM89 121.58v-.26c0-.14 0-.28-.1-.38a1.48 1.48 0 0 1-.19.35.58.58 0 0 0-.11.49.17.17 0 0 0 .21.15c.06 0 .15-.05.16-.1a.84.84 0 0 0 .03-.25zm-2.15-14.26s-.07-.09-.12-.1a.51.51 0 0 0-.3 0c-.29.17-.1.54-.3.76.06 0 .16.06.18 0 .14-.18.32-.41.5-.66zm-10.97 52.57h.41c.14 0 .17 0 .17-.07s-.13-.09-.18-.15c-.28-.31-.54-.11-.81 0l-.18.1c.06 0 .11.09.17.1s.28.02.42.02zM54.79 126.7a.75.75 0 0 0-.17-.1.62.62 0 0 1-.42-.4c0-.07 0-.22-.15-.14a.32.32 0 0 0-.06.27.52.52 0 0 0 .64.47c.06-.01.11-.07.16-.1zm-7.14 25.15s-.06-.14-.11-.15-.7.39-.68.52 0 .05.09.06a.92.92 0 0 0 .7-.43zm12.64-28.43c-.07-.23-.19-.42-.48-.38a.17.17 0 0 0-.12.23c.09.18.19.36.43.36s.17-.07.17-.21zm23.3-.36l-.09.06c-.28.18-.23.47-.22.75 0 0 .06.11.1.17.1-.21.22-.41.31-.63a.28.28 0 0 0 0-.2.44.44 0 0 0-.1-.15zm-9.4 30.73c.16 0 .36 0 .38-.12s-.16-.21-.28-.27a.44.44 0 0 0-.3 0c-.1 0-.21.07-.17.21s.05.14.1.16a1.47 1.47 0 0 0 .27.02zM59.4 133.72c.08-.12.28-.16.2-.33a.53.53 0 0 0-.62-.24c-.1 0-.13.08-.08.13s.26.38.5.44zm6.68-1.21c-.09.24-.4.13-.48.35a.19.19 0 0 0 .12.25.74.74 0 0 0 .39 0c.15-.08.09-.25.09-.38s-.07-.14-.12-.22zm15.24-36a1.58 1.58 0 0 0 .31 0c.12 0 .14-.11.06-.2s-.19-.24-.35-.19-.35.18-.53.27c0 0 .06.12.1.12a2.84 2.84 0 0 0 .41-.05zm-4.59 2.76l-.16.08c.27.17.06.54.3.72h.19a.11.11 0 0 0 .08-.07.9.9 0 0 0-.41-.78zm-16 69.31h.32c.15 0 .28 0 .26-.23a.14.14 0 0 0 0-.09.17.17 0 0 0-.27-.05.76.76 0 0 1-.58.18s-.06.07-.09.12a.19.19 0 0 0 .08.07zm7.34-68a.4.4 0 0 0 0-.11l-.07-.37a.21.21 0 0 0-.11.24.68.68 0 0 1 0 .2.88.88 0 0 1-.12.17c-.1.17-.13.36.13.36s.16-.31.21-.48a.34.34 0 0 0-.01-.1zm-.66 1.25H67a.18.18 0 0 0-.18.19c0 .2.12.21.26.21a.66.66 0 0 0 .28 0c.11-.06.24-.14.21-.28s-.13-.21-.13-.21zm6.12.41c.33 0 .48-.09.42-.25a.2.2 0 0 0-.21-.16c-.22 0-.62.22-.57.31s.26.01.39.01zm7.57-12.67h-.07a1.46 1.46 0 0 0-.48.85s0 .08.06.07a.26.26 0 0 0 .15-.07c.14-.22.27-.45.39-.68.03-.03-.03-.11-.05-.17zM86.81 105v-.07c-.29-.15-.57-.31-.88-.44-.12-.05 0 0 0 .07a.25.25 0 0 0 0 .19c.26.13.48.37.81.33-.04.01.01-.08.07-.08zm-18.06.31c-.16 0-.23.1-.21.22s.18.36.31.35.31-.18.47-.29zm-27.91 63.5a1.07 1.07 0 0 0-.94.14c-.07 0-.22 0-.16.15s.18.05.27.06c.25 0 .39-.29.66-.21.08 0 .2 0 .17-.13s-.12-.05 0-.01zM78.4 86.24c-.11-.12-.19-.3-.38-.3s-.22.2-.22.36.07.26.24.24a.56.56 0 0 0 .36-.3zm-16.23 23.83c-.05 0-.12-.12-.15-.1-.21.09-.42.19-.62.3a.22.22 0 0 0 0 .2.19.19 0 0 0 .16.09c.31-.02.44-.32.61-.49zm11.89 25.37h-.3c-.1 0-.17.07-.16.21a.19.19 0 0 0 .18.19c.13 0 .27 0 .38-.06s.2-.15.2-.22-.18-.09-.3-.12zm-28.37 20.23a.93.93 0 0 0 .21 0c.13-.1.08-.26.07-.39s.34-.25.06-.37-.23.17-.31.31-.19.21-.14.36.08.05.11.09zm39.59-39.37a.5.5 0 0 0-.1.17.6.6 0 0 1-.4.43c-.08 0-.22 0-.16.15a.35.35 0 0 0 .28.06.53.53 0 0 0 .48-.65s-.07-.1-.1-.16zm1.84.87c-.07.11-.29.2-.18.3s0 .46.3.39a.32.32 0 0 0 .23-.4c-.05-.13-.14-.3-.35-.29zm-14.72 21.4l.46-.22c.11-.06.08-.18 0-.27a.18.18 0 0 0-.27-.07c-.14.09-.3.19-.31.39s.1.12.12.17zm-27.32 0h.31c.12 0 .32 0 .31-.12s-.22-.09-.35-.09h-.62c-.06 0-.17.06-.16.08s.11.12.21.12.22.05.3.05zm7-6.31c-.27 0-.43.06-.38.28s.19.19.28.29l.3-.48zm19 8.2c0-.21 0-.35-.16-.39s-.26 0-.25.21-.06.36.2.38.13-.09.18-.16zm-9.37.64c.07-.12 0-.19 0-.19a3.88 3.88 0 0 0-.59 0c-.1 0-.1.07 0 .14s.22.29.4.23a.7.7 0 0 0 .16-.14zm3.25-13.91c.18 0 .48.13.55-.14 0-.08-.35 0-.55-.07a1.88 1.88 0 0 0-.41 0c-.06 0-.11.06-.17.09s.1.1.15.1a3 3 0 0 0 .4.06zM55 142.2c.11-.07.39.12.31-.2a.31.31 0 0 0-.32-.22.33.33 0 0 0-.31.24c-.02.3.25.1.32.18zm-1.59-11.6c.07-.15.33-.18.31-.44 0-.11-.07-.2-.21-.17s-.21.38-.35.54zm-.58 13.57a.59.59 0 0 0-.62-.29c-.13 0-.12.13 0 .22a.51.51 0 0 0 .56.19s.07-.08.1-.12zM38.34 167s-.08-.1-.13-.1c-.2 0-.44-.07-.45.25a.54.54 0 0 0 .07.29c.05.02.49-.36.51-.44zm44.75-70.3a.42.42 0 0 0 .42-.11c.06-.07.17-.12.1-.23s-.12 0-.18-.06a.38.38 0 0 0-.38.12c-.06.07-.18.12-.11.23s.12 0 .15.01zm-4.77 2.59c-.16.13-.1.31-.09.47s-.09.33.16.23a.37.37 0 0 0 .24-.32c0-.14-.25-.45-.31-.42zm11.43 1.5a.39.39 0 0 0-.4 0c-.17 0-.19.18-.17.33s0 .15 0 .19.17 0 .23-.09.32-.28.34-.47zM68.1 167.35c0-.14 0-.27-.14-.22a1.14 1.14 0 0 0-.37.17c-.06.06-.12.21-.09.27a.22.22 0 0 0 .35.05 3 3 0 0 0 .25-.27zm-27.84.4a.18.18 0 0 0-.13-.24c-.15 0-.36-.07-.45.1a.19.19 0 0 0 .17.28c.15 0 .35.11.41-.14zm4.35-8.07c.07-.06.31.09.22-.17a2.46 2.46 0 0 0-.23-.42c-.13.11-.3.19-.29.4s.15.19.3.19zm27.87-47c.13-.06.36.1.39-.14 0-.08-.17-.23-.29-.26a.31.31 0 0 0-.39.25c-.04.24.18.12.29.17zm6.59-19.61c-.07 0-.2.1-.15.13s0 .45.3.41c.1 0 .22-.19.24-.3s-.18-.21-.39-.22zm-16 21.58c0-.12 0-.27-.2-.27s-.22.19-.22.36.08.25.24.23.16-.15.16-.3zm8.87-24.1a.21.21 0 0 0-.18-.19c-.15 0-.27 0-.26.21s-.06.36.2.37.17-.11.22-.37zM62.72 170h.2l.28-.09a.18.18 0 0 0-.22-.11c-.2 0-.32-.11-.47-.19s-.23-.05-.26.06.1.18.18.23a1.24 1.24 0 0 0 .29.1zm19.68-49.5c-.18 0-.33 0-.36.14s0 .27.21.26.36.06.37-.2-.13-.19-.22-.2zm-4.2 32c0-.19-.13-.21-.26-.22s-.29 0-.33.14a.19.19 0 0 0 .2.26c.19.04.34.09.39-.14zM80.13 83c-.07-.11.1-.36-.18-.31-.1 0-.21.18-.24.29a.34.34 0 0 0 .26.38c.26-.02.09-.28.16-.36zm-34.85 64c0-.13-.09-.14-.19-.13s-.36 0-.3.11a1.5 1.5 0 0 1 .14.58s.08.07.13.09a.13.13 0 0 0 .06-.08c.02-.23-.02-.45.16-.57zm25.77 21c-.08 0-.14-.1-.18-.1a.45.45 0 0 0-.43.45s.06.09.1.13zm-30.95 3.47a.62.62 0 0 0 .37-.32.25.25 0 0 0 0-.19c0-.09-.08-.08-.15 0l-.36.37c-.07.06-.05.11 0 .14zm7-.39c-.09.11-.39-.18-.41.12 0 .13.3 0 .46.06a1.51 1.51 0 0 0 .3 0 .5.5 0 0 0 .17-.1.7.7 0 0 0-.17-.09 2 2 0 0 0-.34.01zm25.43-90.64l.18-.08-.12-.16a.5.5 0 0 0-.56-.15l-.08.06.48.31s.06.01.1.02zm-24.07 83.64c-.09.12-.15.16-.15.21 0 .21.15.3.28.4a.24.24 0 0 0 .2 0c.15-.06.05-.15 0-.22s-.21-.25-.33-.39zm7.59-23.14h-.2c-.13 0-.33 0-.32.1s.22.09.35.09h.5l.07-.06s-.06-.11-.1-.12a1.5 1.5 0 0 0-.3-.01zm16.47 19.35a.6.6 0 0 0-.33-.37H72c-.06 0-.07.09 0 .16l.37.36c.06.06.11 0 .15 0a.4.4 0 0 0 0-.15zM61 157.36c.25 0 .38-.11.51-.28v-.07c-.19-.13-.31 0-.45.11h-.09c-.08 0-.22 0-.14.15s.11.07.17.09zm5.77-2.87l-.19-.07a.46.46 0 0 0-.45.19.6.6 0 0 0-.08.16c.06 0 .14.07.19 0a3 3 0 0 0 .45-.21s.05-.03.08-.07zm-3.32-1.74a.17.17 0 0 0-.16-.21.37.37 0 0 0-.38.26c-.07.13.08.13.16.13s.34.07.38-.18zm-4.88-6.27c-.21-.1-.07-.42-.33-.48h-.1a.51.51 0 0 0-.09.12c.16.13.1.4.32.48a.18.18 0 0 0 .1 0s.06-.08.1-.12zm-6.09 2.18c0-.19-.24-.13-.39-.13s-.23 0-.13.15.2.27.4.23.15-.1.12-.25zm11.61-.31c0-.15-.06-.25-.23-.25s-.34 0-.33.09a.41.41 0 0 0 .34.31c.13.02.18-.05.22-.15zm10.82-27.66c.14 0 .14-.09.07-.17l-.37-.36c-.08-.08-.12-.08-.15 0a.32.32 0 0 0 .13.36c.1.12.2.22.32.17zm17.71 3.61c-.2 0-.3.1-.4.23s0 .16.11.17.34.07.41-.16a.21.21 0 0 0-.12-.24zm-24.71.2l-.2.1a.88.88 0 0 1 .49.46s.11-.09.11-.19-.03-.42-.4-.37zm10.94.26c0-.11 0-.25-.13-.2a.38.38 0 0 0-.27.38.16.16 0 0 0 .19.17c.26-.02.19-.22.21-.35zm-13-10.4c.09 0 .18-.07.17-.2s-.18-.27-.31-.37a1.22 1.22 0 0 0-.1.24c-.04.17-.03.34.21.33zm11.65 11.17a.66.66 0 0 0 .2 0c.09 0 .18-.06.27-.09a.84.84 0 0 0-.25-.09 4.14 4.14 0 0 0-.61 0s-.06.08-.09.13a.32.32 0 0 0 .08.06zm-1.21-12.28a.52.52 0 0 0-.36-.33c-.08 0-.25 0-.16.12s0 .43.29.41c.08-.01.15-.13.23-.2zm2.06-8.78c.12 0 .42.06.41-.08s-.3-.08-.47-.12a.76.76 0 0 0-.3 0c-.06 0-.1.06-.15.1a.53.53 0 0 0 .17.08 1.81 1.81 0 0 0 .34.02zm-7-4l.52-.49s-.11-.09-.15-.09a.49.49 0 0 0-.43.39c-.03.01.03.08.05.15zm7.09 31.19a.72.72 0 0 0 0-.21.26.26 0 0 0-.11-.12c-.08.06-.22.14-.21.2a1.5 1.5 0 0 0 .12.45s.06.08.07.07.13 0 .13-.09a1.51 1.51 0 0 0-.01-.34zm-29 .66a.48.48 0 0 0 .53-.28v-.07c-.24-.17-.35.12-.54.15s-.22 0-.14.15.06 0 .1.01zm24-39.19c.25 0 .4 0 .38-.25a.16.16 0 0 0-.21-.15c-.18 0-.27.17-.36.3zm3.16-11.17c.25 0 .41 0 .38-.25a.17.17 0 0 0-.21-.15c-.19 0-.27.17-.36.31zm1.71 2c.11.11.24.08.37.08a.21.21 0 0 0 .2-.28.18.18 0 0 0-.23-.12.48.48 0 0 0-.39.36zm1.43 1.76s0-.15-.09-.16-.34.6-.3.7.08.07.16 0a.55.55 0 0 0 .18-.55zM54 133.39a.2.2 0 0 0 .24.15c.16 0 .34.08.48-.06s0-.11-.06-.12a1.41 1.41 0 0 0-.44-.14c-.05 0-.14.12-.22.17zm-3.84-.09c0-.19-.21-.15-.36-.16s-.23 0-.2.12a.39.39 0 0 0 .38.27c.12 0 .2-.05.2-.23zm29.51-49v-.2c0-.1 0-.2-.13-.18s-.06.11-.07.17a1.79 1.79 0 0 0 0 .4.38.38 0 0 0 .08.17.39.39 0 0 0 .1-.16.69.69 0 0 0 .04-.23zm-33.73 74.04c-.09-.16-.18-.3-.37-.33a.83.83 0 0 0-.18.07c.08.16.17.3.36.32s.12-.04.19-.06zm42.57-44.91c-.05 0-.1-.09-.15-.09-.2 0-.29.13-.38.27s0 .11.07.12.46-.19.46-.3zm-47.3 58c.18 0 .34 0 .32-.26 0 0-.09-.09-.12-.08a1.52 1.52 0 0 0-.43.24s.13.16.23.15zm4.51-.33s-.07-.07-.09-.07a.45.45 0 0 0-.2 0c-.14.1-.07.25-.07.38s.06.11.09.16zm7 .35c-.11 0-.16.07-.17.18a.17.17 0 0 0 .16.21c.17 0 .25-.07.23-.23a.17.17 0 0 0-.25-.11zm3.37-3.11a3.48 3.48 0 0 0-.3-.26.31.31 0 0 0-.19 0c-.17.1 0 .16 0 .22a.33.33 0 0 0 .33.16s.07-.01.13-.07zm31.26-54.16c-.16 0 .08-.3-.21-.18-.09 0-.21.14-.21.22s.11.18.2.22c.23.16.09-.09.19-.21zm-19.87 41.5l-.13-.16-.23.21a.19.19 0 0 0 0 .28c.1.11.17 0 .23-.09s.08-.17.13-.24zm21.89-41.09a.69.69 0 0 0 .2 0c.06 0 .16 0 .16-.07s-.09-.12-.18-.12h-.4c-.13 0-.1.06-.15.1a1.51 1.51 0 0 0 .17.1zm-7.46.86c-.09 0-.1-.28-.29-.14a.84.84 0 0 0-.2.23.46.46 0 0 0 .48.07c.1-.02.1-.08.01-.16zm-2.66 2.39l-.54-.24c0 .06-.06.13 0 .18.06.24.26.16.42.17s.05-.07.12-.11zM53.93 155a.22.22 0 0 0 .25-.13v-.38c-.26-.08-.1.23-.24.3s-.15.21-.01.21zm14.37-36.18c-.12 0-.17.07-.18.18a.16.16 0 0 0 .16.2c.16 0 .24-.06.22-.22a.16.16 0 0 0-.2-.16zM56.63 154s-.1.09-.11.14c0 .21.16.29.3.39s.09-.08.1-.13c.01-.17-.16-.25-.29-.4zm-13.41-.24c0-.13 0-.18-.15-.21s-.21 0-.22.13 0 .27.19.26a.18.18 0 0 0 .18-.14zm40.69-59l-.09-.18s-.06 0-.07.06a4.73 4.73 0 0 0-.23.45.32.32 0 0 0 .08.06.43.43 0 0 0 .2 0c.14-.08.1-.23.11-.36zm-4.81.41l-.22.1c.15.08.29.17.44.24s.14-.07.14-.15-.16-.16-.36-.16zm-2.1.67c-.12 0-.26 0-.23.12s.13.25.28.23a.33.33 0 0 0 .25-.19c.02-.25-.18-.13-.3-.16zM47.58 163.9a1.66 1.66 0 0 0 .32 0c.06 0 .1-.07.15-.1s-.12-.1-.17-.09-.46-.11-.56.08.17.09.26.11zm-4.14-1.25c-.12 0-.18.06-.19.18s.12.22.26.2a.17.17 0 0 0 .13-.22.17.17 0 0 0-.2-.16zm25.7 6.74c0-.13 0-.18-.16-.2a.17.17 0 0 0-.22.13c0 .14 0 .26.2.25a.18.18 0 0 0 .18-.18zm3.16-70.18c.11 0 .35.08.36-.14s-.23-.07-.36-.07-.33 0-.34.1.19.11.34.11zm-27.86 63.3a2.47 2.47 0 0 1-.36-.19c-.1-.06-.17-.06-.19.07s0 .16.06.17a1.27 1.27 0 0 0 .39.06s.07-.07.1-.11zm13.66-1.33c-.1 0-.11-.27-.3-.14a.75.75 0 0 0-.19.23c.13.14.3.11.47.07s.11-.08.02-.16zm6.63-58.73a2.62 2.62 0 0 0 .39.32h.18a.42.42 0 0 0-.33-.34s-.12-.01-.24.02zM36.3 168.73h.1l.27-.08a1.63 1.63 0 0 0-.25-.1h-.3c-.1 0-.18 0-.19.12s.11.06.17.07a1.33 1.33 0 0 0 .2-.01zm41.67-9a.56.56 0 0 0-.19-.07.49.49 0 0 0-.36.32c.06 0 .12.07.18.07s.28-.13.4-.28zm9.11-54a.34.34 0 0 0 .1 0l.27-.1a1.28 1.28 0 0 0-.24-.11h-.3c-.1 0-.19 0-.19.13s.1.06.16.07a.67.67 0 0 0 .2.02zm-40.69 53.69s-.1-.11-.11-.1-.31.19-.29.4c0 0 .1.12.11.11s.3-.19.29-.41zM76 170.59a.35.35 0 0 0 .3-.25c0-.1-.12-.13-.21-.11s-.31-.09-.28.14c-.03.08.09.15.19.22zm-2.35-57.46s-.13 0-.19.06.13.3.19.45.09.09.15 0a.41.41 0 0 0-.19-.51zm-13.79 27.48a.65.65 0 0 0-.16-.09c-.2 0-.29.14-.38.27s0 .11.07.13.47-.2.47-.31zm.46-8.33c.11 0 .15-.06.17-.17a.17.17 0 0 0-.13-.22c-.14 0-.26 0-.25.2s.07.18.21.19zm-13.51 8.5a.22.22 0 0 0-.13-.25h-.38c-.03 0 .13.12.21.17s.18.3.3.08zm18.1-7.78c0-.18 0-.29-.11-.31s-.36 0-.38 0c-.09.25.23.1.3.24s.16.19.19.07zm4.37-4.28c-.16 0-.1.22-.18.32s-.22.13 0 .23a.21.21 0 0 0 .19 0c.14-.08.13-.23.12-.37a.76.76 0 0 0-.13-.14zm-15.69 10.09c-.05.31 0 .44.25.42s.11-.08.07-.14l-.24-.44c-.04.08-.09.17-.08.16zm17.29 6.11c.1 0 .18-.08.16-.21s-.06-.17-.18-.18-.23.12-.2.25.11.15.22.14zM50 127c-.09 0-.23.09-.2.11a1.58 1.58 0 0 0 .44.24s.11-.05.11-.09c.05-.26-.12-.26-.35-.26zm1.18 6.6a2.43 2.43 0 0 0-.3-.26h-.19c-.05 0 0 .16 0 .22a.33.33 0 0 0 .33.16s.14-.04.19-.1zm10.95-8.49s-.12.11-.11.12.2.29.4.27c0 0 .12-.09.11-.1s-.17-.27-.37-.27zm-11 24.45s-.09.11-.08.13.18.28.38.27.14 0 .15-.09-.28-.31-.4-.29zm6.37 1.25h.21c.06 0 .16-.05.16-.08s-.09-.14-.18-.13h-.41s-.1.07-.14.1a.51.51 0 0 0 .16.09.69.69 0 0 0 .25.04zm10.7-14.7l.29-.11-.28-.31-.28.3zm5.14-15c-.1 0-.15.06-.17.18a.17.17 0 0 0 .17.2c.16 0 .24-.06.22-.23s-.08-.14-.22-.12zm-22.92 31.4a.34.34 0 0 0 .1 0c.09 0 .18-.06.27-.09a.77.77 0 0 0-.25-.1h-.3c-.1 0-.19 0-.19.13s.11.06.17.07a1.33 1.33 0 0 0 .2-.01zm20.37-.51c0-.13-.11-.15-.2-.13s-.3-.06-.32.13.12.18.21.21.22-.09.31-.21zm18.62-29.76c0 .11-.28.12-.14.31s.2.21.23.19.11-.23.09-.37 0-.22-.18-.11zM65.77 151c.13 0 .18-.05.21-.16s0-.21-.13-.22-.28 0-.26.2.06.18.18.18zm18.54-28.24c0-.1 0-.15-.15-.17a.18.18 0 0 0-.23.13c0 .14 0 .26.2.25a.18.18 0 0 0 .18-.18zM39 170.91a.67.67 0 0 0-.48 0c-.1.05-.11.1 0 .12a1.2 1.2 0 0 0 .38 0s.03-.03.1-.12zm2.76-6.29a.87.87 0 0 0-.26-.08c-.09 0-.23 0-.26.06s.07.13.14.13a.34.34 0 0 0 .36-.11zm13.92 7.43c0-.09-.09-.12-.14-.07s-.2.15-.2.22.13.12.21.1.11-.15.11-.25zm-17.75-7.23a.45.45 0 0 0-.46 0c-.11 0-.11.09 0 .12a1.58 1.58 0 0 0 .38 0s.03-.08.06-.12zm39.2 6.18c0-.06-.08-.13-.12-.13s-.27 0-.25.2a.41.41 0 0 0 .07.17zm-6.39-75.15c0 .07-.09.13-.09.18s.12.21.25.21.1-.1.09-.11a2.18 2.18 0 0 0-.25-.28zM70 132.19s-.09-.1-.14-.1-.28-.08-.36.06.06.13.14.14a.37.37 0 0 0 .36-.1zM63.7 140l-.12-.26a.36.36 0 0 0-.11.35c0 .1 0 .21.13.17s.07-.2.1-.26zm14.49-5.34h-.44s-.09.11-.08.12.26.06.39.07.06-.12.13-.23zm-11 2.82c-.08-.11-.15-.23-.3-.24s-.06.12 0 .18a.17.17 0 0 0 .21.16s.07-.1.12-.14zm1.81 29.6a.16.16 0 0 0-.21.15v.18s.23-.11.29-.24zM71 94l.27-.12a.37.37 0 0 0-.36-.11c-.09 0-.21 0-.17.13s.13.03.26.1zm-12.6 76.75a1.2 1.2 0 0 0-.19-.1c-.18 0-.21.12-.2.25s.1.11.1.1zm16.38-78.47c-.06 0-.13.09-.13.13s0 .25.21.24.11-.05.16-.07zm.85-8.28s-.06-.12-.1-.12a1.55 1.55 0 0 0-.37 0c-.1 0-.09.09 0 .12a.48.48 0 0 0 .47 0zm-26.5 53.38c.17 0 .21-.11.2-.25s-.1-.1-.1-.09l-.27.26zm-1.28 1.28c.08 0 .18 0 .16-.12s-.17-.09-.25-.09a1 1 0 0 0-.27.1c.08.09.21.06.36.06zM80.49 89s-.09-.1-.13-.1-.29-.08-.37.06.07.13.14.14a.37.37 0 0 0 .36-.1zm-5.23-1.65l-.12-.09-.26.28a1.22 1.22 0 0 0 .17.07c.19 0 .2-.13.21-.27zm-14.79 46.41c.13 0 .26 0 .24-.21s-.05-.11-.07-.17l-.28.26zm1.08 36c.08 0 .18 0 .16-.13s-.16-.08-.25-.08a1.43 1.43 0 0 0-.27.09c.08.18.21.15.36.16zm4.23-31.55c0-.14 0-.26-.21-.25a.36.36 0 0 0-.17.07l.26.27zm-4 32c0 .17.13.2.26.19s.09-.11.08-.12l-.28-.25zm14.51-32.47c0-.19-.14-.2-.27-.19s-.08.11-.08.12a3.36 3.36 0 0 0 .29.24zM71.68 85a.53.53 0 0 0-.23-.07c-.1 0-.2.07-.17.2a.44.44 0 0 0 .1.15zm16.76 22.46c0 .08-.09.14-.09.19s.12.21.25.2.1-.1.09-.1a3.23 3.23 0 0 0-.25-.32zm-27.69 51.7l-.12-.26a.38.38 0 0 0-.11.36c0 .1 0 .21.13.17s.07-.2.1-.3zm2.92-50.24c.17 0 .21-.12.2-.25s-.1-.11-.1-.1a3.19 3.19 0 0 0-.26.26zm20.86 3.6l-.08-.19-.29.29a.53.53 0 0 0 .17.08c.12-.01.18-.09.2-.21zm-20.24 33.05h-.45s-.09.11-.08.12.25.05.39.06.06-.07.14-.18zm4.9 12.56l.3.26a1.19 1.19 0 0 0 .08-.16c0-.18-.1-.23-.25-.21s-.07.06-.13.11zm-11.45-31.21c-.05 0-.09-.1-.14-.1s-.29-.08-.37.06.08.12.14.13.27-.01.37-.09zM63 147.38s-.06-.12-.09-.12a1.58 1.58 0 0 0-.38 0c-.09 0-.08.09 0 .13a.41.41 0 0 0 .47-.01zm7.43.07l-.07-.16a3.45 3.45 0 0 0-.28.26s.06.1.1.11.23-.03.23-.21zm-8.22 8.78c-.08 0-.12-.1-.18-.11s-.19.06-.2.17 0 .12 0 .19zm7.65-41.84c-.14 0-.26 0-.25.21a1.22 1.22 0 0 0 .07.17l.28-.27a.44.44 0 0 0-.12-.11zm-2.13 40.66c.15 0 .3 0 .33-.13 0 0-.1-.07-.16-.07s-.26 0-.36.08zm-22.59-3c-.06-.05-.1-.12-.14-.12s-.27 0-.25.2.05.11.07.17zm8.78 1.84a4.53 4.53 0 0 0-.41-.22s-.13 0-.13.07 0 .27.19.27a1.91 1.91 0 0 0 .33-.15zM67.67 121a.46.46 0 0 0-.19-.09c-.17 0-.21.11-.2.25s.1.1.1.09zm11.8-25c-.18 0-.19.13-.18.26s.11.08.12.07.15-.18.23-.27zm-5.13 67.4c-.09 0-.24 0-.25.1s.08.12.17.12.25 0 .34-.11zm-33.22.22c0-.18-.14-.19-.27-.18s-.08.11-.08.11l.28.25zm12-32a.58.58 0 0 0-.48 0c-.1 0-.11.1 0 .12a1.58 1.58 0 0 0 .38 0s.03.04.08-.02zm28.53-33s.09.1.14.1.29.08.37-.06-.07-.12-.15-.13a.37.37 0 0 0-.38.14zm-29.8 43.64s-.09-.1-.13-.1-.29-.08-.37 0 .07.13.14.14.24.13.34.01zm-10.92 19.8a.58.58 0 0 0-.19-.1c-.18 0-.22.12-.21.26s.1.1.11.09zm35.17-18.61c0-.18-.14-.2-.27-.19s-.08.12-.07.13l.28.23zm-31.81 17.71c.16 0 .2-.13.2-.27a.27.27 0 0 0-.11-.09c-.09.08-.17.18-.26.27zm36-59.53c-.07 0-.13-.09-.18-.09s-.22.11-.21.25.1.1.1.09a3.23 3.23 0 0 0 .31-.25zM46 144.32l-.17.07.26.27s.11-.06.11-.09-.06-.26-.2-.25zm16.43-40l-.07-.18-.3.29a.87.87 0 0 0 .17.07c.1-.03.16-.11.17-.23zm-19.19 56.41c.16 0 .2-.12.19-.26s-.1-.1-.1-.09a2.29 2.29 0 0 0-.27.27zM68.05 145c-.1-.12-.24-.09-.36-.08s-.23 0-.12.14.24 0 .36 0 .07 0 .12-.06zm-14.28.34c0-.17-.12-.21-.26-.2s-.1.1-.1.11l.27.26zm18.49 14.19a.47.47 0 0 0-.47 0c-.1 0-.1.1 0 .12a1.69 1.69 0 0 0 .38 0s.06-.06.09-.1zm-21.18-13.87s.09.1.13.1.29.08.37-.06-.07-.12-.14-.13-.26-.02-.36.09z" fill="#adce54"/><path d="M135.55 87.09c1.38-.5 3 1.67 4 3.61 2.5 2.88 4.77 6 7.14 8.94 1.51 1.89 3.07 3.73 4.57 5.62 2.15 2.71 4.23 5.48 6.43 8.16 1.33 1.62 2.47 2.44 4.18 4.7.81 1.06 1.56 2 1.53 2 2 3.48 3.94 5.31 6.38 8.46.67.86 1.37 1.08 1.37 2.54 0 .62-.91.78-1.13 1s-.42-.07-.62-.13c-.68-.18.72-.9.32-1.44-1.51-2-3.2-3.81-4.63-5.84a47.87 47.87 0 0 0-3.27-4c-1.14-1.29-2.06-2.74-3.18-4-1.55-1.81-3-3.71-4.44-5.57-2.67-3.38-5.31-6.77-8-10.13-2.49-3.12-5-6.2-7.52-9.3-.84-1-3.53-1.18-4.38-.09-1.62 2.06-3.23 4.13-4.87 6.18-2.34 2.91-4.65 5.86-7 8.8-1.88 2.39-3.82 4.73-5.59 7.22-1.39 2-3 3.76-4.51 5.65-1.72 2.17-3.4 4.37-5.09 6.55-.63.81-1.25 1.61-1.89 2.39-.26.31-.07 1.62-.12 2a25 25 0 0 0-.16 4.89c0 .46.24.6.67.59h5.35c2.34 0 4.69-.06 7 0 3.19.1 6.38 0 9.57 0 1.85 0 3.71.1 5.56 0 2.4-.11 4.82-.1 7.21-.06 2.56.05 5.11 0 7.67.07a22.76 22.76 0 0 0 3.78-.13 13.4 13.4 0 0 1 2.28.07c2.45.07 4.89 0 7.34 0 .93 0 1.89 0 2.83.05 2.15-.28 2.59.45 2.21 3.71-.13.42-.61.45-1 .43-2.36-.09-4.72-.05-7.08-.1-2 0-3.92 0-5.88.06a30.73 30.73 0 0 1-3.46 0 29.57 29.57 0 0 0-3.12.05 18.91 18.91 0 0 1-4-.1 17.87 17.87 0 0 0-2.19.07c-1.73-.08-3.48.16-5.2 0s-3.42.07-5.13 0c-2.19-.08-4.4 0-6.6 0a29.22 29.22 0 0 1-3.24-.1c-1.22-.14-2.44.21-3.67.13-3-.2-5.92 0-8.88 0h-.63c-.7-.06-1.26-.24-1.1-1.14 0-.17.08-.51-.18-.51s-.19.3-.19.51c0 1.19.05 2.38.05 3.57a2.29 2.29 0 0 1-2.58 2.5c-2.1-.19-4.2 0-6.3-.16-2.5-.2-5-.08-7.54-.12-2.69 0-5.39 0-8.08-.09-.76 0-1.53 0-2.29-.1a1.32 1.32 0 0 1-1.19-1.95c1.33-3.39 2.62-6.79 4-10.14a38.5 38.5 0 0 0 1.51-3.91c.21-.7.77-.81 1.42-.8h5.48a25.36 25.36 0 0 0 4.09 0c2-.18 4 0 6.05-.11a26.83 26.83 0 0 1 4.3.08 15.26 15.26 0 0 0 1.35-1.65c.93-1.55 2.26-2.77 3.31-4.21 1.54-2.12 3.14-4.2 4.76-6.26s3.42-4.18 5.09-6.29c2.15-2.72 4.22-5.49 6.37-8.2 1.84-2.34 3.78-4.6 5.6-7a49.2 49.2 0 0 0 3.14-4 5.66 5.66 0 0 1 .69-.79m-49 53.21c0-.89-.27-1.41-.84-1.37-.75.06-.94.62-1 1.25 0 .78.35 1.46.89 1.43 1.11-.09 1.03-.85 1.16-1.36zm.82-7.92a1 1 0 0 0-1-1 1.2 1.2 0 0 0-1.15 1.24 1 1 0 0 0 1.1 1 1.12 1.12 0 0 0 1.26-1.29zm7.09 9.71c.64 0 1.25-.59 1.2-1.06a.68.68 0 0 0-.8-.63 1 1 0 0 0-1 1 .59.59 0 0 0 .81.64zm7.51-12c.52-.06.87-.33.87-.87a.82.82 0 0 0-.86-.86.72.72 0 0 0-.84.83.86.86 0 0 0 1.04.82zM99 141.58a.72.72 0 0 0-.69-.77.66.66 0 0 0-.81.63.7.7 0 0 0 .73.83c.47.03.77-.27.77-.69zm-6.91-2.29a.69.69 0 0 0-.69.72.67.67 0 0 0 .67.77.68.68 0 0 0 .8-.75c.02-.45-.27-.68-.76-.74zM163.59 18.71c.1.54.82 0 1.34 0 .78-.05 1.24 1.41.83 2-.85 1.23-.27 2.39-.06 3.52.54 3 .92 5.94 1.45 8.89s.87 5.67 1.35 8.5c.54 3.12 1 6.27 1.46 9.41.31 2.11.61 4.22 1 6.31a7.61 7.61 0 0 0 2 3.4 20.1 20.1 0 0 1 1.62 2.06c.68 1.06.27 1.75-1 1.76h-19.97a11.64 11.64 0 0 1-1.67-.14c-1-.15-1.16-.58-.58-1.43a23 23 0 0 1 1.51-2.15 9.22 9.22 0 0 0 2.27-5.71c.12-1.58.63-3.14.88-4.73.45-2.83.79-5.68 1.36-8.48.69-3.4 1.3-6.81 1.76-10.24.43-3.19 1.23-6.32 1.6-9.52a2 2 0 0 0-.33-1.45 1.52 1.52 0 0 1 .77-2.28m4.6 34.33c-1 0-1.61.46-1.63 1.13a1 1 0 0 0 1.09 1 1.61 1.61 0 0 0 1.5-1.48c-.04-.59-.46-.65-.96-.62zm-3.3 5.85a1 1 0 0 0-1-1.08 1.15 1.15 0 0 0-1.09 1.18 1 1 0 0 0 1 1 1.1 1.1 0 0 0 1.09-1.07zm-2.07-3.41a.84.84 0 0 0-.83-.86.87.87 0 0 0-1 1 .76.76 0 0 0 .86.83.92.92 0 0 0 .97-.94zm10.36 3.1c-.15-.35 0-1.12-.53-1.13s-.61.74-.67 1.24 0 .92.59.92.56-.49.61-1zm-10.69-22.14c0-.44-.22-.83-.67-.78-.62.06-.69.61-.73 1.11 0 .34.13.64.52.64.62-.01.8-.46.88-.97zm3-1.89a.71.71 0 0 0-.76-.71.78.78 0 0 0-.84.86.67.67 0 0 0 .8.63.77.77 0 0 0 .8-.78zm4.92 8.45c-.06-.36-.19-.73-.68-.7s-.54.38-.54.75.06.83.58.81.64-.4.64-.86zm-5.95 5.76a.67.67 0 1 0-.63.7.64.64 0 0 0 .66-.7zm-3.48 12.1a.42.42 0 0 0-.38.51.36.36 0 0 0 .41.36.41.41 0 0 0 .4-.45.41.41 0 0 0-.4-.42zM117.65 159.58c-.49 0-.83.16-1.31.22a30.46 30.46 0 0 1-5.64.13 19.23 19.23 0 0 1-3.13-.05c-.33-.09-.7-.06-1-.14a1.38 1.38 0 0 1-1-2.14.67.67 0 0 1 .8-.35 33 33 0 0 0 6 .08 1.1 1.1 0 0 0 .52-.08c1.38-.74 2.9-.37 4.32-.38 1.81 0 3.63.07 5.45.07a2.54 2.54 0 0 1 1.49.43 1.34 1.34 0 0 1 .47 1.32 1.28 1.28 0 0 1-1 1.17c-1.69.51-3.66-.29-5.42-.28h1.1s-1.65.02-1.65 0zM176.18 90.57c0 .49-.32.79-1 .71a64.48 64.48 0 0 0-9.22 0 22.35 22.35 0 0 1-3.75-.06 29.67 29.67 0 0 0-3.13.13c-2.05-.07-4.1 0-6.15 0a6.84 6.84 0 0 1-2.25-.46c-.34-.12-.67-.31-.68-.72s.33-.67.71-.81a2 2 0 0 1 1.33-.13 2.93 2.93 0 0 0 1.14.14c6.07-.26 12.15-.18 18.23-.26a18.85 18.85 0 0 0 3.75-.12c.69-.19 1.02.35 1.02 1.58zM157.69 159.8h-7a6.94 6.94 0 0 1-2.27-.39c-.68-.22-.78-.71-.2-1.12a2.8 2.8 0 0 1 1.49-.7c3.74-.19 7.48-.17 11.22-.2 1 0 2.08.13 3.14 0a2.42 2.42 0 0 1 2.39 1c.43.6.26.94-.37 1.2a3.75 3.75 0 0 1-1.44.23h-6.93z" fill="#d45245"/><path d="M124.67 171.4v-8.49c0-3.63-.32-7.25.57-10.85 1.17-4.76 6.56-8.68 11.44-8.52 4.05.13 7.35 1.71 9.47 5a11.92 11.92 0 0 1 1.74 7 69.73 69.73 0 0 0 .12 12.18c.27 2.13-.56 4.15 0 6.23.13.43-.47 1.19-1.71.78a14.5 14.5 0 0 0-5.11-.24c-2.38.12-4.8.22-7.13.2s-4.59-.06-6.87-.24a3.18 3.18 0 0 0-1.4.22.87.87 0 0 1-1.23-1c.07-.77 0-1.55 0-2.32zm20.11-8.67h-.41v.08l.4-.08.16.37.15-.09zm-8.37-14.89l.23-.32-.15-.09-.06.43-.33.35.15.06zm6.11 5.89h.27l-.07-.14a1.84 1.84 0 0 0-.17.22l-.3.21.07.06zm-4.87-4.3a1.61 1.61 0 0 0-.31 0c-.2 0-.48-.34-.58.13l.9-.14c-.22.38 0 .64.28.85h.19c-.13-.27-.31-.58-.48-.84zm-4.94 20.86c-.42 0-1-.31-1.15.33s.54.43.81.66a.59.59 0 0 0 .57-.05c.55-.46-.64-.51-.26-1l.29-.33-.18-.05zm5.92-7.61a18.43 18.43 0 0 0-2 1.26c-.12.09.24.65.58.52.81-.29 1.56-.71 1.4-1.79.23.18.44.5.76.17.05-.05 0-.26-.06-.35-.31-.42-.42.21-.68.19zm-6.43-5.15a3.18 3.18 0 0 1 .85-.15c.41 0 .85-.12.82-.44s-.47.1-.69 0c-.54-.34-1.06-.72-1.59-1.09a4.68 4.68 0 0 0 .56-.62 4 4 0 0 0 .25-.69c-.41-.08-1-.38-1.21-.21-1 .77.12 2.29-1 3.1.07 0 .19.14.23.12a1.76 1.76 0 0 1 1.78-.02zm5.31 2.27c-.73.84.3.58.61.83s0 2.1.91.25c.14-.29.4-.13.59.08s-.34.69.2.59.31-.61.2-.92c-.17-.48.4-1.75-1-1.08-.12 0-.35-.2-.55-.26-.47-.12-1.47-1.49-.96.51zm6.87-.9c-1.08-.14-.69 1.17-1.51 1.2-.19 0-.5 0-.54.14-.13.34.23.33.42.46 1 .66.95.66 1.23-.43.05-.18.36-.28.54-.42l.58-.51zm-3.44 10c.11-.12.23-.25.23-.26-.64-.65-.33-1.2.15-1.78a1.64 1.64 0 0 0 .2-.76c.06-.51-.38-.51-.69-.59-.08 0-.29.16-.28.23.08.87 0 .84-.9 1.38-.32.18-.41.73-.61 1.11.41.16.41-.26.58-.42.38-.34.42 0 .58.23a6.4 6.4 0 0 0 .74.82zm1.95-7.26a5.18 5.18 0 0 0-.79.67c-.24.29.07.41.27.54l.55.34c-.26 0-.51.11-.77.15l-1.31.2c.24.17.48.49.72.49a2.69 2.69 0 0 0 1.52-.31c.36-.28.44-.9.64-1.37-.35-.17-.8-.17-.83-.75zm-10.47 5.94c1.15 0 1.43.15 1.37 1.07 0 .58 1 .16.87-.14-.26-.76-.41-1.82-1.5-1.89-.22-.05-.49.57-.74.92zm6.05-13.61c0 .36.07.74.44.68a1.58 1.58 0 0 0 .86-.55c-.25-.65-.67-1.83-.92-1.8-1.35.1.2 1.14-.38 1.63zm-5.4-.81c.24.55 0 1.41.9 1.52.39 0 .46-.33.38-.58a5.73 5.73 0 0 0-.79-1.8c-.12-.19-.39.47-.49.82zm-1.41-3.67a.65.65 0 0 0-.49.81c.06.56.46.72 1 .71s.6-.19.54-.59c-.12-.61-.64-.74-1.05-.97zm4.61 9c.16-.19.55-.55.5-.61a3.26 3.26 0 0 0-.92-.93.35.35 0 0 0-.48.37 1.43 1.43 0 0 0 .9 1.17zm-.22 3.14a1.66 1.66 0 0 0-1.38-1.33c-.21 0-.41.08-.26.27a12.16 12.16 0 0 0 1.33 1.45c.12.1.37-.12.31-.39zm-7.15-5.4a3.85 3.85 0 0 1-.37-.14c-.54-.31-.82.13-1.16.4s0 .75.11.78c1 .52 0-1.49 1.14-.91.05.02.14-.06.28-.13zm1.54 13.1c.39.11-.2.79.41.79.17 0 .45-.41.5-.67s-.31-.63-.62-.7-.31.25-.29.58zm10.74-15c.68-.32.36-1.28 1.12-1.43a.92.92 0 0 0-.33-.11c-.62.07-.85.56-1 1-.08.14.11.35.21.53zm-5.23.44c.4-.73 1.35-.07 1.73-.8-.16-.06-.37-.21-.49-.16-.55.23-1.25.11-1.66.68zm-3.11 3.23c-.44 0-.87 0-1.15.38.49.15 1.15-.11 1.38.61.16-.23.47-.47.47-.7 0-.54-.48-.19-.7-.29zm-5.13 3.36c-.43.12-.92-.08-1 .49 0 .29.15.44.36.33a8.55 8.55 0 0 0 1-.7zm5.12 2.24c-.64-.38-1.21-.73-1.8-1l-.29.23c.61.35 1.21.7 1.83 1 .02 0 .12-.12.26-.25zm1.77-.8a10.64 10.64 0 0 0-1.1-.66c-.05 0-.23.18-.35.28.32.28.63.57 1 .82 0 0 .24-.24.45-.46zm5.87-11.6c0 .38 0 .71.46.81.09 0 .33-.2.32-.22-.18-.37-.3-.85-.6-1s-.07.21-.18.39zm2.64 5.45a1.81 1.81 0 0 0-.52-.26c-.34 0-.42.26-.37.49a.6.6 0 0 0 .43.31c.24 0 .48-.1.46-.56zm-.26 12.17c-.36 0-.17.17-.18.31 0 1.1.89-.16 1.06.42l.23-.06zm1.5 3.23c.14-.33-.07-.55-.32-.49-.58.13.55.78-.23.92.06.07.12.21.18.21.42-.05.27-.43.37-.69zM129 164.14c-.13-.3-.05-.68-.47-.63-.1 0-.27.28-.24.35a4.35 4.35 0 0 0 .45.61zm1.51-3.38c-.64-.25-1-.41-1.4-.53-.05 0-.16.11-.24.17a6 6 0 0 0 .83.52c.14.08.35-.06.81-.16zm9.38 3.7l.51.36c.07-.13.21-.28.19-.41a1.64 1.64 0 0 0-.26-.46zm-5.14-15c-.39.07-.46.29-.39.55s.16.23.24.35a2.83 2.83 0 0 0 .36-.59c.04-.06-.15-.21-.21-.29zm8.05 22.69c-.41-.28-.68-.48-1-.64 0 0-.19.15-.29.24.28.17.55.35.83.5.1.05.23-.02.46-.08zm-6.86-25.31l-.37-.41a3 3 0 0 0-.32.61c0 .09.15.23.23.35zm-.65 4.34c-.36 0-.54-.14-.64-.08a1.91 1.91 0 0 0-.7.58c-.11.21.15.26.32.16s.56-.34 1.02-.64zm9-.58l-.42-.62c0 .11-.13.24-.1.34a3.17 3.17 0 0 0 .25.53zM129 159.17c.06-.12.19-.26.16-.33a5.81 5.81 0 0 0-.43-.77c-.09.07-.26.19-.24.22.18.28.35.55.51.88zm7.59-9.48c-.31-.15-.49-.31-.65-.29s-.25.22-.38.34a1.79 1.79 0 0 0 .44.34c.11.02.25-.14.63-.39zm2.36-1.84a1.57 1.57 0 0 0-.24-.18c-.24.2-.46.42-.69.63.07.06.18.19.19.18zm-7.2 19.92a1.9 1.9 0 0 0-.59-.18c-.1 0-.19.15-.29.24.13.09.25.26.38.27s.29-.16.54-.33zm10.46-19.4c-.23-.12-.36-.24-.5-.25s-.17.2-.25.31a1.6 1.6 0 0 0 .42.2c.12.02.21-.13.37-.26zm-.53 7.18c-.12 0-.2-.1-.25-.08s-.4.23-.61.35c.08.07.19.21.21.2.24-.12.42-.27.69-.47zm2.1.58a2.73 2.73 0 0 0-.52-.34c-.06 0-.17.12-.25.19a1.32 1.32 0 0 0 .35.32c.11.03.24-.08.46-.17zm-4.6 10.87c.2-.28.33-.42.43-.59a.8.8 0 0 0-.21-.2 1.13 1.13 0 0 0-.34.35c-.06.06.05.2.12.44zm-7.05 1.92a1.05 1.05 0 0 0 .13-.34c0-.05-.17-.16-.2-.14a.66.66 0 0 0-.2.27l.27.21zm1.7-19.84c-.12-.1-.21-.21-.24-.2a3.88 3.88 0 0 0-.52.3c.05.06.13.18.15.17a4.82 4.82 0 0 0 .61-.27zm-3.29 14.77c-.17-.08-.25-.16-.31-.14a3.49 3.49 0 0 0-.44.2c.07.06.16.19.22.18a3.09 3.09 0 0 0 .53-.24zm10.46 5.73c-.28-.11-.42-.21-.53-.19a.49.49 0 0 0-.28.25c0 .05.12.23.21.24s.24-.09.6-.3zm-7.17 1.67c-.12.19-.24.29-.23.37s.13.21.2.32c.07-.08.21-.16.22-.24s-.02-.22-.16-.45zm3-20.37a5.46 5.46 0 0 0-1-.23 2.74 2.74 0 0 0-.5.07c.07.05.14.14.22.15s.45.01 1.34.01zm-10.08 6.9c-.14-.06-.23-.13-.31-.12s-.17.11-.17.17.1.14.15.22zm8.07-2.34c-.12-.1-.21-.2-.24-.19a2.37 2.37 0 0 0-.33.22c.05.06.12.18.15.17a2.94 2.94 0 0 0 .48-.2zm6.68 5.68a1.32 1.32 0 0 0-.45-.13c-.07 0-.13.12-.2.18.08.09.16.24.24.24s.26-.13.47-.29zm1.21 3.17l-.19.33c.09 0 .21.14.25.11a1.25 1.25 0 0 0 .24-.27zm-5.17 1.31c-.1.13-.21.25-.19.28a.74.74 0 0 0 .28.21s.17-.15.16-.19a2 2 0 0 0-.19-.3zm-5.41 1.26a3.39 3.39 0 0 0-.66-.15 1.54 1.54 0 0 0-.32.15c0 .07.1.19.15.2a4.54 4.54 0 0 0 .89-.2zm11-11.79a3.87 3.87 0 0 0-.58-.08.94.94 0 0 0-.23.1 1.15 1.15 0 0 0 .32.15c.11.01.2-.05.52-.17zm-13.85 13.15c-.11-.13-.2-.26-.22-.25a.76.76 0 0 0-.3.23s.12.22.17.21a1.37 1.37 0 0 0 .38-.19zM140.57 155c-.1.08-.21.14-.22.22s.09.14.14.22l.27-.21zm-4.57 4.91c-.23-.13-.32-.22-.43-.22s-.16.08-.24.13.12.24.21.27.22-.09.46-.18zm2.33 11.87l.17-.08a1.15 1.15 0 0 0-.19-.14s-.08.07-.13.11zm.14-20.21a.79.79 0 0 0-.26-.1s-.1.11-.09.15.1.13.15.19zm6.53 17.72c-.05 0-.13-.11-.14-.1a.83.83 0 0 0-.15.17c.06 0 .12.07.17.06s.12-.08.12-.13zm-5.84-18.1c.06-.15.13-.25.11-.32s-.13-.12-.2-.18c0 .09-.11.18-.1.27s.09.13.18.23zm.2-2.16c-.08-.05-.18-.16-.22-.14a.43.43 0 0 0-.19.23s.1.12.16.18zm-2.78 16l-.26-.3a1.3 1.3 0 0 0-.17.33c0 .07.09.16.14.24zm4.17-2.66a1.1 1.1 0 0 0-.31-.2s-.17.12-.16.15a.4.4 0 0 0 .18.22s.13-.09.28-.18zm-8.32-10.57c-.08-.09-.13-.19-.2-.21a.58.58 0 0 0-.26.09c.06.08.1.19.18.23s.15-.07.27-.12zm-4 .52l-.19-.06a1 1 0 0 0 0 .17.12.12 0 0 0 .09 0 .71.71 0 0 0 .04-.12zm17.44 13.18c-.13 0-.25-.13-.3-.1a.78.78 0 0 0-.17.28c.09 0 .19.08.26.06s.07-.15.15-.25zm-9.63-12.94l-.14-.11a.56.56 0 0 0-.07.16s.06.06.07.06zm-2.52 17.29l.07.18a.76.76 0 0 0 .16-.14s-.06-.09-.1-.14zm10.36-1.85c0-.05-.07-.13-.11-.14s-.1.05-.15.08l.12.2zm-17.5 1.54h-.09v.09c0 .02.05 0 .08 0zm4.25-4.44a1 1 0 0 0-.13.22s.13.11.15.1a.9.9 0 0 0 .19-.2zm-1-11.2c-.06 0-.13-.07-.17 0s-.05.1-.08.15.12.07.16.06.05-.11.08-.19zm12.27-3l-.08.16s.05.06.06.05a.57.57 0 0 0 .13-.08zM130.61 162l.19.08a.55.55 0 0 0 0-.18h-.08a.58.58 0 0 0-.11.1zm6 9.2c-.05 0-.12-.07-.15-.06a.18.18 0 0 0-.07.15s.1.05.15.08zm8.77-15.29l.18.08c0-.06.08-.13.06-.17s-.11-.06-.17-.09zM132 169.52h.1l-.09-.08a.19.19 0 0 0-.01.08zm2.74 1.32l-.14.1c.05 0 .1.09.15.09s.09-.06.14-.09zm9-19v-.17h-.08a1 1 0 0 0 0 .17zm-10.93-5.07l-.09.15h.09l.14-.08zm7.33 6.36l.21-.07a.88.88 0 0 0-.12-.21.33.33 0 0 0-.15.05 2 2 0 0 0 .08.27zm-9.81.35a.14.14 0 0 0 .09 0 .17.17 0 0 0 0-.08h-.09s.02.1.02.12zm2 .07l.13-.1s-.06-.07-.07-.06a.67.67 0 0 0-.14.09zm-3.48 1.25h.06zm8.57 7.36l.08-.06a.71.71 0 0 0-.16-.07s-.06 0-.09.05zm-11.18-1.52s.05-.05.05-.07 0-.05-.05-.07 0 .05 0 .07-.05.09-.03.11zm15.31-11.11l.18-.08s-.1-.11-.14-.1a.54.54 0 0 0-.2.1zm-6.45 9v.09h.12s0-.06-.05-.06-.08.04-.1.04zm9.4-.44a.85.85 0 0 0-.11-.14h-.09a.45.45 0 0 0 0 .16zm-3.58-7.9h.05-.06zm.81 6.77s-.13 0-.14.08 0 .12 0 .17.12 0 .14-.09-.01-.03-.03-.12zM159 107.77a6.92 6.92 0 0 1-1.31-2.38c-.52-2.28-.35-4.56 1.44-6.34a5.83 5.83 0 0 1 7.66-.65 5.69 5.69 0 0 1 1.29 7.18 4.84 4.84 0 0 1-3.08 2.78 6.28 6.28 0 0 1-4.09.15c-.77-.26-.21-.31-.88-.44zm5.24-4.24l-.38.2a.88.88 0 0 0 .26.06 1.51 1.51 0 0 0 .33-.13zM130.65 118.27a6.56 6.56 0 0 1 6-6.57c1.83-.16 4.84 2.75 5.33 4.56.88 3.22-1.46 7.47-5.27 7.47s-6.03-2.19-6.06-5.46zm6.64-.64c-.45-.26-.64.06-.65.36 0 .51.54.41.79.47.57.13.58-.51.56-.77-.09-1.25-.55.92-.7-.06zm2.05.45c-.15-.11-.27-.28-.37-.27-.58 0-.16.66-.48.87l.17.24zm-2.62-2.19a5.85 5.85 0 0 0-.83-.63c-.07 0-.27.21-.4.33.28.14.56.28.85.4.05.01.15.01.38-.1zm-.05 4.63l-.09.16h.16v-.07a.67.67 0 0 0-.07-.09zM168.52 67c2.21 0 2.75 1 2.71 2.67-.13 4.64-.17 9.61-.24 14.24 0 1.8.15 2.64-2.71 2.11a2.7 2.7 0 0 0-1.19.22c-.35.11-.68.24-1-.11s0-.55.06-.82c.17-1.66.29-3.32.3-5 0-2.44-.14-4.88-.13-7.33a15.4 15.4 0 0 1-.05-3.53 2.76 2.76 0 0 1 2.25-2.45zM155.39 83.27a37.14 37.14 0 0 1-.08-6.06c.12-1.35-.26-2.85-.21-4.18.06-1.61-.11-3.39.81-4.94a2.43 2.43 0 0 1 2.8-1.1 2.88 2.88 0 0 1 1.29 2.44 48.41 48.41 0 0 0 0 5.11 82.56 82.56 0 0 1-.09 8.76c.16 2.82-.13 3.4-3.78 2.66-.59-.2-.59-.2-.74-2.69z" fill="#96d7df"/><path d="M159.21 107.4l-.11.16.13-.14z" fill="#96d7df"/><path d="M122.1 54.76h-1.36a.92.92 0 0 0-.28.09l.29.1.25.11c-.06 0-.13.08-.19.07-.3-.05-.67.2-.88-.28-.1-.21-.46-.12-.69-.12h-6.79c-.26 0-.54-.08-.68.3-.07.18-.44.17-.53 0s-.27-.28-.48-.28h-6.21c-.52 0-.15.16 0 .24s.06.12 0 .11c-.33 0-.75.29-1-.27-.08-.2-.39-.09-.59-.1h-3.05a7.91 7.91 0 0 1-.83-.06c-.21 0-.26-.42-.6-.24-.14.08-.15-.21-.12-.28.27-.5.35-1.1 1-1.41.32-.16.76-.41.71-.94a.19.19 0 0 1 .18-.21c.69 0 1-.57 1.26-1a2.44 2.44 0 0 0 .42-1.87c0-.15-.25-.28-.1-.46s.22.23.36-.07a11.32 11.32 0 0 1 1.45-2.5 17.86 17.86 0 0 1 1.75-2c.47-.43 1.12-.65 1.63-1.07.1-.08.26-.06.4-.1a11 11 0 0 1 4.82-.27 12.33 12.33 0 0 1 2 .5 6 6 0 0 1 3.26 3 5.65 5.65 0 0 1 .26 1.3 3.22 3.22 0 0 0 1.68 2.26c.78.43 1.59.82 2.35 1.28.33.21.91-.08 1 .22.15.89 1 1.53.92 2.47 0 .34.21.58.22.9s0 .51-.43.51h-1.4zm-10.75-1.9a.54.54 0 0 0-.07-.19c-.07-.07-.17-.2-.23-.18s-.15.21-.11.33c.12.42.28 0 .43 0 .14.4.45.18.69.19s.15-.15.11-.25a.18.18 0 0 0-.25-.11.92.92 0 0 1-.57.21zm2.31-6.35a1.65 1.65 0 0 0 .5 0c.13-.05.35-.14.28-.34a.42.42 0 0 0-.39-.27c-.17 0-.35 0-.36.25s0 .27 0 .41H113c-.09-.31-.39-.46-.57-.7a.42.42 0 0 0-.56-.09c-.07 0-.11.16-.12.25s.15.25.28.35a1.34 1.34 0 0 0 1 .17c.23.28.39.28.63-.03zm-2.79 2.41c.52.22.23-.27.28-.45s.15-.22.23 0 .17.19.24.13c.31-.28.54-.16.77.12.08.09.17.07.26 0a.56.56 0 0 0 .16-.57.18.18 0 0 0-.25-.12c-.54.33-1-.09-1.54-.11s-.43-.14-.5.24a2.57 2.57 0 0 1-.07.4c-.16.44.04.44.42.36zm-1.61 2.25a.22.22 0 0 0-.21-.21c-.29 0-.43-.09-.45-.42s-.13-.41-.44-.21a3.47 3.47 0 0 0-.47.39c-.11.1-.17.23 0 .36a.2.2 0 0 0 .27 0c.35-.26.5-.16.49.25 0 .14 0 .29.08.4s.2.31.4.09.35-.27.33-.65zm3.35-6.81a.54.54 0 0 0-.83-.24c-.27.22-.47.4-.79.11 0 0-.22 0-.2.11s.16.44.24.66c.22-.28.5.2.73 0a.83.83 0 0 1 .71-.35c.09-.05.15-.17.14-.29zm1.29 6.22c-.05-.08-.09-.24-.15-.24-.78 0-1.2-.64-1.69-1.12-.06-.06-.14-.2-.23-.07a.36.36 0 0 0 0 .3 1 1 0 0 0 .22.34c.44.45 1.1.58 1.52 1.07.07.14.2-.15.33-.28zm-9.49-2.12s.11.11.13.1a.22.22 0 0 1 .34 0c.22.18 0 .29 0 .43a.18.18 0 0 0 .13.23.19.19 0 0 0 .25-.11 2.07 2.07 0 0 1 .16-.59.69.69 0 0 0-.36-.86c-.08 0-.16-.07-.16 0-.06.34-.46.47-.49.8zm3.31-1.86l-.09-.06c-.17-.08-.89.26-.82.33.28.3-.07.5-.06.75a.19.19 0 0 0 .11.14.24.24 0 0 0 .19 0 4.32 4.32 0 0 1 .65-1s.01-.13.02-.16zm8.28 2.29s0 .22.06.27.2-.12.31-.18a1 1 0 0 0 .16-.12c.37-.25.38-.26.07-.57-.09-.1-.24-.24-.31-.22a.4.4 0 0 0-.29.39zm-5.3 1.72c0-.29-.2-.41-.36-.58a.32.32 0 0 0-.37-.1s-.06 0-.06.07-.08.4.08.46.36.35.64.22c.03-.01.05-.05.07-.07zm-3.79-2a.4.4 0 0 0 0-.11c-.16-.18-.38-.14-.58-.13a.51.51 0 0 0-.43.38.2.2 0 0 0 .24.23 2 2 0 0 1 .67-.23s.07-.05.1-.09zm4.85-1.09a.18.18 0 0 0 .21-.16c0-.21-.28-.52-.46-.43a.32.32 0 0 0-.13.24c-.05.33.1.43.38.4zm-6.32 5.3a.61.61 0 0 0-.08-.18 1.42 1.42 0 0 0-.7.24c.06.11.16.25.27.28.29.15.41-.07.51-.29zm.41-5.93a.83.83 0 0 0-.72-.37.21.21 0 0 0-.07.17.78.78 0 0 0 .71.37s.05-.06.08-.12zm9.5 3.21c0-.11 0-.25-.14-.17a2.47 2.47 0 0 1-.57.17s-.08.1-.1.16.07.19.17.21a.56.56 0 0 0 .64-.32zm-1.28 1.92l-.31-.23c-.09.29-.2.58-.27.87 0 .09.08.11.14 0s.48-.21.44-.59zm-5.48.34c0-.2-.17-.19-.31-.19s-.28 0-.27.22.16.2.3.2.29.03.28-.18zm-1.27-1.76c-.13-.15-.2-.33-.41-.31a.17.17 0 0 0-.17.2c0 .19.17.2.3.2a.83.83 0 0 0 .28-.04zm-1.48-4.77l.52-.22c.09 0 .11-.11.06-.12a.89.89 0 0 0-.39 0 .88.88 0 0 0-.29.26s-.01.1.1.13zm1.8 2.68c.19 0 .26-.17.37-.28s.18-.12.11-.23a.24.24 0 0 0-.19 0 .56.56 0 0 0-.34.35.49.49 0 0 0 .05.21zm2.87 4.77c0-.1 0-.24-.12-.21a.36.36 0 0 0-.27.39.21.21 0 0 0 .12.15c.24.08.27-.08.27-.28zm-.86-.85c0-.11 0-.22-.12-.24s-.26 0-.26.19a.17.17 0 0 0 .18.18.17.17 0 0 0 .2-.08zM116 52c0-.1-.07-.17-.2-.16a.17.17 0 0 0-.18.17c0 .18.1.23.24.2A.18.18 0 0 0 116 52zm-.9-4c-.09 0-.14.06-.15.17a.16.16 0 0 0 .16.2c.16 0 .24-.07.22-.23s-.09-.14-.23-.14zm-4.2-1.19a.44.44 0 0 0-.48-.06c-.1 0-.12.07 0 .14s.14.27.31.15a1.17 1.17 0 0 0 .17-.21zm.14-1c.12-.17-.05-.16-.11-.18s-.28 0-.36.09.1.16.18.22.25-.02.25-.07zm-3.77-.06a.36.36 0 0 0 .07-.38.2.2 0 0 0-.22-.15c-.1 0-.19.06-.08.17s.05.38.23.42zm4.84 5.94l-.28.14c.09 0 .18.12.26.12a.77.77 0 0 0 .27-.11zm-1.18-.15c-.19 0-.21.13-.18.28s0 0 .06.08l.28-.28zm-4.66.15c0-.08-.08-.16-.11-.16s-.27 0-.27.19a.37.37 0 0 0 .07.16zm-.07-1s-.09.1-.1.15a.17.17 0 0 0 .17.21c.06 0 .18 0 .18-.06a.42.42 0 0 0-.25-.21zm5-1.16c0-.08 0-.25-.14-.27 0 0-.07.11-.07.17s0 .27.13.29c-.03.09 0-.02.03-.1zM110.08 46l-.31-.28a.71.71 0 0 0-.08.18.16.16 0 0 0 .18.18.62.62 0 0 0 .21-.08z" fill="#ceebec"/><path d="M96.05 54.76h16.03c1.32 0 2.6 0 3.88-.07h.25a3.07 3.07 0 0 0 1.61-.34 2.51 2.51 0 0 0 1.48.32l.44-.06a1.28 1.28 0 0 1 .6 0 3.2 3.2 0 0 0 1.46.09h.41c.65 0 .87-.25.85-.89 0-.24 0-.47-.08-.69a3.39 3.39 0 0 1-.07-.7 3.19 3.19 0 0 0-1.11-2.23v-.06a5.76 5.76 0 0 0-2.56-1.5 2.5 2.5 0 0 1-1.32-1 1.75 1.75 0 0 1-.42-.84 5.61 5.61 0 0 0-.27-1.09c0-.1-.07-.21-.1-.31a5.15 5.15 0 0 0-1.1-2l-.32-.37a10.16 10.16 0 0 0-1-1 7.93 7.93 0 0 0-1.47-1 2.85 2.85 0 0 0-.87-.28h-.16a2.24 2.24 0 0 0-.35 0 .65.65 0 0 1-.21 0 11.74 11.74 0 0 0-4.76 0 4.77 4.77 0 0 0-.57.2 2.18 2.18 0 0 1-.47.16 4.22 4.22 0 0 0-1.85.9l-.28.2a11.15 11.15 0 0 0-1.11.93l-.24.22a.94.94 0 0 0-.23.33v.1l-.4.61a15.36 15.36 0 0 0-.87 1.42 10.15 10.15 0 0 0-.93 2.19 7.45 7.45 0 0 0-.15.77 3.09 3.09 0 0 1-.49 1.44c-.23.32-.38.47-.65.53a4.4 4.4 0 0 0-1 .35h-.06a4.11 4.11 0 0 0-1.55 1.05 3.34 3.34 0 0 0-.84 1.69.83.83 0 0 0 .14.68.92.92 0 0 0 .71.25zm4.76-5.14a1.06 1.06 0 0 0 .55-1.13 2.1 2.1 0 0 1 .25-.84l.09-.23a12 12 0 0 1 1.63-2.85.77.77 0 0 1 .18-.18 1.74 1.74 0 0 0 .75-.75 2 2 0 0 1 .82-.65l.21-.1a12.3 12.3 0 0 1 2.2-.91 3.76 3.76 0 0 1 1.26 0h.73a1 1 0 0 0 .39 0 3.31 3.31 0 0 1 1.64.16 8.37 8.37 0 0 0 1 .21 1.2 1.2 0 0 1 .28.16l.12.09 1.31.91.38.27a1.56 1.56 0 0 0 .49 1 2.77 2.77 0 0 1 .76 1.62v.31a2.93 2.93 0 0 0 .42 1.38l.07.1a4.21 4.21 0 0 0 1.84 1.66 15.77 15.77 0 0 1 2.12 1 2.07 2.07 0 0 1 .95 1.2l.09.27a4.58 4.58 0 0 1 .25 1h-6.03a4.43 4.43 0 0 1-.63 0h-2.2c-.9 0-1.82.06-2.73 0h-1.87a18.74 18.74 0 0 1-2.25 0 3.14 3.14 0 0 0-.62 0h-.34a2.9 2.9 0 0 1-.51 0h-2.34a11.83 11.83 0 0 1-2.46.07h-2.6l.07-.11a2.3 2.3 0 0 1 1-.9l.25-.11.21-.09a2.15 2.15 0 0 0 2-1.25 1.58 1.58 0 0 0 .27-1.31zM129 117.16v.5a10.45 10.45 0 0 0 .14 1.21 3.71 3.71 0 0 0 .33.88c0 .1.09.2.13.29a5.91 5.91 0 0 0 3.51 3.3 5.69 5.69 0 0 0 2.05.39 6.41 6.41 0 0 0 2.93-.77 6 6 0 0 0 3.26-4.47 6.46 6.46 0 0 0 .08-1.63 4.29 4.29 0 0 0-.14-.81c0-.1 0-.19-.07-.28a6 6 0 0 0-3.07-4.07 6.31 6.31 0 0 0-4.6-.44 5.82 5.82 0 0 0-3.52 2.63 5 5 0 0 0-1.07 3.26zm5.56-3.26a6.4 6.4 0 0 1 0 .76v1.09a.13.13 0 0 1 0 .06.64.64 0 0 0 0 .25v.69a1.09 1.09 0 0 0-.42-.07h-3.65a1 1 0 0 1 .07-.41 6 6 0 0 1 1.35-2.37 5 5 0 0 1 1.85-1.23 3.33 3.33 0 0 1 .75-.14h.13a1.88 1.88 0 0 1 0 .75 4 4 0 0 0-.06.62zm0 4.06a2.44 2.44 0 0 0 0 .27v4.01h-.15a4.51 4.51 0 0 1-2.95-1.75 5.3 5.3 0 0 1-1-2.2h.31l3.74-.28zm5.32-1.25a4.89 4.89 0 0 1-.77 0h-2.55c-.55 0-.53-.08-.58-.14s-.08-.21 0-.63a2 2 0 0 0 0-.85 4.45 4.45 0 0 1 0-1.67 6.69 6.69 0 0 0 .07-.9v-.08h.12l.26.09a3 3 0 0 1 1.35.71 1.14 1.14 0 0 0 .43.28 2.94 2.94 0 0 1 1.66 2.5c0 .2.06.4.1.6zm-4 3.75a8.79 8.79 0 0 1 .08-2.3H140a5.54 5.54 0 0 1-1.43 2.84 5.91 5.91 0 0 1-1.82 1.07l-.21.09a1.06 1.06 0 0 1-.48 0 12.12 12.12 0 0 0-.06-1.7zM168.53 101.67a5.77 5.77 0 0 0-1-2.56 5.49 5.49 0 0 0-3.33-2.64l-.2-.07a5.48 5.48 0 0 0-4.12.12 5.6 5.6 0 0 0-2.16 1.34 6.23 6.23 0 0 0-1.87 3.39 6 6 0 0 0 .75 4.24 4.21 4.21 0 0 0 .55.71l.1.12a6.47 6.47 0 0 0 4.66 2.24 6.39 6.39 0 0 0 5.09-2.26 7.35 7.35 0 0 0 1.61-4.13 1.53 1.53 0 0 0 0-.38.5.5 0 0 1-.08-.12zm-5.73-2.4V98.1a4.14 4.14 0 0 1 .07-.45 3.72 3.72 0 0 1 2.77 1.35 3.92 3.92 0 0 1 1.29 2.61h-3.85c-.3 0-.31 0-.32-.32a4.84 4.84 0 0 1 0-.53v-.52c0-.18.05-.63.04-.97zm-1.33-1.71a.35.35 0 0 1 0 .19c0 .17 0 .33-.05.49a6.26 6.26 0 0 0 0 .87v2.42a14.08 14.08 0 0 1-3.32.11h-.81a2.22 2.22 0 0 1 .42-1.59 5.67 5.67 0 0 1 2.56-2.18 4.22 4.22 0 0 1 1-.25h.14zm-4.18 5.44h1.3l1.47.07h1.31v2.72h.24l-.21 1.13a4.36 4.36 0 0 1-3.06-1.62 3.5 3.5 0 0 1-1.05-2.3zm5.26 2.8a1 1 0 0 0 .24-.78v-1.85a15.6 15.6 0 0 1 3.12-.14h1a3.42 3.42 0 0 1-1.08 2.44 4.12 4.12 0 0 1-2.86 1.46 1.16 1.16 0 0 0-.65-1 .71.71 0 0 0 .23-.15zM153.48 82.61c0 .53 0 1.07.05 1.61v1.16c0 .68.18 1 1 1.06H156.3c.53 0 1.07 0 1.6.06h.3a1.24 1.24 0 0 0 .83-.26 1.26 1.26 0 0 0 .38-.94v-2.84V78.69v-2-1.07-1.4-2.07-2.1-1.24a2.88 2.88 0 0 0-1.55-2.59 3 3 0 0 0-2.36-.2 2.55 2.55 0 0 0-1.5 1.38 4 4 0 0 0-.41 1.48v1a30.3 30.3 0 0 0 .06 4.36.57.57 0 0 1 0 .18 1.1 1.1 0 0 0 0 .18V78.74a9.37 9.37 0 0 0 .09 1.68v.13a.57.57 0 0 0 .16.32.63.63 0 0 0-.19.32 8.25 8.25 0 0 0-.23 1.42zm4.63-.16V85h-.69l-2.25.12c-.16 0-.19 0-.21-.15a1.22 1.22 0 0 1 0-.34v-.9c0-.64.06-1.28.08-1.92a2.06 2.06 0 0 0-.18-.81.59.59 0 0 0-.12-.19.88.88 0 0 0 .17-.29 2 2 0 0 0 .05-.64v-.48c0-1.05 0-2.11-.06-3.17v-1.48a13.13 13.13 0 0 0 0-2.58.93.93 0 0 1 0-.14V71.57a7.61 7.61 0 0 0 0-.83v-.37a5.24 5.24 0 0 1 .19-2.17 1.46 1.46 0 0 1 1.16-1 1.36 1.36 0 0 1 1 .27 1.58 1.58 0 0 1 .64 1 12.07 12.07 0 0 1 .14 2.8 12 12 0 0 0 0 1.47v2.2a3.14 3.14 0 0 0 0 .53v.88c0 .3.05.78 0 1.16s0 .6-.06.91-.05.66-.06 1c.18 1.03.19 2.03.2 3.03zM164.67 72.32a.82.82 0 0 0 0 .45.43.43 0 0 1 0 .11v1.63c0 .71-.05 1.42-.06 2.13s0 1.22 0 1.81a20.14 20.14 0 0 1 0 2.69 4.16 4.16 0 0 0 0 .79v3.3a1 1 0 0 0 1 1.09c1 .06 1.93.1 2.9.14h.2a.94.94 0 0 0 .74-.29.75.75 0 0 0 .65.06.84.84 0 0 0 .4-.68 5.1 5.1 0 0 0 .07-1v-.28-.39-.32-1.91-4.4a6.79 6.79 0 0 1 .06-1 4.67 4.67 0 0 0-.05-1.82.43.43 0 0 0 0-.17v-.3a2.63 2.63 0 0 0 0-.84 7 7 0 0 1-.05-2.1 10 10 0 0 0 0-1.82v-.38a3.09 3.09 0 0 0-.44-1.6 2.87 2.87 0 0 0-2.43-1.37 2.93 2.93 0 0 0-2.93 2.34 4.81 4.81 0 0 0-.07.64v.49a5.16 5.16 0 0 0 0 1.47 3.82 3.82 0 0 1 .01 1.53zm4.61 3.61v.82c0 1.71 0 3.41-.05 5.11v2.37a5.64 5.64 0 0 1-.1.89 1.45 1.45 0 0 0-.3 0l-2.18-.12h-.47v-.24a7.75 7.75 0 0 1-.1-1.05c0-.84 0-1.68.05-2.52v-1.72-.64-6.44-2.94a2.42 2.42 0 0 1 .48-1.65 1.55 1.55 0 0 1 1.29-.53 1.32 1.32 0 0 1 1 .68 2.74 2.74 0 0 1 .4 1.88 9.37 9.37 0 0 0-.06 1.83v3.31c.09.33.06.64.04.96zM56.43 140.49l1 1c.44.44.89.87 1.32 1.32s1.14 1.15 1.7 1.73 1.31 1.34 2 2c.91.92 1.82 1.82 2.74 2.73l1.07 1.07.82.8.66.64 1.36 1.33.9.89 1.25 1.24a.63.63 0 0 0 .44.16.59.59 0 0 0 .23 0 .65.65 0 0 0 .31-.3l.07-.09.14-.19-.13-.2-.11-.19a2.25 2.25 0 0 0-.32-.46c-.28-.29-.58-.58-.87-.86l-.79-.78c-.77-.79-1.45-1.5-2.09-2.18-.38-.41-.8-.79-1.2-1.15a12.11 12.11 0 0 1-1.75-1.84.88.88 0 0 0-.18-.16l-.92-.9c-.74-.72-1.48-1.44-2.21-2.17-.5-.49-1-1-1.46-1.49l-1-1c-1-1-2-2.09-3.1-3.12a12.37 12.37 0 0 0-1.11-.94.81.81 0 0 0-.66-.19.56.56 0 0 0-.4.31.89.89 0 0 0 .17.88c.69.69 1.46 1.45 2.12 2.11zM108.87 81.14a11.05 11.05 0 0 0-1.78 1.72 6.13 6.13 0 0 0-1.36 2.78 6.6 6.6 0 0 0-2-2.34 2.35 2.35 0 0 0-.62-.36.8.8 0 0 0-.8.2.81.81 0 0 0 0 .8 1.62 1.62 0 0 0 .39.43l.07.06.4.32a2.68 2.68 0 0 1 .65.59 5.18 5.18 0 0 1 1 2.13 1 1 0 0 0 .06.23v.08a.89.89 0 0 0 .89.72h.07a.94.94 0 0 0 .89-.92 8 8 0 0 1 .49-2.17 5.39 5.39 0 0 1 1.5-2.38c.27-.23.55-.45.83-.67s.48-.37.71-.57a1.05 1.05 0 0 0 .25-.37.37.37 0 0 1 .05-.11l.16-.29-.28-.16a1.33 1.33 0 0 0-1.57.28z" fill="#575757"/><path d="M187.22 174.23l-.28-.11a1.29 1.29 0 0 0-1.25-.05h-.05a2.57 2.57 0 0 0-1.18-.11 2.48 2.48 0 0 1-.82 0 2.57 2.57 0 0 0-1.23 0l-.54.08a5.62 5.62 0 0 1-.78 0l-.37-.06a2.76 2.76 0 0 0-1.45 0 1.28 1.28 0 0 1-.45 0h-2.95a1 1 0 0 1 0-.34v-3.9-1.61-3.24-2.9-1.48-2.73-2.45V149.21v-1.27-1.21-4.48c0-.56 0-1.15-.12-1.87a.78.78 0 0 0-.16-.43l.07-.12a2.58 2.58 0 0 0 .22-1.47V136v-5.28-2.95-2.8-2.44-3c0-1 0-2.21-.07-3.31v-1.73-1.11-.69c0-.38.05-.77.05-1.17 0-.67 0-1.33-.05-2s0-1.41 0-2.11v-1.48-13.78c0-.54-.1-.87-.35-1.06a1 1 0 0 0 .27-.28.86.86 0 0 0 .1-.53v-1.65-3.81-2.68-.61V80.42c0-.86 0-1.75.09-2.62a14.54 14.54 0 0 0 0-2 17.2 17.2 0 0 1 0-1.9 23.43 23.43 0 0 0 0-3v-1.14-1.39-1.78-.91-.93a1.76 1.76 0 0 0-.24-1c-.49-.74-1-1.49-1.68-2.32-.36-.47-.74-.92-1.12-1.38l-.63-.76-.12-.14c-.2-.25-.39-.48-.55-.72l-.14-.22a2.84 2.84 0 0 1-.43-.85 9.66 9.66 0 0 1-.13-1 9.75 9.75 0 0 0-.35-1.79 6.17 6.17 0 0 1-.21-1.33c0-.26 0-.52-.09-.78l-.07-.51c-.23-1.53-.46-3.07-.71-4.6-.13-.76-.27-1.51-.41-2.27s-.25-1.37-.36-2c-.15-.92-.3-1.85-.44-2.77-.12-.75-.24-1.51-.37-2.26 0-.28-.1-.56-.16-.84s-.13-.64-.18-1c-.07-.5-.13-1-.19-1.49s-.16-1.21-.25-1.81c-.21-1.3-.42-2.59-.64-3.88-.12-.69-.23-1.37-.35-2s-.19-1.18-.29-1.77c-.16-1-.32-2-.49-3a1.75 1.75 0 0 1 .2-1.32 1.88 1.88 0 0 0 .06-2 1.7 1.7 0 0 0-1.65-.76 1.57 1.57 0 0 1-.43 0v-8.06a2.79 2.79 0 0 0 .5 0 .85.85 0 0 0 .4-.12.63.63 0 0 0 .35.13h.2a1 1 0 0 0 1.05-.2.85.85 0 0 0 .19-.56c0-.28 0-.57-.07-.88l-.12-.58-.19-.08a3.67 3.67 0 0 0-1.5-.18 5.25 5.25 0 0 1-1 0V3.49l-.19-.09a2.69 2.69 0 0 0-1.58-.15h-.35a.71.71 0 0 0-.68.77v.09a3.39 3.39 0 0 0 0 .45 12 12 0 0 1 0 3h-1.23c-.68 0-1 0-1.24.3s-.19.6-.12 1.32a.81.81 0 0 0 .9.84c.46 0 .93 0 1.42.08h.37v.42a1.26 1.26 0 0 1 0 .27 1.37 1.37 0 0 0 0 .75 1.92 1.92 0 0 1 0 1.12 2.68 2.68 0 0 0 .06 1.45 1.14 1.14 0 0 1 0 .37 1.78 1.78 0 0 0-.08.53c0 .39 0 .79.05 1.19s0 .79.06 1.19a3 3 0 0 1-.09.64v.06h-.41a1.68 1.68 0 0 0-1.43.71 1.74 1.74 0 0 0 0 2 1.42 1.42 0 0 1 .26.62c-.06.81-.18 1.61-.33 2.49-.06.38-.14.75-.21 1.13s-.15.73-.21 1.1c-.26 1.56-.51 3.12-.75 4.69-.11.73-.21 1.47-.3 2.2l-.08.6a1.08 1.08 0 0 0 0 .36l-.08.19-.08.16a1.16 1.16 0 0 0-.14.42 43.45 43.45 0 0 1-.7 4.43v.28c-.18.93-.32 1.88-.46 2.8-.07.49-.14 1-.22 1.46l-.27 1.59-.33 2c-.14.89-.27 1.78-.4 2.66s-.27 1.81-.42 2.72c-.11.7-.23 1.4-.35 2.1l-.15.82-.06.39a8.43 8.43 0 0 1-.17.9 4.18 4.18 0 0 1-.95 1.7c-.38.45-.72.93-1.06 1.4-.21.29-.42.59-.64.87s-.62.8-.93 1.19l-1 1.2a1.6 1.6 0 0 0-.34.81V66.9a1.36 1.36 0 0 1 0 .2 2.68 2.68 0 0 0 0 .4c0 .29 0 .59.05.88 0 .48.06 1 .06 1.44v8.35a9.91 9.91 0 0 0 0 1.09 4.54 4.54 0 0 0 .24 1 .46.46 0 0 0 .09.15.81.81 0 0 0-.25.39 4.9 4.9 0 0 0-.11 1.06c0 .66 0 1.32.06 2v4.24c0 1.49-.06 3 0 4.56v5.72a3 3 0 0 1 0 .42 5.52 5.52 0 0 0 0 .58v1.19c0 .4 0 1 .05 1.49v1l-.25-.3-.57-.72-.33-.36a3.42 3.42 0 0 1-.52-.66 6.58 6.58 0 0 0-1.19-1.54l-.22-.24a.68.68 0 0 0-.39-.19l-.18-.05a.86.86 0 0 0 0-.42 1 1 0 0 0-.21-.36l-1.74-2.2h-.14a1.3 1.3 0 0 0-.42-.66 4.94 4.94 0 0 1-.44-.56l-.09-.13a1.76 1.76 0 0 1-.14-.23 2.33 2.33 0 0 0-.26-.38c-.31-.38-.63-.75-1-1.12-.49-.57-1-1.15-1.45-1.73-.7-.87-1.35-1.75-2.08-2.73a.53.53 0 0 1-.11-.31 9.08 9.08 0 0 0 0-1.56v-.54-1.91-1.22-.8-.67-1.77h1c0 .06.06 0 .14 0a2 2 0 0 0 1 .05.88.88 0 0 0 .53-.77c0-.31 0-.61-.06-.93v-.43l-.16-.25-2.51-.17V73l-.25-.06-.2-.06a1.67 1.67 0 0 0-.43-.1H135a1.2 1.2 0 0 0-.88.31 1.22 1.22 0 0 0-.17.88v.4c0 .43.07.84.07 1.25s-.06.85-.1 1.26v.27h-1.19c-.69 0-1 0-1.26.31s-.19.6-.12 1.28.23.81.91.86l1.44.1h.3v.29a4.52 4.52 0 0 0 0 1.71 2 2 0 0 1 0 .81 2.11 2.11 0 0 0 0 1.24l.05.13-.05.12v1.07c0 .65.06 1.33.07 2a2.93 2.93 0 0 1-.65 2.31 11.74 11.74 0 0 0-1.09 1.28l-.21.27-1.59 2c-.59.78-1.19 1.56-1.8 2.33-.28.36-.57.71-.86 1.06s-.61.73-.9 1.11c-.55.71-1.1 1.42-1.64 2.14l-.94 1.23-.51.65-1 1.24c-.63.76-1.26 1.53-1.88 2.31-.24.28-.46.58-.68.87l-.56.73-.59.72c-.24.29-.47.57-.7.87-.38.49-.76 1-1.13 1.48l-.77 1c-.34.44-.71.87-1.07 1.28a20.14 20.14 0 0 0-1.6 2l-.08.12a4.14 4.14 0 0 1-.34.48c-.3.38-.6.75-.91 1.12s-.83 1-1.23 1.52-.79 1-1.19 1.52l-.93 1.2a1 1 0 0 1-.18.17 1.23 1.23 0 0 0-.39.5 1.07 1.07 0 0 1-.61.73.7.7 0 0 0-.42.53c0 .18-.12.29-.33.48a6.4 6.4 0 0 0-.65.73l-1.09 1.44-.24.33-.08-.08c-.25-.24-.48-.47-.72-.68l-.37-.34a12.7 12.7 0 0 0-1.31-1.1l-.62-.47a7 7 0 0 0-1.86-1.15 2.11 2.11 0 0 0-1.08-.71 4.48 4.48 0 0 1-1.58-.92.9.9 0 0 0-.32-.19h-.08l-.44-.21a5.62 5.62 0 0 1-.88-.46 13.45 13.45 0 0 1-1.13-.86l-.64-.49a9.06 9.06 0 0 1-2.69-3.16 7 7 0 0 1-.55-1.91l-.07-.34a4.81 4.81 0 0 1 .33-2.37v-.08c.08-.25.14-.49.21-.74s.16-.63.26-.92a5.08 5.08 0 0 0 .21-.9 3.4 3.4 0 0 1 .27-1 2.91 2.91 0 0 0 .3-1.61 2.8 2.8 0 0 1 .1-.95v-.2a1.1 1.1 0 0 0 0-.45c0-.25-.08-.5-.11-.75A4.17 4.17 0 0 0 92 99.9a.87.87 0 0 1 0-.1 1.36 1.36 0 0 0 0-.17v-.17a2 2 0 0 0-.77-1.28A.83.83 0 0 1 91 98a4.08 4.08 0 0 0-2-2.46l-.09-.09-.06-.08A7.68 7.68 0 0 0 87 93.93a3.39 3.39 0 0 1-.54-.43l-.23-.2-.09-.09a1.25 1.25 0 0 0-.24-.21 10.18 10.18 0 0 1-1.78-1.49 4.93 4.93 0 0 1-1.19-4.26 5.77 5.77 0 0 0 0-.83v-.12-.42a4 4 0 0 1 0-.59V85a11.42 11.42 0 0 0-.25-3.93c0-.19-.1-.38-.16-.56a6.62 6.62 0 0 0-1.25-2.79.67.67 0 0 0-.09-.26 3.91 3.91 0 0 0-.3-.41v-.06l-.17-.19a1.39 1.39 0 0 1-.22-.29A3.72 3.72 0 0 0 78.9 75l-.49-.28a8.78 8.78 0 0 0-2.06-.94l-.47-.1a2.75 2.75 0 0 1-.7-.19 4 4 0 0 0-2-.25h-.61a1.38 1.38 0 0 0-.52.16.71.71 0 0 1-.19.08A3.43 3.43 0 0 0 70 74c-.67.38-1.32.82-2 1.24l-.26.18a2.45 2.45 0 0 0-.64.6c-.59.81-1.07 1.5-1.5 2.15a4.78 4.78 0 0 0-.6 1.2c-.21.69-.39 1.38-.56 2.06l-.19.73a1.34 1.34 0 0 0-.05.35v1.31c0 .27 0 .34-.05.51a3 3 0 0 0 .07 1.57 4.81 4.81 0 0 1 .2 1.39 4 4 0 0 1-.11.89 4.39 4.39 0 0 0-.1 1.26.54.54 0 0 0 0 .11L64 90a5.35 5.35 0 0 1-.7 1.44.44.44 0 0 0-.06.39v.06l-.29-.09-.14.16c-.08.08-.15.17-.22.25a2.23 2.23 0 0 1-.36.38c-.5.34-1 .67-1.53 1l-.47.29-.29.17a3.57 3.57 0 0 0-.51.32c-.4.3-.79.61-1.18.92l-.51.4a1.24 1.24 0 0 0-.3.27l-.49.63a13.67 13.67 0 0 1-.88 1.1 3 3 0 0 0-.77 1.86.87.87 0 0 1-.13.36 4.45 4.45 0 0 0-.52 1.42 6.54 6.54 0 0 1-.24.82.79.79 0 0 0 0 .37c0 .22.08.43.13.65a2.76 2.76 0 0 1 .11 1.23v.19a5.49 5.49 0 0 1 .26 1.18 4.59 4.59 0 0 0 .56 1.86 1 1 0 0 1 .09.36 1.55 1.55 0 0 1 0 .21c0 .18.06.35.1.53a9.48 9.48 0 0 0 .2 1c0 .12.07.24.1.36a3.63 3.63 0 0 1 .2 1.77.72.72 0 0 0 .37.72h.06a.78.78 0 0 0-.27.23 5 5 0 0 0-.54 1 6.86 6.86 0 0 1-1.69 2.47l-.5.45a7.16 7.16 0 0 1-2.68 1.78.87.87 0 0 0-.31.2 4.34 4.34 0 0 1-1.82 1.13 1.2 1.2 0 0 0-.4.23l-.1.07-.24.16c-.2.13-.4.26-.59.4a2.79 2.79 0 0 1-.54.3 2.17 2.17 0 0 0-1.12.91 4.26 4.26 0 0 0-2 1.07 12.21 12.21 0 0 0-1.05 1.11l-.36.4c-.15.17-.32.34-.48.5a9 9 0 0 0-1.16 1.38c-.1.16-.22.32-.35.49a2.81 2.81 0 0 0-.75 1.51 2.37 2.37 0 0 0-.74 1.44c0 .15-.07.3-.11.44a13.5 13.5 0 0 0-.49 2.67v.27a11 11 0 0 0 .3 4.3v.32a4.68 4.68 0 0 0 .07 2.11c.05.3.11.58.13.87s0 .62.07.93 0 .78.08 1.16v.32a2.29 2.29 0 0 1 .05.5c0 .68-.06 1.35-.1 2v.71a1.27 1.27 0 0 1-.16.71 1.14 1.14 0 0 0-.11.72v.2a1.8 1.8 0 0 0 0 .22.78.78 0 0 0 0 .09l-.11.41a1.85 1.85 0 0 1-.56 1.1.71.71 0 0 0-.27.43 5.77 5.77 0 0 1-1.26 2.31l-.15.19a2.37 2.37 0 0 0-.5.79 2.45 2.45 0 0 1-.92 1.23 8.81 8.81 0 0 0-1.13 1.19 9.25 9.25 0 0 1-.66.72 10.47 10.47 0 0 0-1 1.15 9.24 9.24 0 0 1-1.07 1.28 3.65 3.65 0 0 0-1 1.36 1.75 1.75 0 0 1-.23.35 1.6 1.6 0 0 0-.41.92.77.77 0 0 0-.12.13l-.14.21a3.14 3.14 0 0 0-.36.62 12.51 12.51 0 0 0-.66 1.82 1.15 1.15 0 0 0 .41 1.09.77.77 0 0 0-.62.25 1.23 1.23 0 0 0-.29 1.39 1.75 1.75 0 0 1 .1.44l.12 1.07c.06.65.13 1.31.22 2a2 2 0 0 0 .27.66l.11.19.18.35.38.72c.16.31.32.63.49.94s.27.48.41.72h-.24a1.17 1.17 0 0 1-.31 0 .92.92 0 0 0-1-.06.8.8 0 0 1-.31.08 4 4 0 0 0-1.93-.13 6.19 6.19 0 0 1-1.49 0c-.33 0-.65-.05-1-.05a4.62 4.62 0 0 0-1.26.23.76.76 0 0 0-.46.72.78.78 0 0 0 .53.64 5.92 5.92 0 0 0 1 .1h3.01a1.67 1.67 0 0 1 .31 0 2.16 2.16 0 0 0 .67 0l.27-.06a1.42 1.42 0 0 1 1.13 0 .49.49 0 0 0 .46 0h.39a2.73 2.73 0 0 0 1.4.1H31.48a.84.84 0 0 1 .33 0 3.4 3.4 0 0 0 1.51.11 2.6 2.6 0 0 1 1.28.09.61.61 0 0 0 .47 0 1.17 1.17 0 0 1 .48-.06 1.65 1.65 0 0 0 .84-.15h.13l.33.05a5.58 5.58 0 0 0 .73.1h2.17a13.58 13.58 0 0 0 1.43 0h.35a4.15 4.15 0 0 1 .93 0 10.7 10.7 0 0 0 1.26.05h.59a15.26 15.26 0 0 0 1.66-.06h.8a5 5 0 0 1 .55 0h.73c.43 0 .88.05 1.32 0h.6a3.06 3.06 0 0 1 1.17 0 1.36 1.36 0 0 0 .66 0 6.88 6.88 0 0 1 2.08 0c.33 0 .65.05 1 .05h.26a8.64 8.64 0 0 0 2.57-.2.47.47 0 0 1 .2 0 5 5 0 0 0 2.18.21h3.38a3.93 3.93 0 0 0 .6-.06H64.75l.65.08a5.49 5.49 0 0 0 1.57 0 4.67 4.67 0 0 1 1 0 6.42 6.42 0 0 0 .76 0 4.87 4.87 0 0 1 .54 0 4.15 4.15 0 0 0 .86 0l.26-.05c.33-.07.53-.11.74 0a.75.75 0 0 0 .81-.08c.07-.07.09-.08.34 0h.1a1.51 1.51 0 0 0 .69.08 7 7 0 0 1 .92 0 3.77 3.77 0 0 0 1.94-.27h.29c.66 0 1.31-.06 2-.07a1.65 1.65 0 0 0 1.24.09l.28-.06.21-.05h.12l.3.05a1.32 1.32 0 0 0 1.08-.11h.14l.5.06a6.88 6.88 0 0 0 1.29.09 1.45 1.45 0 0 1 1 .23.94.94 0 0 0 .56.22.77.77 0 0 0 .37-.09 5.34 5.34 0 0 1 2.26-.4 10.52 10.52 0 0 0 1.26-.08h.73c.5 0 1 .07 1.53.07h1.29l.82-.05h.21a8 8 0 0 1 1.2 0 8.65 8.65 0 0 0 2.59 0 1 1 0 0 1 .29 0h.18l.63.08a5.08 5.08 0 0 0 1.51.07 16 16 0 0 1 3.34-.14h1.66c.54 0 1.41 0 2.1.05a10.64 10.64 0 0 0 1.6 0h3.66a6 6 0 0 1 .84-.05l1.72.05h1.64c.71 0 1.39 0 2.07-.06a13.16 13.16 0 0 1 2.07.06c.33 0 .65.05 1 .06a1.22 1.22 0 0 0 .33 0h1.73a9.26 9.26 0 0 1 1.67 0 5 5 0 0 0 .95 0h2.76a2.58 2.58 0 0 0 .4 0h.2a2.23 2.23 0 0 1 .45 0H131.18a3.17 3.17 0 0 0 .71.07l1.83-.11c.38 0 .75-.05 1.1-.1a.78.78 0 0 0 .83.26h.12a5.15 5.15 0 0 0 .53-.07 4.06 4.06 0 0 1 1.14-.05 8.49 8.49 0 0 0 1.5.05h3.05a6.71 6.71 0 0 0 1.25 0h.21a1.79 1.79 0 0 1 1.17.06.73.73 0 0 0 .66-.06c.12-.09.22-.07.51 0a1.49 1.49 0 0 0 1 .09 2 2 0 0 1 .94-.1h.14c.75 0 1.5 0 2.24.05H152.02c.35 0 .71 0 1.06-.06a14.17 14.17 0 0 1 1.84 0h.08a14.28 14.28 0 0 0 2.07 0 4.12 4.12 0 0 1 .77.06l.74.07c.76 0 1.53 0 2.27-.07h2.19a4.2 4.2 0 0 0 1 0 .69.69 0 0 1 .63.12 1 1 0 0 0 .73.23c.24 0 .48-.08.71-.13a5.12 5.12 0 0 1 .54-.1l.34-.06a3.68 3.68 0 0 1 1-.08 8.15 8.15 0 0 0 1.46.06h.13c.32 0 .64 0 1-.08a3.93 3.93 0 0 1 1.13 0 3.44 3.44 0 0 0 1.74-.09 2.7 2.7 0 0 0 1.3.16h.23c.63 0 1.27 0 1.9.06a15.31 15.31 0 0 0 2.71 0h.14a4 4 0 0 1 .92 0 3.53 3.53 0 0 0 1.59-.2.33.33 0 0 1 .17 0 3.7 3.7 0 0 0 2.15.06 1 1 0 0 1 .42 0 4.37 4.37 0 0 0 1.4 0c.18 0 .37-.05.56-.06a.77.77 0 0 0 .42-.11.68.68 0 0 0 .31-.65.56.56 0 0 0-.45-.85zM160.14 19.68a4.45 4.45 0 0 1 .71-.09h1.68a12.91 12.91 0 0 1 1.52.09c.22 0 .32.17.31.25s-.3.22-.38.22h-.32a3.85 3.85 0 0 0-.48 0 1.08 1.08 0 0 0-.66.21v-.13h-1.33a8.48 8.48 0 0 1-1-.11.27.27 0 0 1-.23-.24s-.05-.15.18-.2zm-5.44 37.51c.06-.29.13-.58.19-.88.12-.55.24-1.12.34-1.69s.18-1.16.26-1.75c0-.37.1-.75.16-1.13.15-1 .31-2 .47-3l.45-2.93c.12-.79.23-1.58.36-2.36.08-.48.17-1 .26-1.44s.17-.9.24-1.35.1-.66.14-1 .1-.7.16-1 .13-.73.21-1.09.16-.8.23-1.21a5.89 5.89 0 0 0 .05-1.12 1.11 1.11 0 0 0-.15-.58.59.59 0 0 0 .25-.22 1.58 1.58 0 0 0 .28-.85 5.64 5.64 0 0 1 .18-1.39c0-.16.07-.33.1-.49.23-1.32.44-2.66.64-4l.27-1.71c.22-1.37.45-2.75.67-4.12a1.23 1.23 0 0 1 .07-.26.91.91 0 0 1 .31 0 8.55 8.55 0 0 0 1.11-.05l.26-.07 1.46.17.18 1c.17 1 .34 2 .5 2.95.32 1.93.63 3.87.93 5.8 0 .24.07.49.1.73a9.32 9.32 0 0 0 .27 1.55 10.67 10.67 0 0 1 .32 1.72c0 .32.08.64.13 1 .13.75.25 1.5.37 2.26l.16 1v.08c.06.31.13.62.2.93a11.19 11.19 0 0 1 .32 2 14.43 14.43 0 0 0 .3 2.12c.08.42.16.85.22 1.27.18 1.44.44 2.88.68 4.28.09.51.18 1 .26 1.54.13.72.25 1.45.38 2.17s.29 1.71.43 2.57a4.78 4.78 0 0 1 .07.65h-2.34l-3-.05h-.29l-1.63.12c-.22 0-.44 0-.66.08a.41.41 0 0 0-.22.1h-.05a2 2 0 0 0-1.54-.14.77.77 0 0 0-.35.21v-.18l-4.74-.12s.03-.1.03-.12zm-4.95 21.14c0-.92-.05-1.84-.06-2.76a7.67 7.67 0 0 1 .05-.82v-.72-.94-1.88a.86.86 0 0 0 0-.16.82.82 0 0 1 0-.14 23.39 23.39 0 0 0 .06-4.1 7.91 7.91 0 0 1 .06-1.19v-.33h1.09c.92 0 1.87.07 2.81 0a51.34 51.34 0 0 1 6.07 0H163.38a20 20 0 0 0 2.05 0 7.12 7.12 0 0 1 1.22 0h2.14a13.93 13.93 0 0 0 1.71 0h.15a13.16 13.16 0 0 1 2.26 0 .84.84 0 0 0 .67-.16.64.64 0 0 0 .21-.49.66.66 0 0 0-.2-.52.83.83 0 0 0-.59-.12h-.46a3 3 0 0 1-.51 0 2.61 2.61 0 0 1-.48 0 5.05 5.05 0 0 0-.67-.06h-1.22a25 25 0 0 1-4.32-.11.88.88 0 0 0-.33 0h-.09l-.67.06c-.54 0-1.1.09-1.64.1a6.26 6.26 0 0 1-.86 0 6.37 6.37 0 0 0-1.38 0 6.88 6.88 0 0 1-1.57 0 8.37 8.37 0 0 0-1.59 0 12.27 12.27 0 0 1-1.72 0 11.52 11.52 0 0 0-2.11.07 3.51 3.51 0 0 1-1.15-.08 3.46 3.46 0 0 0-1.39 0 5 5 0 0 1-.58.05l.44-.58q.93-1.24 1.89-2.49l.73-.93c.23-.28.46-.56.68-.85a1.08 1.08 0 0 1 1-.37h4a.54.54 0 0 0 .3-.11l.17-.1v-.11a.84.84 0 0 0 .44.26 1.75 1.75 0 0 0 .4 0 2.09 2.09 0 0 0 .43 0 1 1 0 0 0 .6-.32l.16.4h7.17a1.62 1.62 0 0 0 .57-.05.71.71 0 0 1 .91.34c.3.43.64.83 1 1.22l.47.57.5.62c.59.73 1.18 1.46 1.75 2.2a1.93 1.93 0 0 1 .52 1.15v1.83a5.06 5.06 0 0 0 0 .95 10.4 10.4 0 0 1 .09 2.24v7.89c0 .54-.06 1.09-.06 1.64v6.62c0 .51 0 .86.06 1.27s0 .53 0 .8v.7H161.1a5.05 5.05 0 0 0-.67.06 4.28 4.28 0 0 1-.6 0h-2.68l-3.43-.06c-.54 0-1.09 0-1.62.06h-1.16a6.7 6.7 0 0 1-.88 0h-.15v-.12V87.12c0-.64-.07-1.31-.07-2 0-.44 0-.89.06-1.33s.06-.8.06-1.2a9.89 9.89 0 0 0-.11-1.53.65.65 0 0 0-.17-.3.59.59 0 0 0 .2-.3 2.4 2.4 0 0 0 0-.65zm-76.19 6a.6.6 0 0 1-.08-.08l-.23-.25-.25.23-.1.09a.73.73 0 0 0-.36.48c-.05.54-.07 1.1-.08 1.63v3.13a2.62 2.62 0 0 1 0 .28 2.71 2.71 0 0 0 .05.75 3.42 3.42 0 0 1 0 1.46 3.41 3.41 0 0 0-.08.85 5.4 5.4 0 0 0 0 .56 4.19 4.19 0 0 1 0 .5v5.21a11.88 11.88 0 0 0 0 2.31 5.2 5.2 0 0 1 0 .89V109l-.77-.78-1.14-1.22-1.52-1.55-.57-.59c-.2-.22-.4-.43-.61-.64l-.9-.87-.92-.9-.47-.51c-.17-.18-.33-.36-.5-.53a1.26 1.26 0 0 0-1-.44.6.6 0 0 0-.43.25.85.85 0 0 0 .25 1.14l.46.47c.91.94 1.85 1.91 2.8 2.84l1 1a25.54 25.54 0 0 1 2.14 2.15l.18.21c.17.2.35.41.54.6l.62.57c.23.21.47.42.68.63a.67.67 0 0 1 .19.28 18 18 0 0 0 0 2.73 19.53 19.53 0 0 1 0 2.42v8.41a.6.6 0 0 1 0 .12v7.53c-.2-.2-.39-.41-.58-.61-.39-.41-.78-.82-1.18-1.22-.82-.82-1.66-1.63-2.49-2.44l-1.06-1a.92.92 0 0 0-.63-.32h-.11a.88.88 0 0 0-.33-.75l-.58-.55-.5-.48c-.14-.14-.26-.29-.39-.44a6.1 6.1 0 0 0-.41-.46c-.55-.57-1.1-1.13-1.66-1.68l-.74-.75c-.23-.24-.47-.47-.71-.7a1.24 1.24 0 0 0-.38-.22l-.15-.07-.17-.08-.16.09-.09.05a.7.7 0 0 0-.37.32.77.77 0 0 0 .06.68 1.43 1.43 0 0 0 .29.34l.06.06.42.39c.26.24.52.47.76.72l1.72 1.77 1.2 1.24c.3.31.58.57.84.8a1 1 0 0 0 .66.32l-.08.09.19.28a1.46 1.46 0 0 0 .16.19q1.64 1.68 3.29 3.34l.67.7c.58.6 1.17 1.22 1.82 1.77a1.92 1.92 0 0 1 .66 1.56v18.92a6.13 6.13 0 0 1-.19 2.1 1.45 1.45 0 0 0 0 .82 7.45 7.45 0 0 1 .12 2.46V174.28a.91.91 0 0 1 0 .2h-.7a23.45 23.45 0 0 0-3-.05 5.31 5.31 0 0 1-.79 0 7.73 7.73 0 0 0-.84 0 .68.68 0 0 1-.64-.29c-.62-.69-1.28-1.39-2-2.12-.32-.32-.64-.62-1-.92s-.67-.61-1-.93c-.66-.65-1.3-1.32-2-2l-1.83-1.86c-.48-.48-1-1-1.47-1.43l-1.42-1.4c-.36-.36-.7-.72-1-1.09s-.54-.58-.82-.86c-.62-.64-1.26-1.29-1.91-1.91-.45-.44-.92-.88-1.41-1.31a1.15 1.15 0 0 0-.63-.26.58.58 0 0 0-.55.25.6.6 0 0 0 0 .63 1.28 1.28 0 0 0 .25.3l.63.64.76.76 1.21 1.24 1.82 1.84 1.26 1.27 1 1L58 167.5l1.52 1.55c.62.62 1.23 1.25 1.86 1.86l.23.23a17.45 17.45 0 0 0 1.68 1.52 7.28 7.28 0 0 1 1.32 1.39l.18.22H58.06a10.25 10.25 0 0 1-1.84 0 5.69 5.69 0 0 0-1.24 0 3.33 3.33 0 0 1-1.48-.07.7.7 0 0 0-.41 0h-1.73a6.68 6.68 0 0 0-1.26.05 2.8 2.8 0 0 1-.86 0l-.39-.08a4.42 4.42 0 0 0-1.31-.12 14.76 14.76 0 0 1-2.84.12 12.16 12.16 0 0 0-1.6 0 10 10 0 0 1-1.54 0 3.69 3.69 0 0 0-.47 0 4 4 0 0 1-.5 0 7.63 7.63 0 0 0-1.51 0h-.49q-.54 0-1.08.06h-1.03l-.25-.06a2.11 2.11 0 0 0-.51 0 5.17 5.17 0 0 1-2.12-.17 1.48 1.48 0 0 0-1.46.16c-.34.22-.5.19-.75-.15l-.15-.2a4.92 4.92 0 0 1-1-1.82 1.6 1.6 0 0 0-.17-.42v-.11a7.21 7.21 0 0 1-.83-3c0-.85-.07-1.51-.12-2.13a.81.81 0 0 0-.4-.58h.09a.35.35 0 0 0 .16 0 .82.82 0 0 0 .48-.54v-.08a1.27 1.27 0 0 0 .11-.38 3.38 3.38 0 0 1 .54-1.28l.15-.24a4.52 4.52 0 0 0 .29-.64 1.86 1.86 0 0 1 .8-1.09.45.45 0 0 0 .22-.32l.19-.31c.17-.29.34-.58.53-.86a5.5 5.5 0 0 1 .69-.87 4.92 4.92 0 0 0 .48-.56 2.61 2.61 0 0 1 .82-.77 1.56 1.56 0 0 0 .53-.49l.19-.23a13 13 0 0 1 1.87-2 1.35 1.35 0 0 0 .29-.36l.47-.76c.46-.74.92-1.48 1.36-2.23a6.81 6.81 0 0 0 .71-1.46 23.59 23.59 0 0 0 .64-2.63 16.69 16.69 0 0 0 .27-4.65c0-.34-.05-.68-.07-1a14.37 14.37 0 0 0-.36-2.89 3 3 0 0 1-.07-.62v-.08-.6a5.12 5.12 0 0 0-.1-1.41 6.82 6.82 0 0 1-.1-2.07v-.36a22.31 22.31 0 0 1 .25-2.42 4.92 4.92 0 0 1 .18-.59 2.66 2.66 0 0 0 .24-1.15l.37-.64c.44-.76.88-1.52 1.33-2.27a1.62 1.62 0 0 1 .29-.31.86.86 0 0 0 .14-.13l.38-.33a4 4 0 0 0 .82-.87 4.63 4.63 0 0 1 1.73-1.58 1.51 1.51 0 0 0 .72-.66l.23-.06a1.07 1.07 0 0 0 .27-.09l.62-.33a16 16 0 0 0 1.58-.94 18.31 18.31 0 0 1 2.23-1.33 15.09 15.09 0 0 0 3.31-2.27 2.72 2.72 0 0 0 .34-.34l.46-.56a14.6 14.6 0 0 0 1.12-1.42c.2-.3.38-.61.55-.92l.42-.71a1.47 1.47 0 0 0 .2-.88.82.82 0 0 0-.26-.47.39.39 0 0 0 .14-.1 1.25 1.25 0 0 0 .35-1.07 4.43 4.43 0 0 1-.17-1 4.2 4.2 0 0 0-.43-1.74 5.52 5.52 0 0 1-.49-1.79c0-.23-.07-.46-.12-.68s-.05-.39-.07-.59a3.7 3.7 0 0 0-.39-1.46 2.41 2.41 0 0 1-.22-1.27 5.84 5.84 0 0 0 0-.83s.05-.09.07-.14a.41.41 0 0 1 .05-.09.73.73 0 0 0 .14-.47 1.8 1.8 0 0 1 .23-1c.07-.18.14-.35.2-.53A6.23 6.23 0 0 1 58 97.71a7.93 7.93 0 0 1 1.1-1.07c.31-.26.65-.5 1-.74l.57-.41.6-.47.5-.39.72-.55c.45-.34.91-.69 1.35-1a.94.94 0 0 0 .25-.36s0-.09.07-.14l.14-.26a.82.82 0 0 0 .31-.2 3 3 0 0 0 .92-1.29 17 17 0 0 0 .37-2.21c0-.19 0-.39.07-.58a3.16 3.16 0 0 0 0-.62v-.86a26.45 26.45 0 0 1-.07-3.33 6.15 6.15 0 0 1 .1-.85c0-.15.05-.31.07-.46a8.27 8.27 0 0 1 .27-1.28 5.43 5.43 0 0 1 .4-.85A7.07 7.07 0 0 0 67 79a4.71 4.71 0 0 1 1.44-2l.45-.4a4.73 4.73 0 0 1 .76-.61 7.75 7.75 0 0 1 1.58-.78 6.55 6.55 0 0 1 3-.34 6 6 0 0 1 .84.17c.17 0 .35.08.54.12a3.39 3.39 0 0 1 1.1.36l.55.33a4.66 4.66 0 0 1 1.41 1.1q.81 1 1.59 2a1 1 0 0 1 0 .15v.13c0 .18.09.37.14.56a6.36 6.36 0 0 0 .4 1.31 3.6 3.6 0 0 1 .27 1.26V82.93a3.22 3.22 0 0 0 0 .43 3 3 0 0 0 .06.42v.27a5.3 5.3 0 0 1 0 1.19 4.44 4.44 0 0 0 .07 1.81v.63a6.15 6.15 0 0 0-.07 1 5.19 5.19 0 0 0 .23 1.53 5.76 5.76 0 0 0 .48 1l.2.37v.06a1.66 1.66 0 0 0 .2.32c.15.16.29.33.43.49A5.43 5.43 0 0 0 84.48 94a1.5 1.5 0 0 1 .33.26l.21.19.29.24a6.07 6.07 0 0 0 1.54 1 2.41 2.41 0 0 1 .65.53c.68.69 1.29 1.33 1.86 2l.08.08a3.11 3.11 0 0 1 .61.83 12.06 12.06 0 0 1 .6 1.89 19 19 0 0 1 .37 2 1.69 1.69 0 0 1 0 .59c-.16.75-.33 1.51-.51 2.26v.19l-.66 2.71c-.08.32-.17.63-.26.94v.17a2.74 2.74 0 0 0 0 2.11.37.37 0 0 1 0 .09 2.68 2.68 0 0 0 .36 2.06 3.15 3.15 0 0 1 .18.41c0 .09.07.18.1.26l.06.16a2 2 0 0 0 .25.48c.44.61.9 1.2 1.37 1.81a2.3 2.3 0 0 0 .48.51c.84.62 1.68 1.22 2.52 1.82.18.13.37.25.56.37l.44.29.3.22a3.5 3.5 0 0 0 .58.4c.33.18.68.34 1 .5a10.42 10.42 0 0 1 2.46 1.45 4.46 4.46 0 0 0 .76.49 3.58 3.58 0 0 1 .69.45 13.24 13.24 0 0 0 1 .85 7.49 7.49 0 0 1 1.51 1.4 1.29 1.29 0 0 1 .13.19h-.13a3.12 3.12 0 0 1-.56.09h-.29a1 1 0 0 0-.51.18 1 1 0 0 0-.69-.19h-.83c-1.34 0-2.69 0-4-.07H82.4a1.11 1.11 0 0 0-.7.18l1-1 1.47-1.45c.41-.4.81-.8 1.21-1.21a.89.89 0 0 0 .17-1.18l-.14-.25-.27.11-.19.06a1.33 1.33 0 0 0-.58.27c-.36.34-.71.7-1 1.06l-.46.47c-.36.37-.73.74-1.1 1.1l-1 .93c-.44.42-.89.85-1.33 1.29l-1 1c-.35.36-.7.72-1.06 1.07s-.69.67-1 1l-1.24 1.21c-.3.3-.59.61-.88.92-.12.13-.23.26-.35.38v-2.77a3 3 0 0 0 0-.43 2.82 2.82 0 0 1 0-.41v-1-1.4-2.31-2.2-5.85a2.45 2.45 0 0 0 0-.27 1 1 0 0 1 0-.17v-.63-1.67c0-.19 0-.38.05-.58a4.1 4.1 0 0 0 0-.86 1.2 1.2 0 0 1 .27-.83 5.17 5.17 0 0 1 .62-.7c.9-.91 1.8-1.81 2.71-2.71l.58-.55c.22-.2.44-.4.64-.61s.48-.49.71-.74l.42-.45a1.51 1.51 0 0 0 .44-.74.91.91 0 0 0 .89-.48 8.11 8.11 0 0 1 .55-.64l.16-.18.01.01a1.11 1.11 0 0 0 .32-.38c.05-.09.26-.6 0-.91a.63.63 0 0 0-.45-.26.89.89 0 0 0-.65.29L81 102a6.89 6.89 0 0 0-.65.67 5.81 5.81 0 0 0-.45.69l-.17.23-.21.17a2.21 2.21 0 0 0-.57.33c-.62.56-1.21 1.13-1.9 1.83-.56.55-1.1 1.11-1.65 1.67l-.85.88c-.2.21-.4.41-.62.6v-.72a9.89 9.89 0 0 1 0-1.09 30.32 30.32 0 0 0 0-3.16v-1.13-1.52-2.3-1.35c0-.45.05-.84.05-1.27v-1.4V93v-1.86-1.75-2.46-.8c0-.41 0-.9-.08-1.39a.72.72 0 0 0-.34-.42zm1.51 60.21a1.07 1.07 0 0 0 .78.45l1.24.05h.81l.65.05v5.27a.57.57 0 0 1-.09.28q-.7.74-1.44 1.44l-3.11 3.1a.41.41 0 0 1 0-.11c0-.27 0-.55.05-.82s.06-.82.06-1.23v-.84-.72-1.36-2.5-2.11V144 141.85a17.31 17.31 0 0 1 0-2.79 12.65 12.65 0 0 0 0-3.49 1.69 1.69 0 0 1 .6-1.69l.1-.11.05-.05.76-.76 1.47-1.69c.41-.41.8-.84 1.2-1.26s1.05-1.1 1.59-1.64 1.1-1.11 1.66-1.65a1.29 1.29 0 0 0-.18.33c-.07.2-.15.41-.23.61a11.15 11.15 0 0 0-.55 1.63 2.74 2.74 0 0 1-.26.67 3 3 0 0 0-.16.31c-.37.83-.71 1.68-1 2.51l-.2.53c-.08.19-.14.38-.2.57s-.13.37-.2.55c-.16.42-.34.84-.51 1.25s-.42 1-.62 1.51c-.41 1.06-.83 2.13-1.24 3.2l-.75 2c0 .13-.11.25-.17.38a4.71 4.71 0 0 0-.29.77 1.2 1.2 0 0 0 .18.99zM78.62 174h-2.71a4 4 0 0 0-2 .23v-.3-1.72-1.28c0-.62-.06-1.26-.06-1.89 0-.92 0-1.84.07-2.77s.05-1.65.06-2.48 0-1.68 0-2.49V159.15v-1.41a1.21 1.21 0 0 1 .41-.94c.41-.4.81-.82 1.21-1.23s1-1 1.48-1.48.9-.85 1.39-1.29l.18-.16a1.52 1.52 0 0 1 0 .67 5.92 5.92 0 0 0-.09 1.57v16.06c0 .55 0 1.11.08 1.64v1a3.3 3.3 0 0 1-.02.42zm25.24-19.41V174h-.16l-1.07.12h-.23l-.74-.06a11.26 11.26 0 0 0-1.86-.06 13.48 13.48 0 0 1-1.71 0h-3.56a.48.48 0 0 0-.32.07c-.14.1-.25.08-.54 0l-.28-.06a6.73 6.73 0 0 0-1.09-.05 4.87 4.87 0 0 1-.94 0 2.54 2.54 0 0 0-.73 0h-.3a3.38 3.38 0 0 1-.45 0 3 3 0 0 0-1.34.19.53.53 0 0 1-.23 0l-.41-.09a2.75 2.75 0 0 0-1.79 0h-.23a1.46 1.46 0 0 0-.38-.05h-.73A10 10 0 0 1 83 174a2.59 2.59 0 0 0-1.36.09.18.18 0 0 1-.09 0 1.87 1.87 0 0 0-1.22 0h-.08a.38.38 0 0 1-.16 0 .44.44 0 0 1 0-.22 7.48 7.48 0 0 1 0-.82v-.64c0-.83 0-1.66-.08-2.49v-1.53a.49.49 0 0 1 0-.12v-.14-.81c0-.62.07-1.26.06-1.9s0-1.33 0-2v-1.81-1.34-1.36-1.44-1.23a7 7 0 0 1 0-.78v-.91a3.64 3.64 0 0 0 0-1.14 3.41 3.41 0 0 1 0-1.06v-.69-1-1.85-1.48-2.18a2.08 2.08 0 0 1 0-.23H87.96a15.32 15.32 0 0 0 1.66 0h5.2a2.57 2.57 0 0 0 .61 0 .81.81 0 0 0 .69-.58l.18.55h7.67v6.76c-.11 1.02-.07 1.98-.11 2.92zm0-10.91H103a17.6 17.6 0 0 0-2.41 0 23 23 0 0 1-3.42 0 2.66 2.66 0 0 0-.69.08l-.31.06-.37.06h-.13a1.24 1.24 0 0 0-.4-.08c-1.09 0-2.17-.07-3.26-.09H81.66a16.61 16.61 0 0 1-1.87.06h-.56a21.48 21.48 0 0 0-2.66 0h-.16l.16-.39c.21-.5.41-1 .59-1.46l.51-1.42c.18-.52.36-1 .56-1.57s.47-1.18.71-1.77c.16-.39.32-.78.47-1.17s.22-.56.33-.84.28-.76.43-1.13.37-.85.56-1.27.48-1.1.71-1.65a2 2 0 0 0 .1-.69v-.12l.12-.15a3.77 3.77 0 0 0 .36-.58 9.92 9.92 0 0 0 .53-1.44c.07-.22.15-.3.45-.28h.27c.39 0 .78.06 1.18.06h4.47l2.44-.05c1.06 0 2.12-.06 3.17-.07.36 0 .71 0 1.09.06l.95.06h5.58a1.1 1.1 0 0 0 .49-.08h.32a1.29 1.29 0 0 0-.41.7l-.15.12-.13.12a5 5 0 0 0-.38.41c-.32.4-.63.81-.95 1.22s-.43.56-.65.83a1.16 1.16 0 0 0 0 1.67 3.39 3.39 0 0 0 .65.56 1.19 1.19 0 0 0 1.54-.22c.2-.25.39-.52.59-.78s.33-.46.5-.68.17-.21.26-.32v10.29a1.09 1.09 0 0 0 0 .18 1.4 1.4 0 0 1 0 .3 1.85 1.85 0 0 0 .07 1.25.28.28 0 0 1-.06.19zM123 169a4.18 4.18 0 0 0 0 .61v4.17a.41.41 0 0 1-.08.3.4.4 0 0 1-.28 0 6.13 6.13 0 0 0-1.34-.12h-3.7a3.82 3.82 0 0 0-.75 0h-.18c-.22.05-.27.06-.35 0a.8.8 0 0 0-.62-.12 12.1 12.1 0 0 1-2.7.16h-.54a13.89 13.89 0 0 0-1.71.1c-.28 0-.56.06-.84.07a2 2 0 0 1-.48 0 8.48 8.48 0 0 0-2.63-.13 6.47 6.47 0 0 1-1.26 0h-.36V160.8h5.75a3.14 3.14 0 0 0 .53 0c.69 0 1.26-.05 1.78-.11a.62.62 0 0 0 .43-.3.7.7 0 0 0 .53.3 16.2 16.2 0 0 0 1.71.11H122.52c.33 0 .43 0 .45.07s.07.1.07.4v4.54a10.7 10.7 0 0 0 .09 2.39 2.79 2.79 0 0 1-.13.8zm-17.74-9.7v-1H116.07l4.11.06h2.74a5.82 5.82 0 0 1 0 .59v.35c0 .01-.06 0-.33 0H115.15a6 6 0 0 0-.86.07h-.57l-.07.2v.05a.7.7 0 0 0-.47-.24H105.28zm29.49 12.71v1.46c0 .43-.07.51-.09.52s-.12.05-.57 0a6 6 0 0 0-.85 0h-1.74a2 2 0 0 0-1.08.15.76.76 0 0 1-.45 0 3.93 3.93 0 0 0-1.1-.15 6.69 6.69 0 0 0-1.13.1 1.42 1.42 0 0 1-.25-.07l-.22-.07h-.13a1.11 1.11 0 0 0-1.06.1h-1.74v-2.38-1.28c0-.94 0-1.86-.06-2.83v-1h2.39a4.34 4.34 0 0 0 .51 0 17.55 17.55 0 0 1 2.05 0h1.8a3.47 3.47 0 0 0 1.55-.15.41.41 0 0 1 .13 0l1.71.16h.25v.56c0 .65 0 1.3.05 1.95.06 1.02.06 2 .05 2.97zm0-15.2a2.92 2.92 0 0 0-.06.71v7.59h-6.12a.86.86 0 0 0-.66.15 2.36 2.36 0 0 0-.61-.13h-2.28a4.15 4.15 0 0 1-.59 0h-.08v-4.28-.9-1.35-1.97h4.99l3.6.07h1.9zm-10.38-2.21c0-.33.07-.66.09-1s0-.53.07-.79a5.27 5.27 0 0 1 .49-1.43c.12-.26.24-.53.34-.81a7.51 7.51 0 0 1 1.22-2c.18-.24.37-.48.54-.73a3.87 3.87 0 0 1 .79-.77 8.66 8.66 0 0 1 4.57-2.4l.55-.13.34-.09a3.74 3.74 0 0 1 .76-.17h.42c.01 0 .06.07.06.45v.2c0 1.75.06 3.5.07 5.26v4.25a4.41 4.41 0 0 1 0 .6v.1h-9.82c-.37 0-.45-.05-.46-.06a1.3 1.3 0 0 1 .02-.44zm21.77 19.4h-.68a2.47 2.47 0 0 1-1.15-.06 1.08 1.08 0 0 0-.59 0h-1.94l-1.52.05c-.45 0-.93 0-1.38-.07s-.7-.06-1-.07h-1.67a5.09 5.09 0 0 1 0-.55V169.6v-2.91-.17H139.78a4.87 4.87 0 0 1 .55 0c1.24 0 2.49 0 3.78.08a1.16 1.16 0 0 0 1.13-.38v.23l1 .17c-.03 2.38-.03 4.77-.1 7.38zm0-9.51v.61l-.88.19v.08a.65.65 0 0 0-.34-.11h-7.67a6.2 6.2 0 0 1-.83-.07h-.2a3 3 0 0 1 0-.42c0-1.22-.05-2.45-.06-3.68a2.6 2.6 0 0 1 0-.26 2.2 2.2 0 0 0 0-.36v-.06-3.14a1.59 1.59 0 0 0-.1-.5H146.19a7.12 7.12 0 0 0-.06 1.95 9.93 9.93 0 0 1 0 1.08v2.89c.07.48.02 1.13-.03 1.77zm-10-9.24v-10.74a3.45 3.45 0 0 1 .45 0 8 8 0 0 1 3.43 1l.25.14a13.45 13.45 0 0 1 1.82 1.12 10.8 10.8 0 0 1 1.7 1.68 11.84 11.84 0 0 1 1.38 2.13 9.33 9.33 0 0 1 1 3.9v.56a1.78 1.78 0 0 1 0 .22c-1.26 0-2.52-.05-3.78-.05h-3.87zm29.22 18.35v.33c0 .1-.07.2-.22.19h-1.23l-.28-.05a3.87 3.87 0 0 0-.49 0 6.92 6.92 0 0 0-.81.09h-.14a2 2 0 0 0-.26.07h-.07a1.93 1.93 0 0 0-.86-.23 4.77 4.77 0 0 0-.67.06 3.56 3.56 0 0 1-.72 0 11.62 11.62 0 0 0-1.18 0h-1a16.15 16.15 0 0 0-2.72.08 8.63 8.63 0 0 1-1.43 0l-.85-.05h-2.03a9.48 9.48 0 0 0-1.89.1 2 2 0 0 1-.72-.11l-.23-.06v-4.05-7c0-.4 0-.8.05-1.21s0-.56 0-.83 0-.14.17-.15h1.57c1.16 0 2.33.08 3.5.1h3a1.23 1.23 0 0 0 .35-.05h3.6c.83 0 1.68-.06 2.51-.06.65 0 1.31.05 2 .09l.65.05.39.06V172.46zm0-14.32v.14h-.42l-5.26.05c-.61 0-1.24 0-1.85-.05a1.39 1.39 0 0 0-1.07.32l-.14-.07a3.33 3.33 0 0 0-1.59-.31h-3.88l-2.68-.07h-.9a3 3 0 0 1 0-.92 2.65 2.65 0 0 1 .78-.07h1.36a10 10 0 0 0 1.89 0 8.56 8.56 0 0 1 1.43 0h7.44a20.38 20.38 0 0 0 3.31-.05 12.29 12.29 0 0 1 1.49-.06h.16v.09c-.05.42-.07.72-.08.97zm.34-14.28a1.24 1.24 0 0 0-.25.33.7.7 0 0 0-.06.41V150.3a8.86 8.86 0 0 1-.09 2.13 1.16 1.16 0 0 0 0 .33v1.35a2.72 2.72 0 0 1 0 .28V157a2.93 2.93 0 0 1-.48.07h-17.11a1.87 1.87 0 0 0 0-.25 3.5 3.5 0 0 1-.06-.89 10.53 10.53 0 0 0-.16-2.69 11.71 11.71 0 0 0-3.52-6.69 12.94 12.94 0 0 0-3.28-2.28l-.35-.2a3.07 3.07 0 0 0-.92-.42 15.8 15.8 0 0 0-4-.53c-.3 0-.6 0-.9.06s-.58.05-.87.06a9.62 9.62 0 0 0-4 1.2 12.48 12.48 0 0 0-2.58 1.89 13.46 13.46 0 0 0-2.82 3.76 12.72 12.72 0 0 0-1.25 4.31v.18a9 9 0 0 0 0 1.27v.67c0 .48 0 .48-.51.48h-5.54a4.5 4.5 0 0 0-1 0 15.31 15.31 0 0 1-3.18 0 7.47 7.47 0 0 0-.82 0h-.56l-.78.05c-1.41 0-3.06.05-4.67.05a1.78 1.78 0 0 1-.67-.12v-.25-6.4-1.28-2.95a9.64 9.64 0 0 0 0-1.08 7.7 7.7 0 0 1 0-1.36 10.22 10.22 0 0 0 0-1.66v-.93a4.68 4.68 0 0 1 .08-.71v-.08h17.8a6.73 6.73 0 0 0 1.89-.12.4.4 0 0 0 .15 0h.54c.43 0 .89.07 1.32.06h23.32c.47 0 .7-.15.81-.41a.28.28 0 0 1 0 .09v.27h1.25c.64 0 1.29 0 1.93-.05a14.6 14.6 0 0 1 1.62 0 12.87 12.87 0 0 0 2.4 0h.84c.55 0 1.12.07 1.69.07h4.35a.07.07 0 0 1 0 .05v3.7a1.14 1.14 0 0 0 .37 1zm-15.77-6.17h-6.27c-1.81 0-3.48 0-5.11.05h-4.32a18.52 18.52 0 0 1-3.57 0 4.46 4.46 0 0 0-.63 0h-2.09c-.42 0-.8 0-1.2-.05s-1-.06-1.42-.06h-6.09a9.56 9.56 0 0 1-2.4-.11h-1.05c-.57 0-1.15.06-1.72.07h-.42c-1 0-2.13.06-3.19 0s-2.22 0-3.33-.07l-1.46-.05h-.4a.46.46 0 0 1 0-.21v-2.3H109.48a11.78 11.78 0 0 0 1.68 0h.58l1.44.05h11.14c.48 0 1 0 1.43.06s1 .05 1.53.06H138.06c1.51 0 3.08-.05 4.62 0a14.13 14.13 0 0 0 1.6 0l.91-.05h4.29a13.62 13.62 0 0 0 1.69 0h14.12a11.29 11.29 0 0 1-.11 2.68h-9.42a2.09 2.09 0 0 0-.34 0 1 1 0 0 1-.29 0 8.22 8.22 0 0 0-2.32 0h-.87a.91.91 0 0 0-.65.27l-.09.13a.34.34 0 0 0 0-.1v-.35zm16-10.5a1.25 1.25 0 0 0-.54.89l-.13.69a3.62 3.62 0 0 1 0 .93v.33a1.47 1.47 0 0 1-.05.29 2.24 2.24 0 0 0 0 .46c0 .49 0 1 .06 1.48v1a2.26 2.26 0 0 1 0 .26 3.73 3.73 0 0 1-1.3.08 10.59 10.59 0 0 0-1.78 0h-2.01a10.38 10.38 0 0 0-1.85 0 14.56 14.56 0 0 1-2.09 0h-5.67a6.32 6.32 0 0 1-.74.06 4.16 4.16 0 0 1-.61 0H147.46c-1.13 0-2.3 0-3.46.06a15.56 15.56 0 0 1-1.93 0 14.41 14.41 0 0 0-2.54 0 8.52 8.52 0 0 1-1.6 0H135.32c-.43 0-.95.06-1.42.1l-.85.07H132.37l-.83-.06h-1.73a16.71 16.71 0 0 1-2.83-.09h-21.86v-2.31-3.27s-.38-.62-.69-.5l-.5.07 21.25-26.82 10.13-12.55v-.07l.11.14.18.21c.43.51.85 1 1.24 1.48s.89 1.16 1.32 1.74c.28.37.56.75.85 1.12 0-.07-.11-.13-.16-.19l.56.7c.53.67 1 1.33 1.56 1.94a5.11 5.11 0 0 0 .52.52l.24.21.17.17a2.34 2.34 0 0 0 .09.24c.11.2.22.39.35.58a.94.94 0 0 0-.1-.1l1 1.23-.37-.48a4.46 4.46 0 0 0 .92.74.54.54 0 0 0 .29.07h.1v.07a9.63 9.63 0 0 0 .82 1.76l3.9 4.92 1.62 2.11c.07.09.14.19.22.28.57.69 1.15 1.4 1.68 2.14l-.39-.44.71.93v-.05.06a3.28 3.28 0 0 0 .37.45 1.34 1.34 0 0 1 .2.21c.24.28.48.56.7.86s.33.42.49.64.5.66.77 1 .32.37.49.55.37.4.53.61.38.52.56.79l.36.52-1.15-1.44c-.65-.81-1.31-1.63-2-2.46l6.63 8.28-.09-.13-.18-.24.34.38a2.56 2.56 0 0 1 .26.36l.09.14 1.12 1.4 3.75 4.51a.43.43 0 0 1 .02.41zm8.47 11.52v34h-.12a5.1 5.1 0 0 1-.74.07h-1.11a16.16 16.16 0 0 1-2.2 0c-.46 0-.93-.05-1.39-.05h-2.15v-.82-2.52-3.94-5.57-2.85-2.81-2.12-1.29-1-1.14a5.27 5.27 0 0 0 0-.56 3.57 3.57 0 0 1 0-.56c0-.64 0-1.28.07-1.91v-1.11a.7.7 0 0 0-.12-.49 1.39 1.39 0 0 0-.21-.21v-.07l.09-.16a1.18 1.18 0 0 0 .21-.54v-1.73-1.33c0-.95-.05-1.93 0-2.88a25.74 25.74 0 0 0 0-2.64 18.09 18.09 0 0 1 0-3.29.77.77 0 0 0 0-.27v-1.07l.67.81 1.06 1.31a.94.94 0 0 0 .82.35 1.37 1.37 0 0 0 1-.54l.2-.2a.9.9 0 0 0 .16-1.47c-.3-.4-.61-.78-.92-1.16s-.84-1.06-1.24-1.6-.6-.75-.9-1.1a10.78 10.78 0 0 1-1.17-1.49 9.65 9.65 0 0 0-1-1.27l-.13-.16c-.31-.35-.59-.72-.88-1.08s-.59-.74-.89-1.1c-.45-.52-.88-1.09-1.29-1.64s-.9-1.21-1.4-1.78-.82-1-1.2-1.56-.56-.78-.86-1.15-.68-.82-1-1.22-.65-.74-1-1.12-.68-.88-1-1.33-.67-.9-1-1.34c-.14-.17-.29-.33-.43-.49a5 5 0 0 1-.66-.82 15.84 15.84 0 0 0-1.14-1.55l-.4-.5c-.24-.31-.5-.61-.76-.91a14.76 14.76 0 0 1-1.19-1.52 2 2 0 0 1-.32-1.14v-1.4-1.79c0-.41 0-.83.05-1.25s.06-.87.06-1.3V92.42a.74.74 0 0 1 0-.19h22.37a2.71 2.71 0 0 1 .4 0h1.79v14.09c0 .4 0 .81-.05 1.21s0 .84 0 1.27v1.33c0 .44.05.8.05 1.2v5.01c0 .51 0 1 .05 1.52v2c0 .65 0 1.34-.05 2s0 1.21 0 1.82v1c0 .29.05.62.05.93v13.6a.74.74 0 0 0 .14.49zm-7.5-10.9l.18.23 2 2.5.07.09-.15-.17-.68-.81-.93-1.2zm6.85-38.09h-2.41c-.73 0-1.48-.06-2.23-.06H149.75a2.54 2.54 0 0 1 0-.39.66.66 0 0 1 0-.23h1.77a22.6 22.6 0 0 1 3.49 0 1.37 1.37 0 0 0 .35 0h.42a5 5 0 0 1 1.72 0 1.14 1.14 0 0 0 .52 0 4.73 4.73 0 0 1 1.36-.07H173.74a2 2 0 0 1 .47 0 2.16 2.16 0 0 1 .21.53.48.48 0 0 0 .08.18 6.77 6.77 0 0 0-.71.08z" fill="#575757"/></svg>
