<svg xmlns="http://www.w3.org/2000/svg" viewBox="0 0 209.52 105.13"><path d="M103.79 93v6a2 2 0 0 1-.12.91c-.36.82-.3.86-1.4 1.63-.19.14-.07.44-.26.45s-.27-.2-.49-.23-.27-.26-.5-.21a2.11 2.11 0 0 1-1.94-.8c-.26-.28-.41.2-.52 0a1.38 1.38 0 0 1 0-.58V87.93c0-.27.3-.77-.35-.8-.1 0-.12-.15 0-.15.65-.08.31-.78.66-1-.08-.6-.12-1.49.18-1.81.74-.78 3.62-.48 4.51-.17 1.22.42.35 1.65.35 2.94-.11 2.06-.12 4.06-.12 6.06zm-2.36 3c-.19 0-.32.07-.27.26s-.17.39.11.46.39 0 .36-.28.09-.4-.48.5c-.06-.06.12-.23-.11-.22s-.32 0-.36.16 0 .31.2.32.28.01.55-1.14zm.44-.72a1.09 1.09 0 0 0 1-.71.24.24 0 0 0-.08-.2.26.26 0 0 0-.2-.05 9.35 9.35 0 0 0-.86.8c-.13.17.03.22.14.22zm-1.43-4.64c0-.48-.26-.39-.43-.4s-.31 0-.3.24.25.22.42.23.32.04.31-.01zm-.09 6.76c.11 0 .11-.12 0-.16s-.46-.12-.63.09a.31.31 0 0 0 .07.3c.27.25.39-.03.56-.17zm.8-9c0-.11-.32-.59-.35-.54a.47.47 0 0 0-.12.29c0 .17-.09.41.22.42a.22.22 0 0 0 .25-.13zm-.41 6.91c-.06 0-.32-.09-.25.14a.46.46 0 0 0 .43.33.2.2 0 0 0 .23-.19c.03-.23-.15-.28-.41-.24zm2.09 1.69c.2 0 .41 0 .45-.12s-.2-.32-.28-.3-.27.19-.41.29zm-2.16-3.86c0-.06 0-.18-.08-.19s-.18.09-.16.2 0 .18.08.19.17-.05.16-.17zm1.17-1.52c0-.05-.06-.14-.1-.15s-.24-.06-.3.08 0 .15.08.15.24.09.32-.05zm.54-.89l-.27.13c.06 0 .13.12.18.12a1.11 1.11 0 0 0 .3-.12zm-1.47.26c.07 0 .19 0 .19-.09s-.08-.17-.19-.15-.19 0-.19.08.08.17.19.17zm-.45-4.24l.09.15s.08-.06.08-.08a.8.8 0 0 0-.08-.16zM146.8 93.79V89.1c0-.41.39-1-.37-1.26-.19-.07 0-.2.09-.24a.76.76 0 0 0 .3-.84c-.09-.65-.56-1.88-.31-2.45.39-.88 2-.14 2.72-.5.58.34 1.82-.26 2.29.34a4.1 4.1 0 0 1 .36 2.37c0 .41-.19.88.2 1.24.05 0 0 .25 0 .31-.34.3-.16.68-.16 1v10a2.1 2.1 0 0 1-.07.82c-.17.42-.52.72-.72 1.13a1.64 1.64 0 0 1-.73.51 2.76 2.76 0 0 1-1.51 0c-.71-.15-1.73.17-2.16-.38s.12-1.7.13-2.22c-.04-1.7-.06-3.42-.06-5.14zm1.43-3.79s-.07-.11-.12-.13-.15 0-.1.1.09.08.14.11 0 0-.38-.76a2.16 2.16 0 0 0 0 .36c0 .06.07.17.12.18.23 0 .1-.16.11-.23 0-.28.29-.36.42-.54a.28.28 0 0 0 0-.41l-.25-.25a1.75 1.75 0 0 0-.36.42c-.09.09-.04.27.42 1.15zm.61 4.43a1.92 1.92 0 0 0 .24 0l.33-.08-.17-.25-.24-.3c-.4-.39-.4-.39-.76 0a.35.35 0 0 0 .14.58 2.46 2.46 0 0 0 .46 0zm.08-6.25l-.19.11a8 8 0 0 0 .67.84c.09.08.28 0 .29-.23s-.27-.7-.77-.77zm1.32 2.82h.76c.06 0 .12-.08.18-.12s-.06-.08-.09-.08a3.21 3.21 0 0 1-1.18-.26c-.07 0-.28.16-.33.28s.14.16.24.18a3.69 3.69 0 0 0 .42 0zm-.9 7.27c.06 0 0 0-.13.06l.24.24c.19.2.41.14.63.09s.1-.09 0-.17a.64.64 0 0 0-.74-.21zm1.23-8.5c.11-.06.11-.13 0-.17s-.46-.12-.63.09a.31.31 0 0 0 .07.3c.27.2.39-.08.56-.21zM128.38 50a3.89 3.89 0 0 1-.22 1.53 2.18 2.18 0 0 1-1.93 1.47c-.35 0-.74.31-1.1.18a7.42 7.42 0 0 1-1.8-.85 3.52 3.52 0 0 1-1.16-2 2.56 2.56 0 0 1 .54-2.15 2.9 2.9 0 0 1 2.87-1.41 3.24 3.24 0 0 1 2.61 1.78c.28.5.06.98.19 1.45zM124.92 77.87h-.33c-.53 0-1.06.13-1.51-.41a3.42 3.42 0 0 1-1.08-2.17 4.24 4.24 0 0 1 .21-1.71c.84-2.12 3.4-2.12 4.81-.88a2.81 2.81 0 0 1 .75.88 2.22 2.22 0 0 1 .41 1.82 3.69 3.69 0 0 1-1.73 2.27c-.6.33-1.11.05-1.53.2zM103.77 100.77l-.07.07s-.12-.06-.14-.11 0-.15.1-.1.08.09.11.14z" fill="#96d7df"/><path d="M119 99.76v-4.31a3 3 0 0 1 .4-1.7 1.33 1.33 0 0 0 .31-.88c0-.13.16-.34.41-.31 1 .13 1.93-.19 2.91-.1s2 0 3 0a1.92 1.92 0 0 0 .24 0 14.14 14.14 0 0 1 3.9-.17c1.1.37.64 1.62.79 2.71.07.46-.57.82-.21 1.25a1 1 0 0 1-.08 1.22c-.33.34.3.8.29 1.19v4.92a4.16 4.16 0 0 1-.19 1.4c-.32.92-.67 1.77-1.8 1.87a.45.45 0 0 0-.43.32.24.24 0 0 1-.4 0c-.36-.47-.85-.36-1.32-.36h-5.16a2.53 2.53 0 0 1-2.66-2.61v-4.44zm7.45 1.57a.66.66 0 0 0 .45-.34c.19-.28.56-.4.63-.77-.27 0-.54-.06-.81-.07s-.33-.18-.49-.29-.14-.26-.25 0a.54.54 0 0 0 0 .22c0 .27.19.42.34.59s-.21.4 0 .61a.54.54 0 0 0 .11.05zm.5.73c-.07 0-.18 0-.21.1a2.27 2.27 0 0 0 .68.83c.06 0 .17-.07.17-.12a.8.8 0 0 0-.66-.81zm-.21-3.58h-.24c-.11 0-.22 0-.23.14s.12.07.19.1a1.11 1.11 0 0 0 .64.23c.14 0 .22-.07.25-.18a.2.2 0 0 0-.14-.27 2.46 2.46 0 0 0-.49-.02zm-.35 4.63a1.07 1.07 0 0 0-.52-.71c-.07 0-.12 0-.16.09a.57.57 0 0 0 .51.74c.04 0 .09-.08.15-.12zm-4.9-2.46a.87.87 0 0 0-.23 0c-.11 0-.38-.06-.24.22.07.12.18.28.37.12s.45-.09.68-.13a.78.78 0 0 0 .21-.09.52.52 0 0 0-.19-.11c-.22-.02-.42-.01-.62-.01zm1.31-2.37c-.08-.06-.17-.17-.27-.19-.28 0-.39.16-.4.4s.07.21.22.19.29-.19.43-.4zm-1.43-2.44l-.1-.21c-.16.1-.33.2-.35.42a.19.19 0 0 0 .21.22c.29-.01.19-.27.22-.43zm.78 7.91l-.23.13c.11.16.21.34.45.32a.19.19 0 0 0 .18-.24c-.06-.21-.22-.2-.42-.21z" fill="#565656"/><path d="M84.28 4a2.89 2.89 0 0 1 .63.12 9.31 9.31 0 0 0 4.2.67c.62 0 1.19 0 1.54.67.09.18.37.28.58.4a5.58 5.58 0 0 1 2.9 4 7.2 7.2 0 0 0 .79 2c.24.47.52 1.06 1.27.71.53.36 1.19.36 1.65 1a5.41 5.41 0 0 0 2.09 1.31c1 .49 1 .6.94 1.69a15.51 15.51 0 0 0 .08 1.79c0 .48-.26.67-.67.43a1.49 1.49 0 0 0-1.53 0 6.2 6.2 0 0 1-2.33.13 6.1 6.1 0 0 1-1.15-.3c-.27-.07-.45-.07-.59.32s-.61.26-.92.06c-1.25-.78-2.53-.38-3.77 0-.38.11-.64.27-.93-.1a.51.51 0 0 0-.43-.14 10.37 10.37 0 0 0-1 .38c-.17-.54-.61-.41-1-.38-.62.05-1.24.14-1.87.2a1.45 1.45 0 0 1-.28 0c-1.27-.16-2.55-.47-3.79.23-.16.09-.46 0-.68-.1a5.17 5.17 0 0 0-3.47.06c-.14.06-.37.14-.43.07-.62-.56-1.37-.27-2.06-.33s-1.13-.31-1.25-.88a1.35 1.35 0 0 1 .64-1.37 23.24 23.24 0 0 0 2.65-2.4 3.87 3.87 0 0 0 .74-1.86 8.4 8.4 0 0 1 1.32-3.18 10.2 10.2 0 0 1 5-4.34 2.58 2.58 0 0 0 .49-.32c.28-.28.5-.46.64-.54zm-1.35 11.57a.73.73 0 0 0 .37-.09 3.59 3.59 0 0 1 1.7-1.13.63.63 0 0 0 .07-.51c-.08-.13-.39-.27-.49-.21a5.37 5.37 0 0 0-1 .79c-.19.19-.28.48-.46.68s-.48.29-.58-.15c0-.08-.13-.14-.2-.21-.07.09-.18.17-.2.27-.05.4.17.57.79.56zm4.78-7.27a2.47 2.47 0 0 1-.35.1l-.55.1c.38.51-.17.84-.25 1.26a.55.55 0 0 0 .26.14c.49-.56 1-1.12 1.42-1.73.08-.11-.09-.41-.15-.62l-.49.23c-.6.27.07.28.11.52zm.81 2.51a3.82 3.82 0 0 0-.26.54c-.05.14-.09.4-.05.42.39.18.79.32 1.19.47s.28-.27.42-.4l.52-.44a3.45 3.45 0 0 1-.64 0 2 2 0 0 1-.62-.18 4.38 4.38 0 0 1-.56-.41zm2.62 1.87c-.13-.14-.25-.38-.44-.44s-.3.09-.26.34-.18.24-.21.37-.1.49 0 .59.39 0 .51-.22.26-.39.4-.64zM85 9.22c-.07 0-.16-.06-.21 0a1.56 1.56 0 0 0-.45.35 1.89 1.89 0 0 0-.25.58s.16.12.18.1a1.89 1.89 0 0 0 .48-.4 2.93 2.93 0 0 0 .25-.63z" fill="#ceebec"/><path d="M60.33 80.89a11.69 11.69 0 0 1 2.13-1.7c3-1.43 5.26-3.19 5.75-6.84.33-2.42 2.15-3.7 4.71-3.77a4.15 4.15 0 0 1 4.63 3.63c.71 4.19 4.1 5.65 7 7.66a6.74 6.74 0 0 1 2.84 6.44c-.32 2.58-.14 4.6 2.26 5.7 4.92 2.27 3.69 6.51 3.64 10.43a16.9 16.9 0 0 1 .23 2.3c-.19 1.1.3 2.49-2 2.49-5.47 0-11 .42-16.41.37q-9.7-.1-19.43 0c-4.29.05-4-3.38-4.37-6-.69-4.58 2-7.54 5.15-10.46 1.11-1 3.06-2.37 2.34-4.86a4.93 4.93 0 0 1 1.2-5.12zm12.15-2.33l.56.11v-.11h-.58c-.58-.46-.87.08-1.1.42-.09.12.23.52.37.8zm4.26-1.36c-.28-.26-.52-.62-.64-.59-1.59.48.15 2.18-1 2.83.55.09 1.2.41 1.63.23 1.97-.87-2.02-1.53.01-2.47zm1.33 14.15c.44 0 .75.22.81 1.17 0 .66.79.24.7-.23a2.13 2.13 0 0 0-1.38-1.9c-.07.53-.15 1.05-.13.96zm-5.81-6.76c-1.74-.45-1.82.72-2.42 1.19a3.24 3.24 0 0 0 .34.36c.68-.51 1.34-1 2-1.58-.18-.08-.31-.15.08.03zm10.31 3.65L84 86.61c-.09-.07-.23-.21-.26-.19a16.83 16.83 0 0 0-1.49 1c-.04.05.16.41.32.82zM69.71 79c0 .15-.2.35-.15.45.24.42.53.8.8 1.2l.61-.48zm3.84 22.45c-1.33-.32-2 .74-2.37-.27l-.27.27c.35.3.66.75 1.06.85s.67-.39 1.58-.9zm-5.08 1.79c-.06-1.37 0-2.26 1.08-2.56-.15-.07-.31-.22-.44-.2-1 .2-1 1.15-1.2 1.87-.04.05.17.23.56.84zM63.3 97.4l-.74.26a9.85 9.85 0 0 0 1.43.91c.15.06.49-.3.74-.46zm16.19-14.13c.55.61 1 1.11 1.46 1.6 0 0 .21-.13.2-.18-.09-.67-.35-1.22-1.11-1.33zM86 98.93c-.42-.28-.72-.51-1-.68-.07 0-.23.11-.35.18a4.58 4.58 0 0 0 .57.9c-.01.06.37-.2.78-.4zm-25.89-3.57a6.1 6.1 0 0 0-.62.75s.32.39.39.36a4.52 4.52 0 0 0 .75-.51zm17.93 0c-.52-.29-.88-.51-1.26-.69-.07 0-.23.15-.35.24a11.44 11.44 0 0 0 1 .74c.06.05.28-.13.57-.29zm-14.73 8c.16-.59.27-.94.33-1.3 0-.09-.14-.22-.21-.33-.18.38-.36.75-.51 1.13-.02.02.13.14.39.46zm.2-16.94l-.67-.42a3.44 3.44 0 0 0-.28.66c0 .08.25.3.28.28a5.49 5.49 0 0 0 .67-.56zm-.66 13.54l.5-.4a4.26 4.26 0 0 0-.58-.47s-.31.24-.29.33a2 2 0 0 0 .37.5zm12.32-6.47l.32.78c.12-.24.35-.48.33-.7s-.3-.41-.47-.62zm-10.38 6.29a3.87 3.87 0 0 0-.65-.45l-.29.26a3.5 3.5 0 0 0 .51.44c.06.03.21-.12.43-.25zm15.3 1l-.42-.77c-.12.14-.31.28-.32.42a.6.6 0 0 0 .28.46c.13.11.37-.06.46-.1zm-13.2-7.92c-.48-.14-.8-.25-1.13-.32-.05 0-.14.12-.21.19a9.69 9.69 0 0 0 .91.46c.06.03.2-.14.43-.32zm-2.28 3.64l-.44-.5c-.06.15-.19.31-.17.44a2.41 2.41 0 0 0 .27.56zm-1.79-4.43l-.35.33c.24.18.48.37.74.53 0 0 .15-.09.23-.14zm10.45-4.7l-.54-.46c-.06.12-.21.28-.18.35a2.68 2.68 0 0 0 .42.48zm-7.9-4.46l.55.5c.1-.15.27-.3.26-.44a.52.52 0 0 0-.34-.35c-.1-.03-.26.15-.47.29zm13.25 18.92l-.41.24c.16.07.32.21.46.19a1.64 1.64 0 0 0 .51-.26zm1.06 1.06c-.11-.08-.23-.21-.26-.19-.22.15-.43.33-.65.5.08.08.2.24.21.23.22-.15.43-.32.7-.54zm2.76-2.57l-.43.52c.11.07.25.22.34.19a.54.54 0 0 0 .31-.3c.02-.08-.11-.21-.22-.41zM64.52 87.46c-.3-.14-.46-.27-.55-.24a1.75 1.75 0 0 0-.47.35c.07 0 .15.09.22.08s.41-.09.8-.19zm12.7-.66l-.53-.47s-.09.13-.08.14l.52.47a.85.85 0 0 0 .09-.14zm-17.68 16.58c.07-.3.14-.43.11-.52a1.67 1.67 0 0 0-.25-.36c-.09.09-.26.21-.24.27a2.91 2.91 0 0 0 .38.61zm18.33-.81c-.23-.09-.36-.19-.47-.18a1.13 1.13 0 0 0-.36.24c.13.1.25.25.39.28s.22-.16.44-.34zm-10.3-8.8a1.68 1.68 0 0 0-.19.45c0 .07.14.15.21.23a1.67 1.67 0 0 0 .25-.36s-.13-.16-.27-.32zm3.25 0c-.24-.15-.38-.31-.46-.28a1.65 1.65 0 0 0-.46.3c.09.09.2.25.29.24a2.45 2.45 0 0 0 .63-.27zm-.31-10.51a1.89 1.89 0 0 0-.58-.14c-.1 0-.16.21-.23.32.15.09.29.24.45.26s.18-.22.36-.45zm-4.46 12c-.19-.12-.31-.26-.39-.24a1.1 1.1 0 0 0-.37.25c.09.1.18.27.27.26s.26-.19.49-.33zm19.43 5.35c-.22-.09-.37-.2-.51-.19s-.2.23-.19.34.17.21.27.32zm-20.6-8c-.16-.1-.28-.23-.32-.2a.39.39 0 0 0-.19.26c0 .08.09.17.13.26zM86.49 100l-.3-.25a1.78 1.78 0 0 0-.24.32s.16.21.19.2a1.5 1.5 0 0 0 .35-.27zm-10.28-8.26c-.12-.1-.2-.2-.28-.2a1.05 1.05 0 0 0-.31.11c.09.09.15.22.26.26s.18-.09.33-.17zM69.35 87c-.3-.14-.43-.24-.55-.24s-.23.14-.34.21c.12.07.23.19.35.21s.24-.04.54-.18zm-1.53-5.24c-.13-.1-.21-.22-.3-.23s-.19.08-.29.13c.09.1.16.23.27.27s.18-.06.32-.14zm6.76 1.74c-.19-.06-.3-.14-.4-.12s-.13.15-.2.23c.11 0 .21.13.31.12s.16-.08.29-.2zM87.86 96l-.14.28c.09 0 .19.14.29.13s.11-.14.16-.22zM78 81.36c.15-.2.29-.3.31-.42s-.14-.2-.21-.31c-.11.09-.28.16-.3.26s.05.24.2.47zM66.44 96.48l.18-.24a.72.72 0 0 0-.28-.16c-.06 0-.13.1-.2.15zm12.78-10.2l.29-.24c-.08-.07-.15-.19-.23-.21a.3.3 0 0 0-.23.18c-.05.06.1.16.17.27zm-12.16 5a1.07 1.07 0 0 0-.29-.06s-.08.17-.06.19a1.43 1.43 0 0 0 .28.13zm-5.67.85l.15-.24c-.06 0-.14-.11-.17-.09a.69.69 0 0 0-.19.19zm.21 8.22l-.25.18c.07 0 .14.1.19.09a1.1 1.1 0 0 0 .26-.15zm17-14.9s-.1-.13-.15-.13-.1.08-.16.13l.19.17zm-2.71.55c-.13-.1-.2-.19-.29-.22s-.17.08-.17.1.06.22.13.24.17-.02.33-.12zm4.46 12.64l-.09-.2-.23.17s.1.15.15.15.11-.03.17-.08zM90 101.1a2.28 2.28 0 0 0-.13.28.48.48 0 0 0 .16.08 1.56 1.56 0 0 0 .17-.25zm-6.11-3.71a1.87 1.87 0 0 0-.21.31s.07.12.11.18.2-.1.22-.17-.08-.17-.14-.32zM76.68 81l.17-.13a.78.78 0 0 0-.15-.1h-.09a.67.67 0 0 0 .07.23zM79 96.25c-.08-.16-.11-.29-.18-.34s-.18.06-.25.12 0 .18.06.19a1.24 1.24 0 0 0 .37.03zM67.72 89.9v.08A1.08 1.08 0 0 0 68 90v-.08a.63.63 0 0 0-.28-.02zm2.28-.31c-.12.13-.22.2-.25.29s.11.14.19.18.14-.08.15-.13a1.32 1.32 0 0 0-.09-.34zm8.25-10h.09l-.13-.11v.1c0 .03.05 0 .08.02zm9.6 22.15h-.11a1.5 1.5 0 0 0 0 .2h.1a.61.61 0 0 0 .05-.19zm-21.09.16l-.16-.14c0 .06-.07.12-.06.17s.09.08.14.12a1.09 1.09 0 0 1 .12-.14zm-5.67-11a1.19 1.19 0 0 0-.09-.15h-.1a1.1 1.1 0 0 0 0 .18.9.9 0 0 0 .23 0zm7.67-8.2s-.08 0-.08.06v.1l.12-.08zm15.43 1.21l-.07.14h.06a.42.42 0 0 0 .05-.11zM63.76 95a1.77 1.77 0 0 0 .24-.23s-.11-.17-.13-.16a.7.7 0 0 0-.24.17l.13.22zm11.79-6.23l-.17-.07a.76.76 0 0 0-.06.16h.09a.83.83 0 0 0 .14-.09zm-1.22-1.49v.08h.21v-.07a.78.78 0 0 0-.21-.01zM61.8 95.35l.15.12s.07-.08.06-.08a.86.86 0 0 0-.14-.13zM69.36 78l.14.13s.06-.08 0-.09a.74.74 0 0 0-.12-.13zm17.91 25.28h-.08c-.01 0 0 0 0 .08s.07 0 .08 0 .01-.04 0-.07zM81.7 88.63l-.18-.08s-.06.07 0 .09l.11.15zM68.92 79H69v-.09l-.13.07zm14.2 10.55h.09c.01 0 0-.07 0-.1l-.15.08zm-12.4 2.64a.23.23 0 0 0 .1 0v-.09c0-.03-.08 0-.09 0s-.02.08-.01.11zm2.68 0v-.11h-.18v.09a.57.57 0 0 0 .18.03zm2.72-1.48l.08-.07a1.51 1.51 0 0 0-.18-.09s-.06 0-.08.07a.76.76 0 0 0 .18.1zm-10.24-9v-.08h-.09l.06.12zm9.22 18.79l-.07.08.15.06v-.1c0-.03-.05-.02-.08-.03zm-18.53-1.68c-.06 0-.11-.11-.17-.11s-.13.06-.19.1.11.11.17.11.13-.06.19-.1zm5.19-8.63a.74.74 0 0 0-.16-.12h-.09a1 1 0 0 0 0 .17zm20.22 9h-.1l.05.14h.09c.01 0-.02-.11-.02-.14zm-20.79.15l-.11.15.07.06.11-.15a.27.27 0 0 1-.07-.06zm25.29-5.53l-.14-.09v.07l.13.1zM59.33 80.89l-.3.27-.17-.35z" fill="#adce54"/><path d="M125.6 33.82c.59.66 1.17 1.08 1.93 1.91a7.37 7.37 0 0 1 .66 1.17c11.57 14.4 21.34 26.61 29.53 36.82q3.34 4.17 6.68 8.35c.27.35-.59 1.45-.92 1.2s0 0-.16-.18c-7.75-9.53-15.11-19-22.67-28.47l-12.71-16a6.66 6.66 0 0 1-.53-.66 2.59 2.59 0 0 0-3.64.16c-1.17 1.52-2.38 3-3.57 4.52Q104.12 63 88 83.23c-.26.32-.17 1.09-.92.75-1-.45-.89-.85-.17-1.76l6.5-8.22q14.88-18.85 29.78-37.7a2.4 2.4 0 0 0 .46-.84c.14-.51 0-.71.12-.92.35-.45 1.28-1.36 1.83-.72z" fill="#d45245"/><path d="M122.14 84.81h-10.23c-1.48 0-1.5 0-1.61-1.55 0-.64-.13-1.27-.21-1.91 0-.15-.07-.39-.16-.42s-1-.35-1.12-.2c-.67.85-1.31 1.73-2 2.54-.27.3-.42 1.11-1.15.49s-.94-1.26-.34-2c2.32-2.91 4.64-5.83 7-8.72q5.81-7.2 11.66-14.36c.77-1 2.48-.65 3.2.25q9.2 11.49 18.36 23c.33.41.88.76.2 1.39-.86.8-.89.85-1.63-.09L127.35 62.1c-1.31-1.66-2.91-1.62-4-.2q-6.7 8.4-13.36 16.84c-.12.16-.25.31-.36.48-.2.32.68 1.35 1.09 1.38s.64 0 1 0l27.14.17c1.27 0 1.33 0 1.17 1.27-.1.79.21 2-.3 2.46s-1.59.37-2.38.38c-5.44.05-10.83.03-15.21-.07z" fill="#d45245"/><path d="M69.71 18.47h20.55c.87 0 1.77 0 2.66-.06a6.29 6.29 0 0 0 1.08-.09l.41-.1a2.61 2.61 0 0 0 1.6.3 4 4 0 0 0 .46-.07 1.65 1.65 0 0 1 .69 0 3.21 3.21 0 0 0 1.49.1h.48a1 1 0 0 0 .78-.24 1 1 0 0 0 .18-.76 5 5 0 0 0-.12-.79 3.89 3.89 0 0 1-.1-.8 3.26 3.26 0 0 0-1.08-2.22l-.13-.14a6.28 6.28 0 0 0-2.88-1.69 2.67 2.67 0 0 1-1.36-1v-.06a1.89 1.89 0 0 1-.52-1.07 4.09 4.09 0 0 0-.33-1.38c-.06-.12-.11-.25-.16-.37a4.53 4.53 0 0 0-1-1.75l-.18-.16a1.24 1.24 0 0 1-.34-.36 2.37 2.37 0 0 0-1.13-1.2l-.14-.08-.35-.2a4 4 0 0 1-.59-.39 2.42 2.42 0 0 0-1.63-.63 2.58 2.58 0 0 1-.54-.07A12.8 12.8 0 0 0 83 3a9.82 9.82 0 0 0-3.22 1.12 4.8 4.8 0 0 0-1.25 1 3.89 3.89 0 0 1-1.12.88.69.69 0 0 0-.32.39.36.36 0 0 1 0 .09c-.19.35-.41.71-.62 1s-.39.61-.56.92a8.92 8.92 0 0 0-1.34 3.38 4.43 4.43 0 0 1-.66 1.86.89.89 0 0 1-.55.46 9 9 0 0 0-1.07.32 5.44 5.44 0 0 0-2 1.35 2.33 2.33 0 0 0-.6 2.48zm3.15-2.73a.56.56 0 0 1 .29-.07c1.19.06 1.73-.77 2.2-1.52a1.5 1.5 0 0 0 .2-1.26 1.24 1.24 0 0 0 .61-1.11 6.83 6.83 0 0 1 .58-1.78 12.41 12.41 0 0 1 1.59-2.65c.13-.17.21-.23.25-.24a1.22 1.22 0 0 0 .61-.54 1.3 1.3 0 0 1 .1-.15 2.92 2.92 0 0 1 1-.82h.07a13.44 13.44 0 0 1 2.58-1.08 4.32 4.32 0 0 1 1.4 0h.81a.78.78 0 0 0 .41 0 3.64 3.64 0 0 1 1.81.18 8.38 8.38 0 0 0 1.13.23 1.05 1.05 0 0 1 .33.19l.12.09c.46.31.91.63 1.39 1l.48.33a1.89 1.89 0 0 0 .55 1.09 3.54 3.54 0 0 1 .88 2v.26a2.66 2.66 0 0 0 .44 1.45l.28.36a4 4 0 0 0 1.68 1.47l1.65.68a3.4 3.4 0 0 1 1.7 1.31 4.22 4.22 0 0 1 .6 1.84H85.84c-.3 0-.61-.05-.92-.05a1.88 1.88 0 0 0-.58.07 3 3 0 0 1-.42.06c-1.48 0-2.81.06-4 .07a8 8 0 0 1-.84 0H72.2a3.77 3.77 0 0 1-.89 0 5.14 5.14 0 0 1 1.55-1.41zM151.72 88.55c0-.29 0-.58-.05-.87s0-.39-.06-.59a3.12 3.12 0 0 1 0-1 5.25 5.25 0 0 0 .09-1.41v-.8a1 1 0 0 0-.23-.8 1 1 0 0 0-.74-.27h-5.64v3.01c0 .4 0 .68-.08 1a8.37 8.37 0 0 0-.05 2 8.67 8.67 0 0 1 .06 1.53v1.05a3.4 3.4 0 0 0 0 1 2.13 2.13 0 0 1 0 .45 3 3 0 0 0 0 .42c0 .27.07.54.11.86l.1.64a10.3 10.3 0 0 0-.21 3.43v2.92a.9.9 0 0 0 .27.67.93.93 0 0 0 .75.22h4.28a1.24 1.24 0 0 0 .91-.29 1.31 1.31 0 0 0 .3-1 2.13 2.13 0 0 0-.06-.45 1.26 1.26 0 0 1 0-.45 7.84 7.84 0 0 0 .15-2.09v-.67c0-.75 0-1.5-.06-2.22a25.91 25.91 0 0 1 .06-4.13 10.72 10.72 0 0 0 .1-2.16zm-1.52-2.77a3.89 3.89 0 0 1 0 .9 3.68 3.68 0 0 0 0 1.32 2.74 2.74 0 0 0 0 1.55v.35a2.49 2.49 0 0 1 0 .61v.19c0 .26 0 .53-.06.8a6.51 6.51 0 0 0 0 1.87 5.24 5.24 0 0 1 0 1.19 6.49 6.49 0 0 0 0 1.08 19.55 19.55 0 0 1 0 2.54v.66c0 .43 0 .87-.08 1.3v.28h-3.46v-1.2c0-.75 0-1.5-.08-2.26a14.63 14.63 0 0 0-.21-1.73 1.35 1.35 0 0 0-.22-.47l-.12-.18a1.53 1.53 0 0 0 .56-1.61 2 2 0 0 1 0-.66v-.15c0-.29 0-.59.07-.89s.06-.8.07-1.2V87.81v-3.47h3.65a4.4 4.4 0 0 1 0 .49 3 3 0 0 0-.12.95zM124.26 53.48h.12a4.07 4.07 0 0 0 3.92-3.78 4.17 4.17 0 0 0-3.7-4.31 3.79 3.79 0 0 0-2.77 1.1 4.07 4.07 0 0 0-1.42 2.85 4.25 4.25 0 0 0 3.85 4.14zm1-1.83v-1.23a7.74 7.74 0 0 1 1.4-.13 2.23 2.23 0 0 1-1.44 1.36zm0-4.25v-.25a3.72 3.72 0 0 1 1.45 1.64l-1.49.11a2.93 2.93 0 0 1 0-1.5zm-1.56 4.34a2.12 2.12 0 0 1-1.42-1.29h1.42zm-.1-4.55l-.1 1.59a.19.19 0 0 1 0 .1h-1.23l-.1-.4a3 3 0 0 1 1.39-1.29zM122.88 78.37a3.6 3.6 0 0 0 1.49.35 2.6 2.6 0 0 0 1-.2 5.2 5.2 0 0 0 2.63-2.18 2.89 2.89 0 0 0 .28-1.42v-.18a.75.75 0 0 0-.26-.63.1.1 0 0 1-.05 0 1.12 1.12 0 0 0-.09-1.24.56.56 0 0 1-.09-.17 1.24 1.24 0 0 0-.28-.42l-.34-.32a5.4 5.4 0 0 0-1.29-1 3.92 3.92 0 0 0-2.92 0 2.81 2.81 0 0 0-1.41.93 4.41 4.41 0 0 0-.93 4 4.43 4.43 0 0 0 2.26 2.48zm-.94-3.56a10.37 10.37 0 0 1 .22-1.11v-.16a.61.61 0 0 1 .09-.23 2.86 2.86 0 0 1 2.12-1.12 1.69 1.69 0 0 1 .7.15 2.82 2.82 0 0 1 1.66 1.66 1.43 1.43 0 0 0 .27.43 3.52 3.52 0 0 1-1.79 2.57 1.67 1.67 0 0 1-1.67-.06 4.52 4.52 0 0 1-1.61-1.61 1.31 1.31 0 0 1 .01-.52zM103.89 83.76a.77.77 0 0 0-.16-.59 1 1 0 0 0-.7-.27h-.63l-2.85-.08H98.2c-.9 0-1.08.19-1.09 1.09v4.24a5 5 0 0 1-.13 2 1.48 1.48 0 0 0 0 .55l.07 1.2c0 .64.07 1.29.1 1.93v.4a4.32 4.32 0 0 0 0 .5 1.1 1.1 0 0 0 .29.68c-.21.15-.28.36-.29.82s0 .76-.06 1.15V98a2 2 0 0 0 0 .35c0 .39.07.77.11 1.16s.09 1 .14 1.54c.06.8.31 1 1.11 1a20.43 20.43 0 0 1 2.6 0h.91a6.91 6.91 0 0 0 1.09-.08.9.9 0 0 0 .82-.93 3.54 3.54 0 0 0-.06-.87 4.88 4.88 0 0 1-.06-.52v-1.62-1.6a1.57 1.57 0 0 1 .08-.78 1.89 1.89 0 0 0 .07-1v-.25-.62a6.32 6.32 0 0 1-.06-.74v-1.35-1a1.74 1.74 0 0 0 0-.34.82.82 0 0 1 0-.14 2.78 2.78 0 0 0 .11-1.39 2.25 2.25 0 0 1 .08-1.13 2 2 0 0 0 0-1.24c0-.13 0-.26-.07-.39 0-.34-.11-.68-.18-1l-.1-.55a.82.82 0 0 0 .21-.75zm-1.48.76a.87.87 0 0 0-.25.67v2.95a5.07 5.07 0 0 1-.06.65 3.3 3.3 0 0 0 0 1.29 4.77 4.77 0 0 1 .07 1.69 7.68 7.68 0 0 0 0 1.44 13.85 13.85 0 0 1 0 2.14v.74a3.79 3.79 0 0 1 0 .58 4.86 4.86 0 0 0 0 1 11.52 11.52 0 0 1-.05 2.79h-3.4v-.45c0-.55-.06-1-.06-1.56v-1.06-1.1a2.93 2.93 0 0 0-.11-.68c0-.09 0-.18-.07-.26l-.06-.3a1.08 1.08 0 0 0 .12-.39c0-.62.08-1.28.1-1.95v-.62-.48-1.19-1.58-1.4-1.13-1.69a1.76 1.76 0 0 1 0-.18h.26a3.27 3.27 0 0 0 .7 0H100.03a1.8 1.8 0 0 1 .39 0c.63 0 1.26.1 1.89.16h.24z" fill="#575757"/><path d="M167 106l-.25-.11a1.58 1.58 0 0 0-1.07-.2 2 2 0 0 1-1 0 2.4 2.4 0 0 0-1.32.06h-.19a2.19 2.19 0 0 0-.53-.07l-.94.06a6.89 6.89 0 0 1-2 0 5.1 5.1 0 0 0-1.24 0h-.26v-1-2.25a.92.92 0 0 0-.2-.62.54.54 0 0 0 .1-.16 2.14 2.14 0 0 0 .16-.88v-.08a3.5 3.5 0 0 0-.61-2.12.31.31 0 0 0 .12 0 .71.71 0 0 0 .29-.57v-2.44-2.1-1.64a12.88 12.88 0 0 1 .06-2.64 1.67 1.67 0 0 0 0-.39.88.88 0 0 0-.25-.68h.2l.07-7.28c.2.27.39.51.58.75l.83 1 1.09 1.32a1 1 0 0 0 1 .38 1.42 1.42 0 0 0 1-.56l.17-.17c.63-.57.8-.92.21-1.69-.33-.42-.66-.84-1-1.25-.46-.58-.94-1.17-1.38-1.77-.3-.41-.64-.8-1-1.17a11 11 0 0 1-1.31-1.7 8.29 8.29 0 0 0-.89-1.2l-.12-.15-.82-1c-.45-.51-.91-1-1.33-1.58l-.66-.88c-.73-1-1.48-2-2.3-2.92-.46-.54-.89-1.13-1.31-1.71-.3-.42-.62-.86-1-1.28s-.75-.9-1.13-1.33-.71-.81-1.05-1.23-.84-1.08-1.25-1.63l-1-1.32c-.14-.17-.29-.31-.44-.46a2.61 2.61 0 0 1-.4-.42c-.2-.28-.4-.56-.59-.85a16.61 16.61 0 0 0-1.77-2.28l-.05-.06a7.75 7.75 0 0 1-1.12-1.33 20.05 20.05 0 0 0-2-2.58 23.12 23.12 0 0 1-1.57-2 4 4 0 0 0-.46-.53 2 2 0 0 1-.45-.55 5.49 5.49 0 0 0-1.06-1.42c-.17-.17-.33-.35-.48-.53a.58.58 0 0 0-.48-.17h-.13v-.24a1.33 1.33 0 0 0 0-.38.76.76 0 0 0-.19-.32l-1.94-2.42h-.12a1.29 1.29 0 0 0-.4-.69 7.82 7.82 0 0 1-.53-.69l-.15-.21a1.37 1.37 0 0 1-.13-.2 2.14 2.14 0 0 0-.3-.41 34 34 0 0 1-3.21-4 2.63 2.63 0 0 0-.35-.39 2.61 2.61 0 0 1-.23-.24c-.47-.59-.89-1.13-1.26-1.64a.24.24 0 0 1 0-.12 5.47 5.47 0 0 0 0-1.8v-.9c0-.91.06-1.66.12-2.38a10.12 10.12 0 0 0 0-1.91c0-.32-.06-.64-.07-1s0-.78 0-1.19v-.26a4.75 4.75 0 0 0 .64 0 .74.74 0 0 0 .34-.08h.25l.29.05a4.81 4.81 0 0 0 .64.07.92.92 0 0 0 .7-.26 1 1 0 0 0 .2-.76c0-.27 0-.54-.06-.83v-.63l-.2-.08a4.28 4.28 0 0 0-1.77-.22 6.63 6.63 0 0 1-1 0v-4.77h-2.23a.81.81 0 0 0-.51.28.89.89 0 0 0-.2.62v.63a14.91 14.91 0 0 1-.09 3.31h-1.23c-.81 0-1.22 0-1.47.32s-.21.67-.13 1.47a.88.88 0 0 0 1 .89h2v.06a1.34 1.34 0 0 1 0 .5 2.21 2.21 0 0 0 0 1.42 2.56 2.56 0 0 1 0 .88v.17c0 .8-.1 1.62-.1 2.44 0 .4 0 .81.06 1.21s0 .94 0 1.41a3 3 0 0 1-.71 2.35 12 12 0 0 0-1.18 1.4l-.29.36-1.84 2.37-1.82 2.5c-.34.43-.7.86-1 1.29l-.79 1c-.78 1-1.56 2-2.32 2.93l-1.27 1.64c-.52.68-1 1.37-1.57 2-.26.33-.52.64-.79 1l-.69.81-.77 1-.63.82c-.2.26-.41.51-.62.76s-.51.62-.75.93c-.39.5-.77 1-1.15 1.51l-1 1.24c-.36.47-.77.94-1.16 1.39a19.6 19.6 0 0 0-1.77 2.24l-.16.26a2.84 2.84 0 0 1-.18.31l-1.55 1.9L97.46 67c-.09.12-.18.24-.26.37a3.52 3.52 0 0 1-.27.37 17.32 17.32 0 0 0-2.2 2.86.9.9 0 0 1-.32.28 1.07 1.07 0 0 0-.68.87.74.74 0 0 1-.12.16v.06c-.54.65-1.09 1.3-1.64 1.94a10.8 10.8 0 0 0-.71 1 5 5 0 0 1-1.38 1.54.5.5 0 0 0-.25.35 1.68 1.68 0 0 1-.6.9 2.62 2.62 0 0 0-.75 1.07l-.17.12-.1.1a4.22 4.22 0 0 0-.41.43l-.58.76c-.32.44-.66.9-1 1.31a2.54 2.54 0 0 0-.45.74l-.06-.24a4.67 4.67 0 0 0-1.51-2.2l-.43-.44a.88.88 0 0 0-.31-.25h-.08a.84.84 0 0 0-.68-.1.54.54 0 0 0 0-.18.89.89 0 0 0-.42-.65l-.15-.17a2.61 2.61 0 0 0-.65-.39A7.56 7.56 0 0 1 78 75.53a2.62 2.62 0 0 0-.22-.25 3 3 0 0 1-.78-1.13 4.48 4.48 0 0 0-.2-.54c0-.08-.08-.18-.12-.28v-.06a1 1 0 0 0 0-.49v-.18a5.47 5.47 0 0 0-1-2.41 2.65 2.65 0 0 1-.3-.52 4 4 0 0 0-2-1.92 5.39 5.39 0 0 0-3.2-.66A4.92 4.92 0 0 0 67 68.73a5.79 5.79 0 0 0-1.73 4.21.23.23 0 0 1 0 .09 6.64 6.64 0 0 1-3.31 3.82 2.27 2.27 0 0 0-.34.24.81.81 0 0 1-.26.17 5.88 5.88 0 0 0-2.62 1.55l-.47.4a2 2 0 0 0-.49.61 1.94 1.94 0 0 1-.33.43 2.79 2.79 0 0 0-1 2.46v.21a1.16 1.16 0 0 0-.26.47 4.8 4.8 0 0 0 0 1.85c0 .21 0 .42.06.63l.06.52a2.28 2.28 0 0 1-.13 1.49c-.09.16-.18.32-.26.49a6 6 0 0 1-.59 1l-.26.33a2.64 2.64 0 0 1-1 .91 7.37 7.37 0 0 0-2.5 1.92l-.46.47a5.4 5.4 0 0 0-1.55 2.68 5.88 5.88 0 0 1-.37 1 4.67 4.67 0 0 0-.48 2v2.44a7.21 7.21 0 0 0 .43 2.14l.21.71a3.16 3.16 0 0 0 .88 1.65l.09.11a1.34 1.34 0 0 0-.66.07 1.61 1.61 0 0 1-1 0h-.1a3.44 3.44 0 0 0-.69-.07H44.34a2.49 2.49 0 0 0-1.89.31l-.09.06v.1a.93.93 0 0 0 0 .79.8.8 0 0 0 .57.36 10.64 10.64 0 0 0 1.34.17 1.25 1.25 0 0 0 .39 0 1.4 1.4 0 0 1 .28 0 5.38 5.38 0 0 0 1.2 0 4.09 4.09 0 0 1 1.36.09 1.21 1.21 0 0 0 .66 0h.13c.09 0 .18-.06.27-.09a1.25 1.25 0 0 1 .21-.07 1.75 1.75 0 0 1 .36.07 2.35 2.35 0 0 0 .57.09 1.72 1.72 0 0 0 .52-.11 1 1 0 0 1 .33-.07 10.18 10.18 0 0 0 2.46.15 1.48 1.48 0 0 1 .49.15l.17.07.38.2.3.16.15-.07a7.19 7.19 0 0 1 2.94-.52 2.15 2.15 0 0 0 .51 0h.39a1 1 0 0 1 .28 0 21.75 21.75 0 0 0 4.54.07h3.79a9.73 9.73 0 0 1 1.07 0h.76a5.14 5.14 0 0 1 1.32.09 2.92 2.92 0 0 0 1.1 0l.58-.1a3.33 3.33 0 0 1 1.11-.1c.49.06 1 .08 1.45.1H78.65a5.87 5.87 0 0 0 .84 0 5.44 5.44 0 0 1 .57 0h8.65a5.09 5.09 0 0 1 .55 0 3.84 3.84 0 0 0 1.22 0 5.66 5.66 0 0 1 1.59 0 1.9 1.9 0 0 0 .42 0h2.02a1.82 1.82 0 0 0 .33 0l.91-.06 1-.08h7.07a1.13 1.13 0 0 0 1.07 0l.3.08a2.55 2.55 0 0 0 .75.12c.74 0 1.47-.09 2.21-.14l1.09-.07a.88.88 0 0 0 .93.23h.16c.22 0 .45 0 .67-.07a4.38 4.38 0 0 1 1.13 0 9.61 9.61 0 0 0 2 0H114.98a16.35 16.35 0 0 1 2.1 0 6.81 6.81 0 0 0 1.37 0l.36-.05a1.73 1.73 0 0 1 1.33.15l.22.15.2-.18c.2-.18.4-.24.85 0a2.17 2.17 0 0 0 .94.08h.18a.77.77 0 0 0 .35-.1h5.24c.65 0 1.53 0 2.28-.08l1-.06a8.11 8.11 0 0 0 2.24.13 9 9 0 0 1 1.72 0 11.35 11.35 0 0 0 2.67 0l1.12-.08a1.43 1.43 0 0 0 .29 0 1.34 1.34 0 0 1 .34 0 3.1 3.1 0 0 0 1.81 0c.29-.09.41 0 .48.08a.87.87 0 0 0 1.14.23 1 1 0 0 1 .39-.09c.37 0 .74 0 1.09-.09a5.33 5.33 0 0 1 1.87 0 .71.71 0 0 0 .3 0 10.44 10.44 0 0 1 2.51-.13 12 12 0 0 0 2.45-.09 2.77 2.77 0 0 0 1.45.2h.38c.87 0 1.78 0 2.68.09a12 12 0 0 0 2.15 0 6 6 0 0 1 1 0 4.35 4.35 0 0 0 2-.23.49.49 0 0 1 .28 0 3.21 3.21 0 0 0 2 .09 2.22 2.22 0 0 1 .46 0H166a3 3 0 0 0 .85-.13.71.71 0 0 0 .49-.49.66.66 0 0 0-.34-1.04zm-42.61-72.62v.09-.1zM85.74 86.49c0-.24 0-.48.05-.73a8.16 8.16 0 0 0 .06-1.4c0-.3 0-.61-.1-.93a7 7 0 0 0 .75.65 1.31 1.31 0 0 0 1.72-.33l.2-.28c.68-.94 1.36-1.87 2-2.8.06 2.1.05 4.19 0 6.21s0 4 0 6a10.14 10.14 0 0 0-1.66-1.42l-.45-.34-.32-.24a5.89 5.89 0 0 1-2-2.14 4.28 4.28 0 0 1-.25-2.25zM71.39 98.88h.43l-.32.26zm19.19 1.4a2.49 2.49 0 0 0-.08.75v4.02a2.42 2.42 0 0 1-.13.55v.05h-.13l-.69.07a1.84 1.84 0 0 0-.3.07h-.13a1.9 1.9 0 0 0-1.36-.15h-.31a20.83 20.83 0 0 1-2.09 0h-.92a11 11 0 0 0-2 0h-.33a3.83 3.83 0 0 1-.65.06 3.79 3.79 0 0 1-.52-.09 2.85 2.85 0 0 0-.72-.12c-1.13 0-2.29 0-3.42.11h-1.3a9.64 9.64 0 0 0-1.93 0 4.46 4.46 0 0 1-1.38-.11l-.5-.08c0-.21 0-.42-.06-.63v-1.28-2a.9.9 0 0 1 .3-.78l2.63-2.6 1-1c.37-.36.74-.74 1.1-1.13a1 1 0 0 0 .19-.9.63.63 0 0 0-.4-.35.84.84 0 0 0-.69.11 2.06 2.06 0 0 0-.37.29l-.9.89-1.34 1.47-.31.25a1.93 1.93 0 0 0-.65.68 1.64 1.64 0 0 1-.14.22l-.67-.28a1.31 1.31 0 0 0 .17-.48 11.61 11.61 0 0 0 .06-2.12 8.43 8.43 0 0 1 0-1.32 6.6 6.6 0 0 0 0-1.88 6 6 0 0 1 0-1.52 1.89 1.89 0 0 0 0-.42c0-.3 0-.34.07-.4a4.11 4.11 0 0 0 1-1 6.19 6.19 0 0 1 .48-.53 2.09 2.09 0 0 0 .67-1.63h.24a2.09 2.09 0 0 0 1-.26 2.69 2.69 0 0 0 1.29-1.7l.08-.28-.27-.11c-.75-.32-.92-.34-1.41.22a5.93 5.93 0 0 1-.85.77l-.1.07a1 1 0 0 0-.54.79 5.29 5.29 0 0 0-1.35 1.16l-.2.22a4.48 4.48 0 0 0-.06-.64v-.17a8.12 8.12 0 0 1 0-2.31 7.13 7.13 0 0 0 0-1.66 6.77 6.77 0 0 1 0-1.19.78.78 0 0 0-.1-.53.87.87 0 0 0-.6-.39.76.76 0 0 0-.67.46 3.29 3.29 0 0 0-.14.94V87.9l-.38-.32-.32-.34a3.82 3.82 0 0 0-.65-.62 7.94 7.94 0 0 1-1.31-1.22c-.15-.17-.31-.33-.46-.49a.43.43 0 0 1-.07-.1.75.75 0 0 0-.35-.33 1 1 0 0 0-.88 0 .85.85 0 0 0-.13 1 3.67 3.67 0 0 0 .4.52c.1.11.2.21.29.33a5 5 0 0 0 .84.82 4.6 4.6 0 0 1 .68.64 22.8 22.8 0 0 0 1.67 1.73l.63.6V91.42c0 .57.06 1.16.06 1.73v4.59a1.35 1.35 0 0 0 .1.57.67.67 0 0 0-.17.4l-1.8-1.54a.57.57 0 0 1-.12-.17 5.89 5.89 0 0 0-1.07-1.15 6.33 6.33 0 0 1-.85-.87.75.75 0 0 0-.49-.3.65.65 0 0 0-.82.88 1.24 1.24 0 0 0 .32.57l.8.74.51.46.07.08a2.2 2.2 0 0 1 .37.38 15.57 15.57 0 0 0 2.5 2.55 1.5 1.5 0 0 1 .64 1.25v3.52c0 .19 0 .39-.05.6v.07h-.56l-1.44-.08-1.24-.06a1.61 1.61 0 0 0-.31 0h-.49a8 8 0 0 1-.84 0h-.66a2.7 2.7 0 0 1-1.3-.1.78.78 0 0 0-.37 0h-2.65a4.85 4.85 0 0 0-2 .21.85.85 0 0 1-.24 0h-.25a.63.63 0 0 0-.43-.07 1.37 1.37 0 0 1-.56 0 1.59 1.59 0 0 0-1.19.13h-.1a1.19 1.19 0 0 0-.44-.1c-.7 0-1.4.06-2.13.1h-.61l-.35-.51-1-1.54q-.24-.37-.48-.78l-.15-.24a1.5 1.5 0 0 0 .12-.72 15 15 0 0 1-.12-2.34v-.58a7.93 7.93 0 0 1 .68-2.93l.21-.56a1.64 1.64 0 0 1 .64-1 .71.71 0 0 0 .29-.35 4.43 4.43 0 0 1 2.11-2 4.58 4.58 0 0 0 1-.79 3.4 3.4 0 0 1 .83-.66.7.7 0 0 0 .32-.41.54.54 0 0 1 .05-.11l.06-.1a.92.92 0 0 1 .18-.23 3.35 3.35 0 0 0 1.08-2.27 11.73 11.73 0 0 0-.05-3.19l-.09-.92a.78.78 0 0 0-.17-.48.37.37 0 0 0 .16-.07.79.79 0 0 0 .34-.57 3.15 3.15 0 0 1 .72-1.39c.09-.11.18-.23.26-.35a4.37 4.37 0 0 1 .89-.93 4.2 4.2 0 0 1 .63-.38 5.86 5.86 0 0 0 .55-.3c.38-.25.79-.48 1.19-.7a13.75 13.75 0 0 0 2-1.29 7.63 7.63 0 0 0 2.51-3.88c.06-.22.12-.44.19-.66a11.09 11.09 0 0 1 .48-1.58 3.49 3.49 0 0 1 1.79-2 3.67 3.67 0 0 1 3.51.08 4.63 4.63 0 0 1 2.21 3 9.05 9.05 0 0 0 .3 1c0 .15.1.3.14.45l.1.31.21-.06a.87.87 0 0 0 0 .58 2.32 2.32 0 0 0 .44 1c.18.19.34.41.51.63a4.8 4.8 0 0 0 1.41 1.5 4.55 4.55 0 0 1 .67.47 5.62 5.62 0 0 0 .79.56c.53.28 1.09.53 1.63.77l.72.31.22.11.11-.12a1.65 1.65 0 0 0 .07.32 1 1 0 0 1 .05.16.33.33 0 0 0 .12.22l.33.38c.26.29.52.58.77.89a2.41 2.41 0 0 1 .37.63 11.52 11.52 0 0 1 .53 3 4.88 4.88 0 0 1-.09 1.13 4.2 4.2 0 0 0-.06 1.59v.11a4 4 0 0 0 1.06 2.36 1.38 1.38 0 0 1 .22.29c.08.1.15.21.24.31l.11.12a2.37 2.37 0 0 0 .64.58 13.37 13.37 0 0 1 3.77 3.27 1.43 1.43 0 0 1 .27.79v2.8a2.45 2.45 0 0 0 .07 1 1.08 1.08 0 0 1-.03.74zm18.15 3.13a1.31 1.31 0 0 0 0 .45 1 1 0 0 1 0 .17v.22a7.3 7.3 0 0 1 0 1.55 1.74 1.74 0 0 0-.72-.08 7.28 7.28 0 0 1-1.75 0 7.94 7.94 0 0 0-2.27.12 1.14 1.14 0 0 1-.26-.05h-.24a.59.59 0 0 0-.33-.08h-.54a4.7 4.7 0 0 1-2.21-.15.75.75 0 0 0-.72.14c-.07.08-.13.08-.35 0h-.19a7.15 7.15 0 0 0-1.52.08h-.19c-.2.05-.25.05-.33 0a.8.8 0 0 0-.5-.15.74.74 0 0 0-.4.1.91.91 0 0 1-.72 0h-.18a4.22 4.22 0 0 0-.61 0h-1.12a11.52 11.52 0 0 0-1.17 0 .57.57 0 0 1-.36-.06.4.4 0 0 1-.08-.29 4.28 4.28 0 0 1 0-.49 3.81 3.81 0 0 0 .06-.6v-6.02-.4V96.46v-1.57c0-.57 0-.85-.06-1.28s-.07-1-.07-1.51c0-.77.06-1.56.11-2.32v-.77a12.69 12.69 0 0 0 0-1.52 7.08 7.08 0 0 1 0-2.06 1.31 1.31 0 0 0-.1-.71.92.92 0 0 1 0-.65 3.32 3.32 0 0 0 .14-1V83 81.34h.07a14.12 14.12 0 0 0 2.52 0 12.11 12.11 0 0 1 2.76 0 1.24 1.24 0 0 0 1.16-.23.65.65 0 0 0 .32.12l.71.06a13.37 13.37 0 0 0 2.37 0 13.37 13.37 0 0 1 1.55 0h1l-.18.17a1.17 1.17 0 0 0 0 1.76l.26.27a1 1 0 0 1 .18.18 1.29 1.29 0 0 0 1 .43 1.28 1.28 0 0 0 .91-.47l1-1.21 1-1.32v.34a1 1 0 0 1 0 .17 1.54 1.54 0 0 0 0 .3V85.56a10.55 10.55 0 0 0 0 1.94 5.16 5.16 0 0 1 0 2 5 5 0 0 0 0 1.59 4.44 4.44 0 0 1 0 1.15 5 5 0 0 0 0 .86v4.67a7.08 7.08 0 0 0 .13 1q0 .24.09.51a1 1 0 0 0-.24.66 13.83 13.83 0 0 1 .07 3.47zm-3.08-21.06l.15-.18.79-.92.57-.66.65-.76.15-.17a12.54 12.54 0 0 0-.81 1.16 5.65 5.65 0 0 1-.62.79c-.22.23-.45.44-.68.66l-.13.13zm24 19.06v4.33h-1.49a23.06 23.06 0 0 0-3.8.12 5.62 5.62 0 0 0-1.62-.2h-1.19a9 9 0 0 1-2.43-.07v-.1c0-.31.06-.63.07-1a1.7 1.7 0 0 0-.32-1.24v-.52a6.85 6.85 0 0 1 .14-1.32 6 6 0 0 0 .08-1.83 6.89 6.89 0 0 1 0-1.44 4 4 0 0 0 0-1.14v-.61-.72a13.8 13.8 0 0 1 .11-2.64 7.78 7.78 0 0 1 2.52-.12 9.78 9.78 0 0 0 2 0h5.86V94.57a6.41 6.41 0 0 0 0 1.07 19.33 19.33 0 0 1 0 3.57v.4a15.79 15.79 0 0 0 .04 1.8zm9.06-3.16c0 .23-.08.45-.12.67a4.58 4.58 0 0 0-.15 1.56 14.51 14.51 0 0 1 .06 2v3.32h-7.34a19.39 19.39 0 0 0-.16-4.22 2.27 2.27 0 0 1 0-.45c0-.16 0-.31.07-.46a6.23 6.23 0 0 0 .09-.89v-2.89-2.73-.42a4.08 4.08 0 0 0-.31-2l-.09-.19h-2.95a1.47 1.47 0 0 1-.34 0 2.85 2.85 0 0 0-.52-.06l-1.39.06c-.58 0-1.17 0-1.76.06H118.66a.79.79 0 0 0-1 1V96.47c0 .55-.05.81-.06 1.22s0 .91 0 1.37V101.96a4 4 0 0 0 0 1.37 2 2 0 0 1 0 .85 2.76 2.76 0 0 0 0 .91 2.93 2.93 0 0 1 0 .71v.11H114.03c-.87 0-1.84-.09-2.74-.15l-.92-.06v-.17a8.43 8.43 0 0 1-.11-1v-2.77-1.33a2.56 2.56 0 0 0-.17-.77.81.81 0 0 0-.21-.32.67.67 0 0 0 .26-.4 11.2 11.2 0 0 0 .15-1.82c0-.66 0-1.31-.07-2s-.07-1.63-.08-2.45c0-.59 0-1.2.09-1.79 0-.4.07-.79.09-1.19v-.12a14.83 14.83 0 0 0 0-2c0-.2 0-.39-.07-.59a4.34 4.34 0 0 1 0-1.76 2.15 2.15 0 0 0 .07-.71 7.58 7.58 0 0 0 1 0 3.89 3.89 0 0 1 1.6.09.76.76 0 0 0 .43 0h.32a1.14 1.14 0 0 1 .3 0 1.49 1.49 0 0 0 1.69-.26 1.32 1.32 0 0 0 1.43 0h.08a2.48 2.48 0 0 0 1.49.22h14.16a6.52 6.52 0 0 1 1.66.08 2.83 2.83 0 0 0 1.9-.28 5.3 5.3 0 0 0 1.91.25h.14v.52c0 .65.07 1.33.08 2v1.08c0 .37 0 .6-.05.9v4.36a6.7 6.7 0 0 1 0 1.42 5.92 5.92 0 0 0 0 1.26v.58a4 4 0 0 0 .25 1.54zm-28.47-15.37l.1-2.09h.53c.6 0 1.19-.06 1.77-.06h6.25a2.69 2.69 0 0 0 .4 0h3.74a1.19 1.19 0 0 0 1-.44.85.85 0 0 0 .15-.3.61.61 0 0 0 .36.38l.41.12a4 4 0 0 0 1.44.25 24.17 24.17 0 0 1 3.72 0h1.12a7.36 7.36 0 0 1 1.56.06 6.18 6.18 0 0 0 1.55 0c.29 0 .56-.06.83-.07h3.27v.42a6.42 6.42 0 0 1 0 1.75h-.11a2.59 2.59 0 0 1-.57.07h-17.33c-.74 0-1.49-.07-2.21-.13H118a.91.91 0 0 0-.78.18.7.7 0 0 0-.35-.12h-6.62zm5.5-13.08c.62-.76 1.22-1.54 1.8-2.3l.16-.2 1.3-1.67.39-.46c.58-.75 1.18-1.51 1.82-2.21.1-.11.19-.23.28-.35l.46-.58c.08-.13.17-.25.26-.37a11.31 11.31 0 0 1 .92-1.21 11.82 11.82 0 0 0 .84-1.06l.4-.53a7.69 7.69 0 0 1 .73.93l.08.12.6.76a3.76 3.76 0 0 0 .76.66l.21.13a1 1 0 0 0 .27.71c.23.26.45.55.66.83l-.15-.15-.08-.08.86 1.07-.1-.15c.11.15.23.29.35.43s.41.51.62.77c.37.46.75.94 1.17 1.39a18.09 18.09 0 0 1 1.35 1.78l.53.75.88 1.12c.33.4.67.79 1 1.16s.8.93 1.19 1.41.55.71.81 1.07.6.82.93 1.22.49.6.72.9l-.13-.15 1.1 1.34.85 1.19c.27.31.54.63.84.92a.85.85 0 0 1 .21.28 4.26 4.26 0 0 0 .8 1.1c.1.12.21.23.31.36.36.43.7.9 1 1.35l.24.32-.1-.11c-.26-.31-.5-.63-.75-1l-.49-.63-.91-1.14c-.34-.41-.66-.83-1-1.25a1.09 1.09 0 0 0-1.3.86h-.7c-.32 0-.64 0-1-.06a14.89 14.89 0 0 0-1.77 0c-1.48.06-2.83.07-4.11 0a5.19 5.19 0 0 0-.56 0H125a.46.46 0 0 0-.31 0l-.3.15-.19.1v-.13l-2-.14h-7.92a5.87 5.87 0 0 1-1.39 0 8.37 8.37 0 0 0-2.5 0h-.09s-.17-1.42-1.06-.89l-.14.12c-.17.18-.35.32-.53.53s-.5.51-.17.15l.14-.27s2.06-2.53 2.18-2.71.44-.53.81-1l.2-.27a3.43 3.43 0 0 1 .54-.62l.25-.27.35-.44a2.12 2.12 0 0 0 .33-.73 6.6 6.6 0 0 0 1-.93l1-1.25.08-.1v-.12l.17-.22v-.07c.06-.08.07-.11.13-.18m41.2 30.76a8.19 8.19 0 0 1 0 .85.42.42 0 0 0 .13.3 1 1 0 0 0-.15.47v.45a4.27 4.27 0 0 0 0 1.24 7 7 0 0 1 0 1.3v.35h-4.3l-.47.06a1.38 1.38 0 0 1-.52 0 7.19 7.19 0 0 0-1.73 0 6.66 6.66 0 0 1-1.34 0 12 12 0 0 0-1.74-.07c-.93 0-1.86.06-2.8.1H142.27a6.63 6.63 0 0 0-1.26 0 3.23 3.23 0 0 1-.9-.08h-.16a2.71 2.71 0 0 0 .07-.58c0-.41 0-.83-.05-1.24s0-.61 0-.92v-1.74-.85-1.32a1.05 1.05 0 0 0-.26-.75.76.76 0 0 0 .34-.63v-1.55c0-.49 0-.7-.05-1s-.06-1-.06-1.47v-1.55-1.48-3.13-1.88-.91-.7-2.69a3.24 3.24 0 0 1 .24.31 11.83 11.83 0 0 0 .79 1 7 7 0 0 1 .56.63 5.23 5.23 0 0 0 1.26 1.22l.2.13.5-.4c.22-.17.42-.32.61-.48a1.21 1.21 0 0 0 .22-1.9 3.21 3.21 0 0 1-.19-.31h.42a18.28 18.28 0 0 1 1.94 0c1.22.06 2.46 0 3.66 0h1.49a5.2 5.2 0 0 0 2.31-.41 2 2 0 0 0 1.6.42 9 9 0 0 1 1 0h.18v10.23a62.47 62.47 0 0 0 .12 6.69v.23h.12a4.23 4.23 0 0 0-.17 2.24zm-18.13-47.12c.16.22.34.43.52.64l.36.45L140.7 56l1.89 2.4 1.26 1.6c.41.51.82 1 1.22 1.52.21.26.42.53.62.8l.71.93c.18.22.37.44.57.65s.44.5.64.76.32.43.47.65l.15.17 1.61 2.14 1.22 1.5 1.36 1.67a3.83 3.83 0 0 1 .27.39l.29.43 1.29 1.6.95 1.18 1.92 2.42.19.25.77 1 .06.08 3.12 4c.13.16.25.32.37.49l-.18-.22q-.41-.47-.78-.93c-.35-.45-.7-.89-1-1.34l-1.3-1.65c-.09-.11-.27-.14-.36-.24-.27 0-1-.09-1.17.93v.73h-2.25l-2.06.05h-.82a12.54 12.54 0 0 0-1.37 0 17.78 17.78 0 0 1-2.19 0 14.58 14.58 0 0 0-2.72 0 1.55 1.55 0 0 1-.34 0 1.77 1.77 0 0 0-.46-.07h-1.29a.45.45 0 0 1-.43-.22c-.36-.49-.75-1-1.13-1.43l-.78-1c-.54-.68-1.08-1.35-1.63-2-.15-.18-.29-.38-.42-.57a5.37 5.37 0 0 0-1.15-1.28l-.71-.92c-.46-.59-.92-1.18-1.37-1.78l-1.38-1.79c-.92-1.21-1.84-2.42-2.78-3.61s-1.88-2.33-2.81-3.45l-.62-.76a1.62 1.62 0 0 0-.38-.32l-.15-.11-.26-.2a1 1 0 0 0-.22-.63l-.65-.84c-.39-.5-.78-1-1.18-1.48a1 1 0 0 0-.7-.46 1.08 1.08 0 0 0-.77.36l-.25.23a7.31 7.31 0 0 0-1.36 1.37 36.69 36.69 0 0 1-2.23 3 4.56 4.56 0 0 0-.41.6 4.81 4.81 0 0 1-.38.55 7.73 7.73 0 0 1-.57.58 9.58 9.58 0 0 0-.69.73c-.69.86-1.35 1.75-2 2.64a7.57 7.57 0 0 1-.53.65 4.27 4.27 0 0 0-1 1.41.38.38 0 0 0-.13.1c-.18.2-.36.4-.55.59-.43.47-.88 1-1.27 1.47l-.07.08c-.75 1-1.54 2-2.37 3-.68.79-1.31 1.64-1.92 2.46l-.43.57c-.47.63-1 1.25-1.44 1.87l-.17.23c-.24.3-.4.43-.51.39a3.67 3.67 0 0 0-1.73-.1 5.36 5.36 0 0 1-1 0 21.48 21.48 0 0 0-3 0h-1.54a6.71 6.71 0 0 1-.73-.06 5 5 0 0 0-1.16 0 20.77 20.77 0 0 1-3.15.1h-1.28a2.32 2.32 0 0 1 0-.65s-.13-1.46-.88-1.19a2.7 2.7 0 0 0-.83.53l-.2.24q-.94 1.19-1.86 2.37l-.91 1.2-.16.22c-.09-.15 0-.26.12-.45.26-.35.54-.69.82-1 .72-.88 1.45-1.75 2.19-2.62a2.29 2.29 0 0 1 .21-.23l.81-1s1.93-2.27 2.57-3.12l-.06.07-.39.42.3-.35.3-.35c.12-.22.76-1 1.39-1.82.7-1 1.45-1.93 2.19-2.85.36-.45.72-.89 1.07-1.35s.77-1 1.16-1.42L101 65c.46-.58.91-1.18 1.36-1.77l.67-.87a6.23 6.23 0 0 1 .5-.64l.12-.15c.68-.86 1.37-1.72 2.07-2.57l.39-.49.21-.22a2 2 0 0 0 .44-.55 3.36 3.36 0 0 1 .53-.74l.07-.08-.09.14c.11-.15.23-.3.35-.44a.23.23 0 0 0-.07.07 5.52 5.52 0 0 0 .32-.47 7.39 7.39 0 0 1 1.11-1.38l.06-.06c.21-.23.44-.46.64-.71.67-.82 1.38-1.71 2-2.65a11.36 11.36 0 0 1 1-1.2l.36-.41-.13.19c.34-.43.69-.87.84-1.08a3.21 3.21 0 0 0 .19-.31 15.23 15.23 0 0 1 1.39-1.8 17.21 17.21 0 0 0 1.28-1.62 16.91 16.91 0 0 1 1.17-1.48c.22-.26.44-.51.65-.77l1.16-1.47 1.41-1.69c.34-.43.69-.85 1-1.28l1-1.24a4 4 0 0 0 .22-.34 1.53 1.53 0 0 1 .16-.25c.28-.37.53-.64.84-1h.18a1.31 1.31 0 0 1 .23.2 9.93 9.93 0 0 1 .72.86c.31.35.61.71.91 1.08s.62.79.92 1.19l.64.84.23.29c.82 1 1.64 2.09 2.48 3.13a8.53 8.53 0 0 0 .65.69l.3.3.3.31a5 5 0 0 0 .42.77m3.72 4.82" fill="#575757"/></svg>
